<svg width="25" height="24" viewBox="0 0 25 24" fill="none" xmlns="http://www.w3.org/2000/svg">
<g clip-path="url(#clip0_1_13506)">
<mask id="mask0_1_13506" style="mask-type:luminance" maskUnits="userSpaceOnUse" x="0" y="0" width="25" height="24">
<path d="M24.2109 0H0.210938V24H24.2109V0Z" fill="white"/>
</mask>
<g mask="url(#mask0_1_13506)">
<path d="M12.2109 2.16094C15.4172 2.16094 15.7969 2.175 17.0578 2.23125C18.2297 2.28281 18.8625 2.47969 19.2844 2.64375C19.8422 2.85938 20.2453 3.12188 20.6625 3.53906C21.0844 3.96094 21.3422 4.35938 21.5578 4.91719C21.7219 5.33906 21.9188 5.97656 21.9703 7.14375C22.0266 8.40937 22.0406 8.78906 22.0406 11.9906C22.0406 15.1969 22.0266 15.5766 21.9703 16.8375C21.9188 18.0094 21.7219 18.6422 21.5578 19.0641C21.3422 19.6219 21.0797 20.025 20.6625 20.4422C20.2406 20.8641 19.8422 21.1219 19.2844 21.3375C18.8625 21.5016 18.225 21.6984 17.0578 21.75C15.7922 21.8063 15.4125 21.8203 12.2109 21.8203C9.00469 21.8203 8.625 21.8063 7.36406 21.75C6.19219 21.6984 5.55938 21.5016 5.1375 21.3375C4.57969 21.1219 4.17656 20.8594 3.75938 20.4422C3.3375 20.0203 3.07969 19.6219 2.86406 19.0641C2.7 18.6422 2.50313 18.0047 2.45156 16.8375C2.39531 15.5719 2.38125 15.1922 2.38125 11.9906C2.38125 8.78438 2.39531 8.40469 2.45156 7.14375C2.50313 5.97187 2.7 5.33906 2.86406 4.91719C3.07969 4.35938 3.34219 3.95625 3.75938 3.53906C4.18125 3.11719 4.57969 2.85938 5.1375 2.64375C5.55938 2.47969 6.19688 2.28281 7.36406 2.23125C8.625 2.175 9.00469 2.16094 12.2109 2.16094ZM12.2109 0C8.95313 0 8.54531 0.0140625 7.26563 0.0703125C5.99063 0.126563 5.11406 0.332812 4.35469 0.628125C3.5625 0.9375 2.89219 1.34531 2.22656 2.01562C1.55625 2.68125 1.14844 3.35156 0.839062 4.13906C0.543749 4.90313 0.337499 5.775 0.281249 7.05C0.224999 8.33437 0.210938 8.74219 0.210938 12C0.210938 15.2578 0.224999 15.6656 0.281249 16.9453C0.337499 18.2203 0.543749 19.0969 0.839062 19.8563C1.14844 20.6484 1.55625 21.3188 2.22656 21.9844C2.89219 22.65 3.5625 23.0625 4.35 23.3672C5.11406 23.6625 5.98594 23.8687 7.26094 23.925C8.54063 23.9812 8.94844 23.9953 12.2063 23.9953C15.4641 23.9953 15.8719 23.9812 17.1516 23.925C18.4266 23.8687 19.3031 23.6625 20.0625 23.3672C20.85 23.0625 21.5203 22.65 22.1859 21.9844C22.8516 21.3188 23.2641 20.6484 23.5688 19.8609C23.8641 19.0969 24.0703 18.225 24.1266 16.95C24.1828 15.6703 24.1969 15.2625 24.1969 12.0047C24.1969 8.74688 24.1828 8.33906 24.1266 7.05938C24.0703 5.78438 23.8641 4.90781 23.5688 4.14844C23.2734 3.35156 22.8656 2.68125 22.1953 2.01562C21.5297 1.35 20.8594 0.9375 20.0719 0.632812C19.3078 0.3375 18.4359 0.13125 17.1609 0.075C15.8766 0.0140625 15.4688 0 12.2109 0Z" fill="white"/>
<path d="M12.2109 5.83594C8.80781 5.83594 6.04688 8.59688 6.04688 12C6.04688 15.4031 8.80781 18.1641 12.2109 18.1641C15.6141 18.1641 18.375 15.4031 18.375 12C18.375 8.59688 15.6141 5.83594 12.2109 5.83594ZM12.2109 15.9984C10.0031 15.9984 8.21249 14.2078 8.21249 12C8.21249 9.79219 10.0031 8.00156 12.2109 8.00156C14.4187 8.00156 16.2094 9.79219 16.2094 12C16.2094 14.2078 14.4187 15.9984 12.2109 15.9984Z" fill="white"/>
<path d="M20.0578 5.59238C20.0578 6.38926 19.4109 7.03145 18.6188 7.03145C17.8219 7.03145 17.1797 6.38457 17.1797 5.59238C17.1797 4.79551 17.8266 4.15332 18.6188 4.15332C19.4109 4.15332 20.0578 4.8002 20.0578 5.59238Z" fill="white"/>
</g>
</g>
<defs>
<clipPath id="clip0_1_13506">
<rect width="25" height="24" fill="white"/>
</clipPath>
</defs>
</svg>
