<svg width="144" height="90" viewBox="0 0 144 90" fill="none" xmlns="http://www.w3.org/2000/svg">
<g clip-path="url(#clip0_1_2396)">
<mask id="mask0_1_2396" style="mask-type:luminance" maskUnits="userSpaceOnUse" x="0" y="0" width="144" height="90">
<path d="M143.082 0H0V89.9273H143.082V0Z" fill="white"/>
</mask>
<g mask="url(#mask0_1_2396)">
<path fill-rule="evenodd" clip-rule="evenodd" d="M9.98182 65.8637L18.3273 46.0909L26.6727 65.8637H9.98182ZM0 79.0091H4.48182L8.3 69.9728H28.3727L32.2455 79.0091H36.7273L20.3 40.7637H16.4091L0 79.0091Z" fill="white"/>
<path fill-rule="evenodd" clip-rule="evenodd" d="M39.9277 79.0091H63.8641V74.8455H44.0641V40.7637H39.9277V79.0091Z" fill="white"/>
<path fill-rule="evenodd" clip-rule="evenodd" d="M74.3729 79.1182H78.2456L93.3002 40.7637H88.8365L76.3093 73.1273L63.782 40.7637H59.3184L74.1911 78.6546L74.3729 79.1182Z" fill="white"/>
<path fill-rule="evenodd" clip-rule="evenodd" d="M96.2461 79.0091H100.337V40.7637H96.2461V79.0091Z" fill="white"/>
<path fill-rule="evenodd" clip-rule="evenodd" d="M124.645 79.6453C137.245 79.6453 143.036 69.4362 143.09 59.9453C143.117 54.1998 141.254 49.0544 137.826 45.4544C134.545 41.9998 129.981 40.1816 124.645 40.1816C111.899 40.1816 106.199 50.0544 106.199 59.8362C106.199 69.618 111.972 79.6453 124.645 79.6453ZM110.281 59.8816C110.254 55.2544 111.708 51.1635 114.372 48.3544C116.89 45.6998 120.445 44.2998 124.636 44.2998C134.59 44.2998 139.045 52.1271 139.045 59.8816C139.045 67.418 134.536 75.518 124.636 75.518C114.836 75.518 110.326 67.4089 110.281 59.8726V59.8816Z" fill="white"/>
<path d="M0.709943 87.6097V84.9915H0.946304V87.6097L0.828125 87.7279L0.709943 87.6097ZM0.828125 87.7279H0.709943V87.6097L0.828125 87.7279ZM2.59176 87.7279H0.828125V87.4824H2.59176V87.7279ZM2.59176 85.1097V84.8642H2.7463L2.90085 84.9006L3.03721 84.937L3.16449 84.9915L3.28267 85.0552L3.39176 85.1279L3.49176 85.2188L3.58267 85.3188L3.66449 85.4279L3.72812 85.537L3.78267 85.6552L3.82812 85.7824L3.86449 85.9097L3.89176 86.037L3.90994 86.1642V86.3006V86.437L3.89176 86.5642L3.86449 86.6915L3.82812 86.8188L3.78267 86.9461L3.72812 87.0642L3.66449 87.1733L3.58267 87.2824L3.49176 87.3824L3.39176 87.4733L3.28267 87.5461L3.16449 87.6097L3.03721 87.6642L2.90085 87.7006L2.7463 87.7279H2.59176V87.4915H2.72812L2.85539 87.4642L2.97358 87.4279L3.08267 87.3824L3.18267 87.3279L3.27358 87.2642L3.3554 87.1915L3.42812 87.1097L3.49176 87.0279L3.5463 86.937L3.59176 86.837L3.62812 86.737L3.65539 86.6279L3.67358 86.5188V86.4097L3.69176 86.3006V86.1915L3.67358 86.0824L3.65539 85.9733L3.62812 85.8642L3.59176 85.7642L3.5463 85.6642L3.49176 85.5733L3.42812 85.4915L3.3554 85.4097L3.27358 85.337L3.18267 85.2733L3.08267 85.2188L2.97358 85.1733L2.85539 85.137L2.72812 85.1188H2.59176V85.1097ZM0.828125 84.8552H2.59176V85.1006H0.828125L0.709943 84.9824L0.828125 84.8642V84.8552ZM0.709943 84.9733V84.8552H0.828125L0.709943 84.9733ZM0.709943 89.7097V87.9461H0.946304V89.7097L0.828125 89.8279L0.709943 89.7097ZM0.946304 89.7097V89.8279H0.828125L0.946304 89.7097ZM0.455398 89.5915H0.828125V89.837H0.446307L0.328125 89.7188L0.446307 89.6006L0.455398 89.5915ZM0.455398 89.837H0.337216V89.7188L0.455398 89.837ZM0.57358 84.6097V89.7188H0.328125V84.6097L0.446307 84.4915L0.564489 84.6097H0.57358ZM0.337216 84.6097V84.4915H0.455398L0.337216 84.6097ZM2.59176 84.7279H0.446307V84.4824H2.59176V84.7279ZM2.59176 88.0642V87.8188H2.77358L2.9463 87.7824L3.10085 87.737L3.2463 87.6824L3.37358 87.6097L3.49176 87.5279L3.60085 87.437L3.70085 87.337L3.78267 87.2279L3.8554 87.1097L3.91903 86.9824L3.97358 86.8461L4.00994 86.7097L4.03721 86.5642L4.0554 86.4188V86.2733V86.1279L4.03721 85.9824L4.00994 85.837L3.97358 85.7006L3.91903 85.5642L3.8554 85.437L3.78267 85.3188L3.70085 85.2097L3.60085 85.1097L3.49176 85.0188L3.37358 84.937L3.2463 84.8642L3.10085 84.8097L2.9463 84.7642L2.77358 84.737H2.59176V84.4824H2.79176L2.98267 84.5188L3.16449 84.5642L3.32812 84.6279L3.48267 84.7097L3.62812 84.8097L3.75539 84.9188L3.87358 85.037L3.97358 85.1733L4.06449 85.3097L4.13721 85.4551L4.20085 85.6097L4.2463 85.7733L4.28267 85.937L4.30085 86.1006V86.2642V86.4279L4.28267 86.5915L4.2463 86.7551L4.20085 86.9188L4.13721 87.0733L4.06449 87.2188L3.97358 87.3552L3.87358 87.4915L3.75539 87.6097L3.62812 87.7188L3.48267 87.8188L3.32812 87.9006L3.16449 87.9642L2.98267 88.0097L2.79176 88.037H2.59176V88.0642ZM0.828125 87.8188H2.59176V88.0642H0.828125L0.709943 87.9461L0.828125 87.8279V87.8188ZM0.709943 87.937V87.8188H0.828125L0.709943 87.937Z" fill="white"/>
<path d="M0.827131 84.991V87.6092H2.59077C4.21804 87.6092 4.21804 84.991 2.59077 84.991H0.827131ZM0.827131 87.9637V89.7274H0.445312V84.6183H2.59077C4.70895 84.6183 4.70895 87.9546 2.59077 87.9546H0.827131V87.9637Z" fill="white"/>
<path d="M10.3627 87.4091V89.7273H10.1264V87.4091L10.2446 87.2909L10.3627 87.4091ZM10.2446 87.2909H10.3627V87.4091L10.2446 87.2909ZM7.13544 87.2909H10.2446V87.5364H7.13544L7.01726 87.4182L7.13544 87.3V87.2909ZM7.01726 87.4091V87.2909H7.13544L7.01726 87.4091ZM7.01726 89.7273V87.4091H7.25362V89.7273L7.13544 89.8455L7.01726 89.7273ZM7.25362 89.7273V89.8455H7.13544L7.25362 89.7273ZM6.76271 89.6091H7.13544V89.8545H6.76271L6.64453 89.7364L6.76271 89.6182V89.6091ZM6.76271 89.8545H6.64453V89.7364L6.76271 89.8545ZM6.88089 84.6273V89.7364H6.64453V84.6273L6.76271 84.5091L6.88089 84.6273ZM6.64453 84.6273V84.5091H6.76271L6.64453 84.6273ZM7.13544 84.7455H6.76271V84.5H7.13544L7.25362 84.6182L7.13544 84.7364V84.7455ZM7.13544 84.5H7.25362V84.6182L7.13544 84.5ZM7.01726 87.0545V84.6273H7.25362V87.0545L7.13544 87.1727L7.01726 87.0545ZM7.13544 87.1727H7.01726V87.0545L7.13544 87.1727ZM10.2446 87.1727H7.13544V86.9273H10.2446L10.3627 87.0455L10.2446 87.1636V87.1727ZM10.3627 87.0545V87.1727H10.2446L10.3627 87.0545ZM10.3627 84.6273V87.0545H10.1264V84.6273L10.2446 84.5091L10.3627 84.6273ZM10.1264 84.6273V84.5091H10.2446L10.1264 84.6273ZM10.6173 84.7455H10.2446V84.5H10.6173L10.7355 84.6182L10.6173 84.7364V84.7455ZM10.6173 84.5H10.7355V84.6182L10.6173 84.5ZM10.4991 89.7273V84.6182H10.7355V89.7273L10.6173 89.8455L10.4991 89.7273ZM10.7355 89.7273V89.8455H10.6173L10.7355 89.7273ZM10.2446 89.6091H10.6173V89.8545H10.2446L10.1264 89.7364L10.2446 89.6182V89.6091ZM10.2446 89.8545H10.1264V89.7364L10.2446 89.8545Z" fill="white"/>
<path d="M10.2545 89.7273V87.4091H7.1364V89.7273H6.76367V84.6182H7.1364V87.0545H10.2545V84.6182H10.6273V89.7273H10.2545Z" fill="white"/>
<path d="M15.4462 84.9548L16.7553 88.0639L16.5462 88.1639L15.2371 85.0548V84.9548H15.4462ZM15.2371 84.9548L15.3462 84.7002L15.4553 84.9548H15.2462H15.2371ZM13.928 88.0639L15.2371 84.9548L15.4462 85.0548L14.1371 88.1639L14.028 88.2366L13.9189 88.0639H13.928ZM14.0371 88.2366H13.8553L13.928 88.0639L14.0371 88.2366ZM16.6643 88.2366H14.0371V87.9911H16.6643L16.7734 88.0639L16.6643 88.2366ZM16.7734 88.0639L16.8462 88.2366H16.6643L16.7734 88.0639ZM16.9189 88.4275L17.4553 89.6821L17.2462 89.7821L16.7098 88.5275L16.8189 88.3548L16.928 88.4275H16.9189ZM16.8098 88.3548H16.8825L16.9098 88.4275L16.8007 88.3548H16.8098ZM13.8916 88.3548H16.8098V88.6002H13.8916L13.7825 88.4275L13.8916 88.3548ZM13.7825 88.4275L13.8098 88.3548H13.8825L13.7734 88.4275H13.7825ZM13.2553 89.6821L13.7825 88.4275L13.9916 88.5275L13.4643 89.7821L13.3553 89.8548L13.2462 89.6821H13.2553ZM13.4643 89.7821L13.4371 89.8548H13.3643L13.4734 89.7821H13.4643ZM12.9553 89.6093H13.3643V89.8548H12.9553L12.8462 89.6821L12.9553 89.6093ZM12.9553 89.8548H12.7734L12.8462 89.6821L12.9553 89.8548ZM15.2553 84.673L13.0643 89.7821L12.8553 89.6821L15.0462 84.573L15.1553 84.5002L15.2643 84.673H15.2553ZM15.0462 84.573L15.0734 84.5002H15.1462L15.0371 84.573H15.0462ZM15.5643 84.7457H15.1553V84.5002H15.5643L15.6734 84.573L15.5643 84.7457ZM15.5643 84.5002H15.6371L15.6643 84.573L15.5553 84.5002H15.5643ZM17.6462 89.7821L15.4553 84.673L15.6643 84.573L17.8553 89.6821L17.7462 89.8548L17.6371 89.7821H17.6462ZM17.8553 89.6821L17.928 89.8548H17.7462L17.8553 89.6821ZM17.3462 89.6093H17.7553V89.8548H17.3462L17.2371 89.7821L17.3462 89.6093ZM17.3462 89.8548H17.2734L17.2462 89.7821L17.3553 89.8548H17.3462Z" fill="white"/>
<path d="M16.6446 88.1091L15.3355 85L14.0265 88.1091H16.6537H16.6446ZM17.3265 89.7273L16.7901 88.4727H13.8719L13.3446 89.7273H12.9355L15.1265 84.6182H15.5355L17.7265 89.7273H17.3174H17.3265Z" fill="white"/>
<path d="M22.2182 87.5455H20.4909V87.3H22.2182V87.5455ZM23.3364 86.2H23.5727V86.2727V86.3455V86.4182L23.5545 86.4818V86.5455L23.5273 86.6091L23.5091 86.6727L23.4909 86.7364L23.4727 86.8L23.4455 86.8545L23.4182 86.9091L23.3909 86.9636L23.3545 87.0182L23.3182 87.0727L23.2818 87.1182L23.2364 87.1636L23.1909 87.2091L23.1455 87.2545L23.1 87.2909L23.0455 87.3273L22.9909 87.3636L22.9364 87.3909L22.8727 87.4182L22.8091 87.4455L22.7455 87.4636L22.6818 87.4818L22.6091 87.5L22.5364 87.5182H22.4636L22.3909 87.5364H22.3091H22.2273V87.2909H22.3H22.3727H22.4455L22.5091 87.2727H22.5727L22.6364 87.2455L22.6909 87.2273L22.7455 87.2091L22.8 87.1909L22.8455 87.1636L22.8909 87.1364L22.9364 87.1091L22.9727 87.0818L23.0091 87.0545L23.0455 87.0182L23.0818 86.9818L23.1091 86.9454L23.1364 86.9091L23.1636 86.8727L23.1909 86.8273L23.2182 86.7818L23.2364 86.7364L23.2545 86.6909L23.2727 86.6455L23.2909 86.5909L23.3091 86.5364V86.4818L23.3273 86.4273V86.3727L23.3455 86.3182V86.2545V86.1909L23.3364 86.2ZM22.2636 85.1091V84.8636H22.3455H22.4273H22.5L22.5727 84.8818L22.6455 84.9L22.7091 84.9182L22.7727 84.9455L22.8364 84.9727L22.9 85L22.9545 85.0364L23.0091 85.0727L23.0636 85.1091L23.1182 85.1455L23.1636 85.1909L23.2091 85.2364L23.2545 85.2818L23.2909 85.3273L23.3273 85.3818L23.3636 85.4364L23.4 85.4909L23.4273 85.5454L23.4545 85.6L23.4818 85.6545L23.5 85.7091L23.5182 85.7636L23.5364 85.8273V85.8909L23.5636 85.9545V86.0182L23.5818 86.0818V86.1455V86.2091H23.3455V86.1545V86.1V86.0455V85.9909L23.3273 85.9364V85.8909L23.3 85.8455L23.2818 85.8L23.2636 85.7545L23.2455 85.7091L23.2273 85.6636L23.2 85.6182L23.1727 85.5727L23.1455 85.5273L23.1182 85.4909L23.0818 85.4545L23.0455 85.4182L23.0091 85.3818L22.9727 85.3455L22.9364 85.3091L22.8909 85.2818L22.8455 85.2545L22.8 85.2273L22.7545 85.2L22.7 85.1818L22.6455 85.1636L22.5909 85.1455L22.5273 85.1273H22.4636L22.4 85.1091H22.3364H22.2636ZM20.4909 84.8636H22.2636V85.1091H20.4909L20.3727 84.9909L20.4909 84.8727V84.8636ZM20.3727 84.9818V84.8636H20.4909L20.3727 84.9818ZM20.3727 87.4182V84.9818H20.6091V87.4182L20.4909 87.5364L20.3727 87.4182ZM20.4909 87.5364H20.3727V87.4182L20.4909 87.5364ZM23.5091 89.6H24V89.8455H23.5091L23.4273 89.8091L23.5091 89.6091V89.6ZM23.5091 89.8455H23.4545L23.4182 89.8091L23.5 89.8455H23.5091ZM21.9091 87.7091L23.6 89.6455L23.4273 89.8091L21.7364 87.8727L21.8182 87.6727L21.9 87.7091H21.9091ZM21.8273 87.6727H21.8818L21.9182 87.7091L21.8364 87.6727H21.8273ZM20.4909 87.6727H21.8273V87.9182H20.4909L20.3727 87.8L20.4909 87.6818V87.6727ZM20.3727 87.7909V87.6727H20.4909L20.3727 87.7909ZM20.3727 89.7273V87.7909H20.6091V89.7273L20.4909 89.8455L20.3727 89.7273ZM20.6091 89.7273V89.8455H20.4909L20.6091 89.7273ZM20.1182 89.6091H20.4909V89.8545H20.1182L20 89.7364L20.1182 89.6182V89.6091ZM20.1182 89.8545H20V89.7364L20.1182 89.8545ZM20.2364 84.6273V89.7364H20V84.6273L20.1182 84.5091L20.2364 84.6273ZM20 84.6273V84.5091H20.1182L20 84.6273ZM22.2636 84.7455H20.1182V84.5H22.2636V84.7455ZM23.9818 86.2091H23.7455V86.1455V86.0727L23.7364 86V85.9273L23.7091 85.8636L23.6909 85.8L23.6727 85.7364L23.6545 85.6727L23.6273 85.6091L23.6 85.5454L23.5727 85.4818L23.5364 85.4182L23.5 85.3636L23.4636 85.3091L23.4182 85.2545L23.3727 85.2L23.3273 85.1545L23.2727 85.1091L23.2182 85.0636L23.1636 85.0182L23.1091 84.9818L23.0455 84.9455L22.9818 84.9091L22.9182 84.8818L22.8455 84.8545L22.7727 84.8273L22.7 84.8091L22.6182 84.7909L22.5364 84.7727H22.4545L22.3636 84.7545H22.2727V84.5091H22.3727L22.4727 84.5182H22.5727L22.6636 84.5455L22.7545 84.5636L22.8455 84.5909L22.9273 84.6182L23.0091 84.6545L23.0909 84.6909L23.1636 84.7273L23.2364 84.7727L23.3091 84.8182L23.3727 84.8727L23.4364 84.9273L23.5 84.9818L23.5545 85.0455L23.6091 85.1091L23.6545 85.1727L23.7 85.2364L23.7455 85.3L23.7818 85.3727L23.8182 85.4454L23.8545 85.5182L23.8818 85.5909L23.9091 85.6636L23.9364 85.7364L23.9545 85.8182L23.9727 85.9V85.9818L23.9909 86.0636V86.1455V86.2273L23.9818 86.2091ZM22.3636 87.6909L22.1909 87.8545L22.2727 87.6545H22.3636H22.4545H22.5455L22.6273 87.6273L22.7091 87.6091L22.7818 87.5909L22.8545 87.5636L22.9273 87.5364L22.9909 87.5091L23.0545 87.4727L23.1182 87.4364L23.1727 87.4L23.2273 87.3636L23.2818 87.3182L23.3273 87.2727L23.3727 87.2273L23.4182 87.1818L23.4545 87.1273L23.4909 87.0727L23.5273 87.0182L23.5636 86.9636L23.5909 86.9L23.6182 86.8364L23.6455 86.7727L23.6636 86.7091L23.6818 86.6455L23.7 86.5818V86.5091L23.7182 86.4364V86.3636L23.7273 86.2909V86.2182H23.9636V86.3V86.3818V86.4636L23.9455 86.5455L23.9273 86.6273L23.9091 86.7091L23.8909 86.7818L23.8636 86.8545L23.8364 86.9273L23.8091 87L23.7727 87.0727L23.7364 87.1455L23.6909 87.2091L23.6455 87.2727L23.6 87.3364L23.5455 87.4L23.4909 87.4545L23.4364 87.5091L23.3727 87.5636L23.3091 87.6091L23.2364 87.6545L23.1636 87.7L23.0909 87.7364L23.0091 87.7727L22.9273 87.8L22.8455 87.8273L22.7545 87.8545L22.6636 87.8727L22.5727 87.8909H22.4727L22.3727 87.9091H22.2727L22.3545 87.7091L22.3636 87.6909ZM22.1909 87.8545L22.0091 87.6545H22.2727L22.1909 87.8545ZM23.9182 89.8091L22.1909 87.8545L22.3636 87.6909L24.0909 89.6455L24.0091 89.8455L23.9273 89.8091H23.9182ZM24.0909 89.6455L24.2727 89.8455H24.0091L24.0909 89.6455Z" fill="white"/>
<path d="M20.4821 87.4279H22.2094C23.0639 87.4279 23.4366 86.9279 23.4457 86.2097C23.4457 85.6097 23.0639 84.9916 22.2548 84.9916H20.4821V87.4279ZM24.0003 89.737H23.5094L21.8185 87.8007H20.4821V89.737H20.1094V84.6279H22.2548C23.3185 84.6279 23.8548 85.4188 23.8639 86.2188C23.8639 87.0552 23.3457 87.7825 22.2821 87.7825L24.0094 89.737H24.0003Z" fill="white"/>
<path d="M28.6721 88.1182L30.5448 85.1273L30.7357 85.2636L28.863 88.2545L28.763 88.3091L28.663 88.1182H28.6721ZM28.863 88.2545L28.8266 88.3091H28.763L28.863 88.2545ZM28.6357 88.0636H28.763V88.3091H28.6357L28.5357 88.2545L28.6357 88.0636ZM28.6357 88.3091H28.5721L28.5357 88.2545L28.6357 88.3091ZM26.8448 85.1273L28.7266 88.1182L28.5357 88.2545L26.6539 85.2636L26.6357 85.2L26.8539 85.1364L26.8448 85.1273ZM26.6266 85.1909V84.7818L26.8448 85.1182L26.6266 85.1818V85.1909ZM26.6266 89.7273V85.1909H26.863V89.7273L26.7448 89.8455L26.6266 89.7273ZM26.863 89.7273V89.8455H26.7448L26.863 89.7273ZM26.3721 89.6091H26.7448V89.8545H26.3721L26.2539 89.7364L26.3721 89.6182V89.6091ZM26.3721 89.8545H26.2539V89.7364L26.3721 89.8545ZM26.4903 84.6273V89.7364H26.2539V84.6273L26.3721 84.5091L26.4903 84.6273ZM26.2539 84.6273V84.5091H26.3721L26.2539 84.6273ZM26.8175 84.7455H26.3721V84.5H26.8175L26.9175 84.5545L26.8175 84.7455ZM26.8175 84.5H26.8812L26.9175 84.5545L26.8175 84.5ZM28.5903 87.6636L26.7175 84.6909L26.9085 84.5545L28.7812 87.5273V87.6636H28.5903ZM28.7812 87.6636L28.6812 87.8182L28.5812 87.6636H28.7721H28.7812ZM30.6266 84.6909L28.7812 87.6636L28.5903 87.5273L30.4357 84.5545L30.5357 84.5L30.6357 84.6909H30.6266ZM30.4357 84.5545L30.4721 84.5H30.5357L30.4357 84.5545ZM30.9903 84.7455H30.5266V84.5H30.9903L31.1084 84.6182L30.9903 84.7364V84.7455ZM30.9903 84.5H31.1084V84.6182L30.9903 84.5ZM30.8721 89.7273V84.6182H31.1084V89.7273L30.9903 89.8455L30.8721 89.7273ZM31.1084 89.7273V89.8455H30.9903L31.1084 89.7273ZM30.6175 89.6091H30.9903V89.8545H30.6175L30.4994 89.7364L30.6175 89.6182V89.6091ZM30.6175 89.8545H30.4994V89.7364L30.6175 89.8545ZM30.7357 85.2V89.7364H30.4994V85.2L30.5175 85.1364L30.7357 85.2ZM30.5175 85.1364L30.7357 84.7909V85.2L30.5175 85.1364Z" fill="white"/>
<path d="M30.6354 85.1909L28.7627 88.1818H28.6445L26.7536 85.1909V89.7273H26.3809V84.6182H26.8263L28.699 87.6L30.5445 84.6182H31.0081V89.7273H30.6354V85.1909Z" fill="white"/>
<path d="M35.8173 84.9545L37.1264 88.0636L36.9173 88.1636L35.6082 85.0545V84.9545H35.8173ZM35.6082 84.9545L35.7173 84.7L35.8264 84.9545H35.6173H35.6082ZM34.2991 88.0636L35.6082 84.9545L35.8173 85.0545L34.5082 88.1636L34.3991 88.2364L34.29 88.0636H34.2991ZM34.4082 88.2364H34.2264L34.2991 88.0636L34.4082 88.2364ZM37.0354 88.2364H34.4082V87.9909H37.0354L37.1445 88.0636L37.0354 88.2364ZM37.1445 88.0636L37.2173 88.2364H37.0354L37.1445 88.0636ZM37.29 88.4273L37.8264 89.6818L37.6173 89.7818L37.0809 88.5273L37.19 88.3545L37.2991 88.4273H37.29ZM37.1809 88.3545H37.2536L37.2809 88.4273L37.1718 88.3545H37.1809ZM34.2627 88.3545H37.1809V88.6H34.2627L34.1536 88.4273L34.2627 88.3545ZM34.1536 88.4273L34.1809 88.3545H34.2536L34.1445 88.4273H34.1536ZM33.6264 89.6818L34.1536 88.4273L34.3627 88.5273L33.8354 89.7818L33.7263 89.8545L33.6173 89.6818H33.6264ZM33.8354 89.7818L33.8082 89.8545H33.7354L33.8445 89.7818H33.8354ZM33.3264 89.6091H33.7354V89.8545H33.3264L33.2173 89.6818L33.3264 89.6091ZM33.3264 89.8545H33.1445L33.2173 89.6818L33.3264 89.8545ZM35.6263 84.6727L33.4354 89.7818L33.2263 89.6818L35.4173 84.5727L35.5264 84.5L35.6354 84.6727H35.6263ZM35.4173 84.5727L35.4445 84.5H35.5173L35.4082 84.5727H35.4173ZM35.9354 84.7455H35.5264V84.5H35.9354L36.0445 84.5727L35.9354 84.7455ZM35.9354 84.5H36.0082L36.0354 84.5727L35.9264 84.5H35.9354ZM38.0173 89.7818L35.8264 84.6727L36.0354 84.5727L38.2263 89.6818L38.1173 89.8545L38.0082 89.7818H38.0173ZM38.2263 89.6818L38.2991 89.8545H38.1173L38.2263 89.6818ZM37.7173 89.6091H38.1263V89.8545H37.7173L37.6082 89.7818L37.7173 89.6091ZM37.7173 89.8545H37.6445L37.6173 89.7818L37.7264 89.8545H37.7173Z" fill="white"/>
<path d="M37.0275 88.1091L35.7184 85L34.4093 88.1091H37.0365H37.0275ZM37.7093 89.7273L37.1729 88.4727H34.2547L33.7275 89.7273H33.3184L35.5093 84.6182H35.9184L38.1093 89.7273H37.7002H37.7093Z" fill="white"/>
<path d="M42.4462 89.909V89.6635H42.5008H42.5553H42.6099H42.6644H42.719L42.7735 89.6453H42.8281L42.8826 89.6271H42.9371L42.9917 89.5999L43.0462 89.5817L43.1008 89.5635L43.1553 89.5453L43.2099 89.5271L43.2644 89.5089L43.319 89.4908L43.3735 89.4635L43.4281 89.4362L43.4826 89.4089L43.5371 89.3817L43.5917 89.3544L43.6462 89.3271L43.7008 89.2908L43.7553 89.2544L43.8008 89.218L43.8462 89.1817L43.8917 89.1453L43.9371 89.109L43.9826 89.0726L44.0281 89.0271L44.0735 88.9817L44.119 88.9362L44.2826 89.109L44.2371 89.1544L44.1917 89.1999L44.1371 89.2453L44.0826 89.2908L44.0281 89.3362L43.9735 89.3817L43.919 89.418L43.8644 89.4544L43.8099 89.4908L43.7553 89.5271L43.7008 89.5635L43.6462 89.5999L43.5917 89.6271L43.5371 89.6544L43.4826 89.6817L43.419 89.709L43.3553 89.7362L43.2917 89.7635L43.2281 89.7817L43.1644 89.7999L43.1008 89.818L43.0371 89.8362L42.9735 89.8544H42.9099L42.8462 89.8817H42.7826L42.719 89.8999H42.6553L42.5917 89.909H42.5281H42.4644H42.4008H42.4462ZM39.819 87.2089H40.0553V87.3362L40.0644 87.4635V87.5817L40.0917 87.6999L40.1099 87.818L40.1371 87.9362L40.1644 88.0453L40.2008 88.1544L40.2371 88.2635L40.2826 88.3726L40.3281 88.4726L40.3826 88.5726L40.4371 88.6726L40.5008 88.7635L40.5644 88.8544L40.6371 88.9362L40.7099 89.018L40.7917 89.0999L40.8735 89.1726L40.9644 89.2453L41.0553 89.3089L41.1553 89.3726L41.2553 89.4271L41.3644 89.4817L41.4826 89.5271L41.6008 89.5635L41.7281 89.5999L41.8553 89.6271L41.9917 89.6544L42.1281 89.6726H42.2735L42.419 89.6817V89.9271H42.2644L42.1099 89.909L41.9644 89.8908L41.819 89.8635L41.6826 89.8362L41.5462 89.7999L41.419 89.7544L41.2917 89.709L41.1735 89.6544L41.0553 89.5908L40.9462 89.5271L40.8371 89.4544L40.7371 89.3817L40.6371 89.2999L40.5462 89.2089L40.4644 89.118L40.3826 89.018L40.3099 88.918L40.2371 88.818L40.1735 88.709L40.1099 88.5999L40.0553 88.4908L40.0099 88.3726L39.9644 88.2544L39.9281 88.1362L39.8917 88.0089L39.8644 87.8817L39.8371 87.7544L39.819 87.6271V87.4999L39.8008 87.3635V87.2271L39.819 87.2089ZM42.4553 84.4453V84.6908H42.3099L42.1644 84.7089L42.0281 84.7271L41.8917 84.7544L41.7644 84.7817L41.6371 84.818L41.519 84.8635L41.4008 84.909L41.2917 84.9635L41.1826 85.018L41.0826 85.0817L40.9826 85.1453L40.8917 85.218L40.8008 85.2908L40.719 85.3726L40.6462 85.4544L40.5735 85.5453L40.5099 85.6362L40.4462 85.7362L40.3917 85.8362L40.3371 85.9362L40.2917 86.0453L40.2462 86.1544L40.2099 86.2635L40.1735 86.3726L40.1462 86.4908L40.119 86.609L40.1008 86.7271L40.0826 86.8453V86.9635L40.0644 87.0817V87.1999H39.8281V87.0635V86.9362V86.8089L39.8553 86.6817L39.8735 86.5544L39.9008 86.4271L39.9371 86.2999L39.9735 86.1726L40.019 86.0544L40.0644 85.9362L40.119 85.818L40.1826 85.7089L40.2462 85.5999L40.319 85.4908L40.3917 85.3908L40.4735 85.2908L40.5553 85.1999L40.6462 85.109L40.7462 85.0271L40.8462 84.9453L40.9553 84.8726L41.0644 84.7999L41.1826 84.7362L41.3008 84.6817L41.4281 84.6271L41.5553 84.5817L41.6917 84.5453L41.8371 84.5089L41.9826 84.4817L42.1371 84.4635H42.2917L42.4553 84.4453ZM44.3099 85.4271L44.1553 85.2453V85.4271L44.1008 85.3817L44.0553 85.3362L44.0099 85.2908L43.9644 85.2544L43.919 85.218L43.8735 85.1817L43.8281 85.1453L43.7826 85.109L43.7281 85.0726L43.6735 85.0362L43.619 85.009L43.5644 84.9817L43.5099 84.9544L43.4553 84.9271L43.4008 84.8999L43.3462 84.8726L43.2917 84.8544L43.2371 84.8362L43.1826 84.818L43.1281 84.7999L43.0735 84.7817L43.019 84.7635L42.9644 84.7453H42.9099L42.8553 84.718H42.8008L42.7462 84.6999H42.6917L42.6371 84.6908H42.5826H42.5281H42.4735V84.4453H42.5371H42.6008H42.6644H42.7281H42.7917L42.8553 84.4635H42.919L42.9826 84.4817H43.0462L43.1099 84.5089L43.1735 84.5271L43.2371 84.5453L43.3008 84.5635L43.3644 84.5817L43.4281 84.6089L43.4917 84.6362L43.5553 84.6635L43.6099 84.6908L43.6644 84.718L43.719 84.7453L43.7735 84.7817L43.8281 84.818L43.8826 84.8544L43.9371 84.8908L43.9917 84.9271L44.0462 84.9635L44.1008 85.009L44.1553 85.0544L44.2099 85.0999L44.2644 85.1453L44.3099 85.1908L44.3553 85.2362V85.418L44.3099 85.4271ZM44.3099 85.2453L44.4008 85.3362L44.3099 85.418V85.2362V85.2453ZM43.8917 85.4726L44.1462 85.2362L44.3008 85.418L44.0462 85.6544H43.8917V85.4726ZM44.0462 85.6544L43.9644 85.7271L43.8917 85.6453H44.0462V85.6544ZM42.4462 85.0362V84.7908H42.5008H42.5553H42.6099H42.6644H42.719L42.7735 84.7999H42.8281L42.8826 84.818H42.9371L42.9917 84.8453L43.0462 84.8635L43.1008 84.8817L43.1553 84.8999L43.2099 84.918L43.2644 84.9362L43.319 84.9544L43.3735 84.9726L43.4281 84.9999L43.4735 85.0271L43.519 85.0544L43.5644 85.0817L43.6099 85.109L43.6553 85.1362L43.7008 85.1635L43.7462 85.1999L43.7917 85.2362L43.8371 85.2726L43.8826 85.309L43.9281 85.3453L43.9735 85.3817L44.019 85.4271L44.0644 85.4726L43.9008 85.6453L43.8644 85.6089L43.8281 85.5726L43.7917 85.5362L43.7553 85.4999L43.719 85.4635L43.6826 85.4271L43.6371 85.3999L43.5917 85.3726L43.5462 85.3453L43.5008 85.318L43.4553 85.2908L43.4099 85.2635L43.3644 85.2362L43.319 85.218L43.2735 85.1999L43.2281 85.1817L43.1826 85.1635L43.1371 85.1453L43.0917 85.1271L43.0462 85.109L43.0008 85.0908H42.9553L42.9099 85.0635H42.8644L42.819 85.0453H42.7735L42.7281 85.0271H42.6826L42.6371 85.018H42.5917H42.5462H42.5008L42.4462 85.0362ZM40.4099 87.1908H40.1735V87.0726V86.9544V86.8362L40.2008 86.718L40.219 86.5999L40.2462 86.4908L40.2735 86.3817L40.3099 86.2726L40.3462 86.1635L40.3917 86.0635L40.4371 85.9635L40.4917 85.8635L40.5462 85.7726L40.6099 85.6817L40.6735 85.5908L40.7462 85.5089L40.819 85.4271L40.9008 85.3544L40.9826 85.2817L41.0735 85.209L41.1644 85.1453L41.2644 85.0817L41.3644 85.0271L41.4644 84.9817L41.5735 84.9362L41.6826 84.8999L41.8008 84.8635L41.919 84.8362L42.0462 84.818L42.1735 84.7999H42.3099L42.4462 84.7908V85.0362H42.319L42.2008 85.0453L42.0826 85.0635L41.9735 85.0817L41.8644 85.109L41.7553 85.1362L41.6553 85.1726L41.5553 85.209L41.4644 85.2544L41.3735 85.2999L41.2917 85.3544L41.2099 85.409L41.1371 85.4726L41.0644 85.5362L40.9917 85.5999L40.9281 85.6726L40.8644 85.7453L40.8099 85.8271L40.7553 85.9089L40.7099 85.9908L40.6644 86.0817L40.619 86.1726L40.5826 86.2635L40.5462 86.3544L40.519 86.4544L40.4917 86.5544L40.4735 86.6544L40.4553 86.7544L40.4371 86.8635V86.9726L40.419 87.0817V87.1908H40.4099ZM42.4371 89.2999V89.5453H42.3008L42.1735 89.5362L42.0462 89.518L41.919 89.4999L41.8008 89.4726L41.6826 89.4362L41.5735 89.3999L41.4644 89.3544L41.3644 89.3089L41.2644 89.2544L41.1735 89.1999L41.0826 89.1362L40.9917 89.0726L40.9099 88.9999L40.8281 88.9271L40.7553 88.8453L40.6826 88.7635L40.619 88.6726L40.5553 88.5817L40.5008 88.4908L40.4462 88.3908L40.4008 88.2908L40.3553 88.1908L40.319 88.0908L40.2826 87.9817L40.2553 87.8726L40.2281 87.7635L40.2099 87.6544L40.1917 87.5453V87.4271L40.1735 87.309V87.1908H40.4008V87.2999L40.4099 87.409V87.509L40.4371 87.609L40.4553 87.709L40.4826 87.809L40.5099 87.909L40.5371 88.0089L40.5735 88.0999L40.6099 88.1908L40.6553 88.2817L40.7008 88.3635L40.7462 88.4453L40.8008 88.5271L40.8553 88.5999L40.919 88.6726L40.9826 88.7453L41.0553 88.809L41.1281 88.8726L41.2008 88.9362L41.2826 88.9908L41.3644 89.0453L41.4553 89.0908L41.5462 89.1362L41.6462 89.1726L41.7462 89.2089L41.8462 89.2362L41.9553 89.2635L42.0644 89.2817L42.1826 89.2999H42.3008L42.4281 89.3089L42.4371 89.2999ZM44.0462 88.6817L43.8826 88.8635H44.0462L44.0008 88.8999L43.9553 88.9362L43.9099 88.9726L43.8644 89.009L43.819 89.0453L43.7735 89.0817L43.7281 89.118L43.6826 89.1544L43.6371 89.1817L43.5917 89.2089L43.5462 89.2362L43.5008 89.2635L43.4553 89.2908L43.4008 89.318L43.3462 89.3453L43.2917 89.3635L43.2371 89.3817L43.1826 89.3999L43.1281 89.418L43.0735 89.4362L43.019 89.4544L42.9644 89.4726H42.9099L42.8553 89.4999H42.8008L42.7462 89.518H42.6917L42.6371 89.5271H42.5826H42.5281H42.4735H42.419V89.2817H42.4644H42.5099H42.5553H42.6008H42.6462L42.6917 89.2726H42.7371L42.7826 89.2544H42.8281L42.8735 89.2362H42.919L42.9644 89.2089L43.0099 89.1908L43.0553 89.1726L43.1008 89.1544L43.1462 89.1362L43.1917 89.118L43.2371 89.0999L43.2826 89.0817L43.3281 89.0544L43.3735 89.0271L43.419 88.9999L43.4644 88.9726L43.5099 88.9453L43.5553 88.918L43.6008 88.8908L43.6462 88.8635L43.6826 88.8271L43.719 88.7908L43.7553 88.7544L43.7917 88.718L43.8281 88.6817H43.9917H44.0462ZM43.8826 88.6817L43.9644 88.5999L44.0462 88.6817H43.8826ZM44.1371 89.109L43.8826 88.8635L44.0462 88.6817L44.3008 88.9271V89.0999H44.1371V89.109ZM44.3008 88.9271L44.3917 89.009L44.3099 89.0999V88.9271H44.3008Z" fill="white"/>
<path d="M44.2267 89.019C43.7358 89.5281 43.0904 89.7826 42.4449 89.7826C40.7995 89.7826 39.9358 88.5826 39.9358 87.2008C39.9176 85.8372 40.7722 84.5645 42.4449 84.5645C43.0904 84.5645 43.7358 84.819 44.2267 85.3281L43.9722 85.5645C43.554 85.1281 42.9995 84.919 42.454 84.919C41.0267 84.919 40.2995 85.9736 40.3086 87.1917C40.3267 88.3917 41.0449 89.4281 42.454 89.4281C43.0086 89.4281 43.5631 89.2099 43.9813 88.7826L44.2358 89.0281L44.2267 89.019Z" fill="white"/>
<path d="M50.0811 87.1003H47.2175V86.8548H50.0811L50.1993 86.973L50.0811 87.0912V87.1003ZM50.0811 86.8548H50.1993V86.973L50.0811 86.8548ZM49.9629 87.3367V86.9821H50.1993V87.3367L50.0811 87.4548L49.9629 87.3367ZM50.1993 87.3367V87.4548H50.0811L50.1993 87.3367ZM47.2175 87.2185H50.0811V87.4639H47.2175L47.0993 87.3458L47.2175 87.2276V87.2185ZM47.0993 87.3367V87.2185H47.2175L47.0993 87.3367ZM47.0993 89.3458V87.3367H47.3357V89.3458L47.2175 89.4639L47.0993 89.3458ZM47.2175 89.4639H47.0993V89.3458L47.2175 89.4639ZM50.2993 89.4639H47.2175V89.2185H50.2993L50.4175 89.3367L50.2993 89.4548V89.4639ZM50.2993 89.2185H50.4175V89.3367L50.2993 89.2185ZM50.1811 89.7185V89.3367H50.4175V89.7185L50.2993 89.8367L50.1811 89.7185ZM50.4175 89.7185V89.8367H50.2993L50.4175 89.7185ZM46.8447 89.6003H50.2993V89.8458H46.8447L46.7266 89.7276L46.8447 89.6094V89.6003ZM46.8447 89.8458H46.7266V89.7276L46.8447 89.8458ZM46.9629 84.6185V89.7276H46.7266V84.6185L46.8447 84.5003L46.9629 84.6185ZM46.7266 84.6185V84.5003H46.8447L46.7266 84.6185ZM50.2175 84.7367H46.8447V84.4912H50.2175L50.3357 84.6094L50.2175 84.7276V84.7367ZM50.2175 84.4912H50.3357V84.6094L50.2175 84.4912ZM50.0993 84.9821V84.6094H50.3357V84.9821L50.2175 85.1003L50.0993 84.9821ZM50.3357 84.9821V85.1003H50.2175L50.3357 84.9821ZM47.2175 84.8639H50.2175V85.1094H47.2175L47.0993 84.9912L47.2175 84.873V84.8639ZM47.0993 84.9821V84.8639H47.2175L47.0993 84.9821ZM47.0993 86.9639V84.9821H47.3357V86.9639L47.2175 87.0821L47.0993 86.9639ZM47.2175 87.0821H47.0993V86.9639L47.2175 87.0821Z" fill="white"/>
<path d="M47.2191 86.9828H50.0827V87.3373H47.2191V89.3464H50.31V89.7282H46.8555V84.6191H50.2191V84.9919H47.2191V86.9828Z" fill="white"/>
<path d="M56.5 87.7915V84.6188H56.7364V87.7915H56.5ZM52.7637 87.7915H53V88.0188L53.0364 88.237L53.0819 88.437L53.1455 88.6188L53.2273 88.7915L53.3182 88.9461L53.4273 89.0824L53.5455 89.2097L53.6728 89.3188L53.8091 89.4097L53.9546 89.4915L54.1091 89.5552L54.2637 89.6097L54.4273 89.6461L54.5909 89.6642H54.7546H54.9182L55.0819 89.6461L55.2455 89.6097L55.4 89.5552L55.5546 89.4915L55.7 89.4097L55.8364 89.3188L55.9637 89.2097L56.0819 89.0824L56.1909 88.9461L56.2819 88.7915L56.3637 88.6188L56.4273 88.437L56.4728 88.237L56.5 88.0188V87.7915H56.7455V88.0461L56.7 88.2824L56.6455 88.5097L56.5728 88.7188L56.4819 88.9097L56.3728 89.0824L56.2546 89.237L56.1182 89.3824L55.9728 89.5097L55.8182 89.6188L55.6546 89.7097L55.4819 89.7824L55.3091 89.837L55.1273 89.8824L54.9455 89.9097H54.7637H54.5819L54.4 89.8824L54.2182 89.837L54.0455 89.7824L53.8728 89.7097L53.7091 89.6188L53.5546 89.5097L53.4091 89.3824L53.2728 89.237L53.1546 89.0733L53.0455 88.9006L52.9546 88.7097L52.8819 88.5006L52.8273 88.2733L52.7909 88.037V87.7824H52.7819L52.7637 87.7915ZM53 84.6188V87.7915H52.7637V84.6188L52.8819 84.5006L53 84.6188ZM52.7637 84.6188V84.5006H52.8819L52.7637 84.6188ZM53.2455 84.737H52.8728V84.4915H53.2455L53.3637 84.6097L53.2455 84.7279V84.737ZM53.2455 84.4915H53.3637V84.6097L53.2455 84.4915ZM53.1273 87.7824V84.6097H53.3637V87.7824H53.1273ZM56.1273 87.7824H56.3637V87.9915L56.3273 88.1915L56.2819 88.3733L56.2273 88.5461L56.1546 88.7006L56.0637 88.8461L55.9637 88.9824L55.8546 89.1006L55.7364 89.2006L55.6091 89.2915L55.4728 89.3642L55.3364 89.4279L55.1909 89.4733L55.0455 89.5097L54.9 89.5279H54.7455H54.5909L54.4455 89.5097L54.3 89.4733L54.1546 89.4279L54.0182 89.3642L53.8819 89.2915L53.7546 89.2006L53.6364 89.1006L53.5273 88.9824L53.4273 88.8461L53.3364 88.7006L53.2637 88.537L53.2091 88.3642L53.1637 88.1824L53.1364 87.9824V87.7733H53.3637V87.9642L53.4 88.137L53.4364 88.3006L53.4909 88.4461L53.5546 88.5824L53.6273 88.7097L53.7091 88.8188L53.8 88.9188L53.9 89.0097L54.0091 89.0824L54.1273 89.1461L54.2455 89.2006L54.3728 89.2461L54.5 89.2733L54.6273 89.2915H54.7546H54.8819L55.0091 89.2733L55.1364 89.2461L55.2637 89.2006L55.3819 89.1461L55.5 89.0824L55.6091 89.0097L55.7091 88.9188L55.8 88.8188L55.8819 88.7097L55.9546 88.5824L56.0182 88.4461L56.0728 88.3006L56.1091 88.137L56.1364 87.9642V87.7733L56.1273 87.7824ZM56.3637 84.6097V87.7824H56.1273V84.6097L56.2455 84.4915L56.3637 84.6097ZM56.1273 84.6097V84.4915H56.2455L56.1273 84.6097ZM56.6091 84.7279H56.2364V84.4824H56.6091L56.7273 84.6006L56.6091 84.7188V84.7279ZM56.6091 84.4824H56.7273V84.6006L56.6091 84.4824Z" fill="white"/>
<path d="M56.6172 84.6182V87.7909C56.6172 90.4636 52.8809 90.4636 52.8809 87.7909V84.6182H53.2536V87.7909C53.2536 89.9818 56.2536 89.9818 56.2536 87.7909V84.6182H56.6263H56.6172Z" fill="white"/>
<path d="M59.0088 84.8545H60.7724V85.1H59.0088L58.8906 84.9818L59.0088 84.8636V84.8545ZM59.0088 85.1H58.8906V84.9818L59.0088 85.1ZM59.127 84.6273V84.9818H58.8906V84.6273L59.0088 84.5091L59.127 84.6273ZM58.8906 84.6273V84.5091H59.0088L58.8906 84.6273ZM62.9179 84.7455H59.0088V84.5H62.9179L63.0361 84.6182L62.9179 84.7364V84.7455ZM62.9179 84.5H63.0361V84.6182L62.9179 84.5ZM62.7997 84.9727V84.6182H63.0361V84.9727L62.9179 85.0909L62.7997 84.9727ZM63.0361 84.9727V85.0909H62.9179L63.0361 84.9727ZM61.1543 84.8545H62.9179V85.1H61.1543L61.0361 84.9818L61.1543 84.8636V84.8545ZM61.0361 84.9727V84.8545H61.1543L61.0361 84.9727ZM61.0361 89.7182V84.9727H61.2724V89.7182L61.1543 89.8364L61.0361 89.7182ZM61.2724 89.7182V89.8364H61.1543L61.2724 89.7182ZM60.7815 89.6H61.1543V89.8455H60.7815L60.6633 89.7273L60.7815 89.6091V89.6ZM60.7815 89.8455H60.6633V89.7273L60.7815 89.8455ZM60.8997 84.9727V89.7182H60.6633V84.9727L60.7815 84.8545L60.8997 84.9727ZM60.7815 84.8545H60.8997V84.9727L60.7815 84.8545Z" fill="white"/>
<path d="M60.7715 84.9825H59.0078V84.6279H62.9169V84.9825H61.1533V89.7279H60.7715V84.9825Z" fill="white"/>
<path d="M65.7553 84.7457H65.3825V84.5002H65.7553L65.8734 84.6184L65.7553 84.7366V84.7457ZM65.7553 84.5002H65.8734V84.6184L65.7553 84.5002ZM65.6371 89.7275V84.6184H65.8734V89.7275L65.7553 89.8457L65.6371 89.7275ZM65.8734 89.7275V89.8457H65.7553L65.8734 89.7275ZM65.3916 89.6093H65.7643V89.8548H65.3916L65.2734 89.7366L65.3916 89.6184V89.6093ZM65.3916 89.8548H65.2734V89.7366L65.3916 89.8548ZM65.5098 84.6275V89.7366H65.2734V84.6275L65.3916 84.5093L65.5098 84.6275ZM65.2734 84.6275V84.5093H65.3916L65.2734 84.6275Z" fill="white"/>
<path d="M65.3809 84.6182H65.7536V89.7273H65.3809V84.6182Z" fill="white"/>
<path d="M70.8271 89.909V89.6635H70.8816H70.9362H70.9907H71.0453H71.0998L71.1544 89.6453H71.2089L71.2635 89.6271H71.318L71.3726 89.5999L71.4271 89.5817L71.4816 89.5635L71.5362 89.5453L71.5907 89.5271L71.6453 89.5089L71.6998 89.4908L71.7544 89.4635L71.8089 89.4362L71.8635 89.4089L71.918 89.3817L71.9725 89.3544L72.0271 89.3271L72.0816 89.2908L72.1362 89.2544L72.1816 89.218L72.2271 89.1817L72.2725 89.1453L72.318 89.109L72.3635 89.0726L72.4089 89.0271L72.4544 88.9817L72.4998 88.9362L72.6635 89.109L72.618 89.1544L72.5726 89.1999L72.518 89.2453L72.4635 89.2908L72.4089 89.3362L72.3544 89.3817L72.2998 89.418L72.2453 89.4544L72.1907 89.4908L72.1362 89.5271L72.0816 89.5635L72.0271 89.5999L71.9725 89.6271L71.918 89.6544L71.8635 89.6817L71.7998 89.709L71.7362 89.7362L71.6725 89.7635L71.6089 89.7817L71.5453 89.7999L71.4816 89.818L71.418 89.8362L71.3544 89.8544H71.2907L71.2271 89.8817H71.1635L71.0998 89.8999H71.0362L70.9725 89.909H70.9089H70.8453H70.7816H70.8271ZM68.1998 87.2089H68.4362V87.3362L68.4453 87.4635V87.5817L68.4725 87.6999L68.4907 87.818L68.518 87.9362L68.5453 88.0453L68.5816 88.1544L68.618 88.2635L68.6635 88.3726L68.7089 88.4726L68.7635 88.5726L68.818 88.6726L68.8816 88.7635L68.9453 88.8544L69.018 88.9362L69.0907 89.018L69.1725 89.0999L69.2544 89.1726L69.3453 89.2453L69.4362 89.3089L69.5362 89.3726L69.6362 89.4271L69.7453 89.4817L69.8635 89.5271L69.9816 89.5635L70.1089 89.5999L70.2362 89.6271L70.3726 89.6544L70.5089 89.6726H70.6544L70.7998 89.6817V89.9271H70.6453L70.4907 89.909L70.3453 89.8908L70.1998 89.8635L70.0635 89.8362L69.9271 89.7999L69.7998 89.7544L69.6725 89.709L69.5544 89.6544L69.4362 89.5908L69.3271 89.5271L69.218 89.4544L69.118 89.3817L69.018 89.2999L68.9271 89.2089L68.8453 89.118L68.7635 89.018L68.6907 88.918L68.618 88.818L68.5544 88.709L68.4907 88.5999L68.4362 88.4908L68.3907 88.3726L68.3453 88.2544L68.3089 88.1362L68.2725 88.0089L68.2453 87.8817L68.218 87.7544L68.1998 87.6271V87.4999L68.1816 87.3635V87.2271L68.1998 87.2089ZM70.8362 84.4453V84.6908H70.6907L70.5453 84.7089L70.4089 84.7271L70.2726 84.7544L70.1453 84.7817L70.018 84.818L69.8998 84.8635L69.7816 84.909L69.6725 84.9635L69.5635 85.018L69.4635 85.0817L69.3635 85.1453L69.2725 85.218L69.1816 85.2908L69.0998 85.3726L69.0271 85.4544L68.9544 85.5453L68.8907 85.6362L68.8271 85.7362L68.7726 85.8362L68.718 85.9362L68.6726 86.0453L68.6271 86.1544L68.5907 86.2635L68.5544 86.3726L68.5271 86.4908L68.4998 86.609L68.4816 86.7271L68.4635 86.8453V86.9635L68.4453 87.0817V87.1999H68.2089V87.0635V86.9362V86.8089L68.2362 86.6817L68.2544 86.5544L68.2816 86.4271L68.318 86.2999L68.3544 86.1726L68.3998 86.0544L68.4453 85.9362L68.4998 85.818L68.5635 85.7089L68.6271 85.5999L68.6998 85.4908L68.7726 85.3908L68.8544 85.2908L68.9362 85.1999L69.0271 85.109L69.1271 85.0271L69.2271 84.9453L69.3362 84.8726L69.4453 84.7999L69.5635 84.7362L69.6816 84.6817L69.8089 84.6271L69.9362 84.5817L70.0726 84.5453L70.218 84.5089L70.3635 84.4817L70.518 84.4635H70.6725L70.8362 84.4453ZM72.6907 85.4271L72.5362 85.2453V85.4271L72.4816 85.3817L72.4362 85.3362L72.3907 85.2908L72.3453 85.2544L72.2998 85.218L72.2544 85.1817L72.2089 85.1453L72.1635 85.109L72.1089 85.0726L72.0544 85.0362L71.9998 85.009L71.9453 84.9817L71.8907 84.9544L71.8362 84.9271L71.7816 84.8999L71.7271 84.8726L71.6725 84.8544L71.618 84.8362L71.5635 84.818L71.5089 84.7999L71.4544 84.7817L71.3998 84.7635L71.3453 84.7453H71.2907L71.2362 84.718H71.1816L71.1271 84.6999H71.0726L71.018 84.6908H70.9635H70.9089H70.8544V84.4453H70.918H70.9816H71.0453H71.1089H71.1726L71.2362 84.4635H71.2998L71.3635 84.4817H71.4271L71.4907 84.5089L71.5544 84.5271L71.618 84.5453L71.6816 84.5635L71.7453 84.5817L71.8089 84.6089L71.8725 84.6362L71.9362 84.6635L71.9907 84.6908L72.0453 84.718L72.0998 84.7453L72.1544 84.7817L72.2089 84.818L72.2635 84.8544L72.318 84.8908L72.3726 84.9271L72.4271 84.9635L72.4816 85.009L72.5362 85.0544L72.5907 85.0999L72.6453 85.1453L72.6907 85.1908L72.7362 85.2362V85.418L72.6907 85.4271ZM72.6907 85.2453L72.7816 85.3362L72.6907 85.418V85.2362V85.2453ZM72.2725 85.4726L72.5271 85.2362L72.6816 85.418L72.4271 85.6544H72.2725V85.4726ZM72.4271 85.6544L72.3453 85.7271L72.2725 85.6453H72.4271V85.6544ZM70.8271 85.0362V84.7908H70.8816H70.9362H70.9907H71.0453H71.0998L71.1544 84.7999H71.2089L71.2635 84.818H71.318L71.3726 84.8453L71.4271 84.8635L71.4816 84.8817L71.5362 84.8999L71.5907 84.918L71.6453 84.9362L71.6998 84.9544L71.7544 84.9726L71.8089 84.9999L71.8544 85.0271L71.8998 85.0544L71.9453 85.0817L71.9907 85.109L72.0362 85.1362L72.0816 85.1635L72.1271 85.1999L72.1725 85.2362L72.218 85.2726L72.2635 85.309L72.3089 85.3453L72.3544 85.3817L72.3998 85.4271L72.4453 85.4726L72.2816 85.6453L72.2453 85.6089L72.2089 85.5726L72.1725 85.5362L72.1362 85.4999L72.0998 85.4635L72.0544 85.4271L72.0089 85.3999L71.9635 85.3726L71.918 85.3453L71.8725 85.318L71.8271 85.2908L71.7816 85.2635L71.7362 85.2362L71.6907 85.218L71.6453 85.1999L71.5998 85.1817L71.5544 85.1635L71.5089 85.1453L71.4635 85.1271L71.418 85.109L71.3726 85.0908H71.3271L71.2816 85.0635H71.2362L71.1907 85.0453H71.1453L71.0998 85.0271H71.0544L71.0089 85.018H70.9635H70.918H70.8725L70.8271 85.0362ZM68.7907 87.1908H68.5544V87.0726V86.9544V86.8362L68.5816 86.718L68.5998 86.5999L68.6271 86.4908L68.6544 86.3817L68.6907 86.2726L68.7271 86.1635L68.7726 86.0635L68.818 85.9635L68.8726 85.8635L68.9271 85.7726L68.9907 85.6817L69.0544 85.5908L69.1271 85.5089L69.1998 85.4271L69.2816 85.3544L69.3635 85.2817L69.4544 85.209L69.5453 85.1453L69.6453 85.0817L69.7453 85.0271L69.8544 84.9817L69.9635 84.9362L70.0726 84.8999L70.1907 84.8635L70.3089 84.8362L70.4362 84.818L70.5635 84.7999H70.6998L70.8362 84.7908V85.0362H70.7089L70.5907 85.0453L70.4725 85.0635L70.3635 85.0817L70.2544 85.109L70.1453 85.1362L70.0453 85.1726L69.9453 85.209L69.8544 85.2544L69.7635 85.2999L69.6816 85.3544L69.5998 85.409L69.5271 85.4726L69.4544 85.5362L69.3816 85.5999L69.318 85.6726L69.2544 85.7453L69.1998 85.8271L69.1453 85.9089L69.0998 85.9908L69.0544 86.0817L69.0089 86.1726L68.9726 86.2635L68.9362 86.3544L68.9089 86.4544L68.8816 86.5544L68.8635 86.6544L68.8453 86.7544L68.8271 86.8635V86.9726L68.8089 87.0817V87.1908H68.7907ZM70.818 89.2999V89.5453H70.6816L70.5544 89.5362L70.4271 89.518L70.2998 89.4999L70.1816 89.4726L70.0635 89.4362L69.9544 89.3999L69.8453 89.3544L69.7453 89.3089L69.6453 89.2544L69.5544 89.1999L69.4635 89.1362L69.3725 89.0726L69.2907 88.9999L69.2089 88.9271L69.1362 88.8453L69.0635 88.7635L68.9998 88.6726L68.9362 88.5817L68.8816 88.4908L68.8271 88.3908L68.7816 88.2908L68.7362 88.1908L68.6998 88.0908L68.6635 87.9817L68.6362 87.8726L68.6089 87.7635L68.5907 87.6544L68.5725 87.5453V87.4271L68.5544 87.309V87.1908H68.7816V87.2999L68.7907 87.409V87.509L68.818 87.609L68.8362 87.709L68.8635 87.809L68.8907 87.909L68.918 88.0089L68.9544 88.0999L68.9907 88.1908L69.0362 88.2817L69.0816 88.3635L69.1271 88.4453L69.1816 88.5271L69.2362 88.5999L69.2998 88.6726L69.3635 88.7453L69.4362 88.809L69.5089 88.8726L69.5816 88.9362L69.6635 88.9908L69.7453 89.0453L69.8362 89.0908L69.9271 89.1362L70.0271 89.1726L70.1271 89.2089L70.2271 89.2362L70.3362 89.2635L70.4453 89.2817L70.5635 89.2999H70.6816L70.8089 89.3089L70.818 89.2999ZM72.4271 88.6817L72.2635 88.8635H72.4271L72.3816 88.8999L72.3362 88.9362L72.2907 88.9726L72.2453 89.009L72.1998 89.0453L72.1544 89.0817L72.1089 89.118L72.0635 89.1544L72.018 89.1817L71.9725 89.2089L71.9271 89.2362L71.8816 89.2635L71.8362 89.2908L71.7816 89.318L71.7271 89.3453L71.6725 89.3635L71.618 89.3817L71.5635 89.3999L71.5089 89.418L71.4544 89.4362L71.3998 89.4544L71.3453 89.4726H71.2907L71.2362 89.4999H71.1816L71.1271 89.518H71.0726L71.018 89.5271H70.9635H70.9089H70.8544H70.7998V89.2817H70.8453H70.8907H70.9362H70.9816H71.0271L71.0726 89.2726H71.118L71.1635 89.2544H71.2089L71.2544 89.2362H71.2998L71.3453 89.2089L71.3907 89.1908L71.4362 89.1726L71.4816 89.1544L71.5271 89.1362L71.5726 89.118L71.618 89.0999L71.6635 89.0817L71.7089 89.0544L71.7544 89.0271L71.7998 88.9999L71.8453 88.9726L71.8907 88.9453L71.9362 88.918L71.9816 88.8908L72.018 88.8635L72.0544 88.8271L72.0907 88.7908L72.1271 88.7544L72.1635 88.718L72.1998 88.6817H72.3635H72.4271ZM72.2635 88.6817L72.3453 88.5999L72.4271 88.6817H72.2635ZM72.518 89.109L72.2635 88.8635L72.4271 88.6817L72.6816 88.9271V89.0999H72.518V89.109ZM72.6816 88.9271L72.7726 89.009L72.6907 89.0999V88.9271H72.6816Z" fill="white"/>
<path d="M72.5998 89.019C72.1089 89.5281 71.4634 89.7826 70.818 89.7826C69.1725 89.7826 68.3089 88.5826 68.3089 87.2008C68.2907 85.8372 69.1452 84.5645 70.818 84.5645C71.4634 84.5645 72.1089 84.819 72.5998 85.3281L72.3452 85.5645C71.9271 85.1281 71.3725 84.919 70.8271 84.919C69.3998 84.919 68.6725 85.9736 68.6816 87.1917C68.6998 88.3917 69.418 89.4281 70.8271 89.4281C71.3816 89.4281 71.9361 89.2099 72.3543 88.7826L72.6089 89.0281L72.5998 89.019Z" fill="white"/>
<path d="M77.0087 84.9545L78.3178 88.0636L78.1087 88.1636L76.7996 85.0545V84.9545H77.0087ZM76.7996 84.9545L76.9087 84.7L77.0178 84.9545H76.8087H76.7996ZM75.4905 88.0636L76.7996 84.9545L77.0087 85.0545L75.6996 88.1636L75.5905 88.2364L75.4814 88.0636H75.4905ZM75.5996 88.2364H75.4178L75.4905 88.0636L75.5996 88.2364ZM78.2269 88.2364H75.5996V87.9909H78.2269L78.3359 88.0636L78.2269 88.2364ZM78.3359 88.0636L78.4087 88.2364H78.2269L78.3359 88.0636ZM78.4814 88.4273L79.0178 89.6818L78.8087 89.7818L78.2723 88.5273L78.3814 88.3545L78.4905 88.4273H78.4814ZM78.3723 88.3545H78.445L78.4723 88.4273L78.3632 88.3545H78.3723ZM75.4541 88.3545H78.3723V88.6H75.4541L75.345 88.4273L75.4541 88.3545ZM75.345 88.4273L75.3723 88.3545H75.445L75.3359 88.4273H75.345ZM74.8178 89.6818L75.345 88.4273L75.5541 88.5273L75.0268 89.7818L74.9178 89.8545L74.8087 89.6818H74.8178ZM75.0268 89.7818L74.9996 89.8545H74.9268L75.0359 89.7818H75.0268ZM74.5178 89.6091H74.9268V89.8545H74.5178L74.4087 89.6818L74.5178 89.6091ZM74.5178 89.8545H74.3359L74.4087 89.6818L74.5178 89.8545ZM76.8178 84.6727L74.6268 89.7818L74.4178 89.6818L76.6087 84.5727L76.7178 84.5L76.8269 84.6727H76.8178ZM76.6087 84.5727L76.6359 84.5H76.7087L76.5996 84.5727H76.6087ZM77.1268 84.7455H76.7178V84.5H77.1268L77.2359 84.5727L77.1268 84.7455ZM77.1268 84.5H77.1996L77.2268 84.5727L77.1178 84.5H77.1268ZM79.2087 89.7818L77.0178 84.6727L77.2268 84.5727L79.4178 89.6818L79.3087 89.8545L79.1996 89.7818H79.2087ZM79.4178 89.6818L79.4905 89.8545H79.3087L79.4178 89.6818ZM78.9087 89.6091H79.3178V89.8545H78.9087L78.7996 89.7818L78.9087 89.6091ZM78.9087 89.8545H78.8359L78.8087 89.7818L78.9178 89.8545H78.9087Z" fill="white"/>
<path d="M78.2091 88.1091L76.9 85L75.5909 88.1091H78.2182H78.2091ZM78.8909 89.7273L78.3545 88.4727H75.4364L74.9091 89.7273H74.5L76.6909 84.6182H77.1L79.2909 89.7273H78.8818H78.8909Z" fill="white"/>
<path d="M81.999 89.3548V84.6185H82.2354V89.3548L82.1172 89.473L81.999 89.3548ZM82.1172 89.473H81.999V89.3548L82.1172 89.473ZM84.8626 89.473H82.1172V89.2276H84.8626L84.9808 89.3458L84.8626 89.4639V89.473ZM84.8626 89.2276H84.9808V89.3458L84.8626 89.2276ZM84.7445 89.7185V89.3458H84.9808V89.7185L84.8626 89.8367L84.7445 89.7185ZM84.9808 89.7185V89.8367H84.8626L84.9808 89.7185ZM81.7354 89.6003H84.8626V89.8458H81.7354L81.6172 89.7276L81.7354 89.6094V89.6003ZM81.7354 89.8458H81.6172V89.7276L81.7354 89.8458ZM81.8536 84.6185V89.7276H81.6172V84.6185L81.7354 84.5003L81.8536 84.6185ZM81.6172 84.6185V84.5003H81.7354L81.6172 84.6185ZM82.1081 84.7367H81.7354V84.4912H82.1081L82.2263 84.6094L82.1081 84.7276V84.7367ZM82.1081 84.4912H82.2263V84.6094L82.1081 84.4912Z" fill="white"/>
<path d="M82.1188 84.6191V89.3555H84.8734V89.7282H81.7461V84.6191H82.1188Z" fill="white"/>
<path d="M89.01 85.0362V84.7908H89.0646H89.1191H89.1736H89.2282H89.2827H89.3373H89.3918L89.4464 84.7999H89.5009L89.5555 84.818H89.61L89.6646 84.8362L89.7191 84.8544L89.7736 84.8726L89.8282 84.8908L89.8827 84.909L89.9373 84.9271L89.9918 84.9544L90.0464 84.9817L90.0918 85.009L90.1373 85.0362L90.1827 85.0635L90.2282 85.0999L90.2737 85.1362L90.3191 85.1726L90.3646 85.218L90.41 85.2635L90.4555 85.309L90.4918 85.3635L90.5282 85.418L90.5646 85.4726L90.6009 85.5271L90.4009 85.6544L90.3737 85.5999L90.3373 85.5544L90.3009 85.5089L90.2646 85.4635L90.2282 85.4271L90.1918 85.3908L90.1555 85.3544L90.1191 85.318L90.0827 85.2908L90.0464 85.2635L90.01 85.2362L89.9646 85.209L89.9191 85.1817L89.8737 85.1635L89.8282 85.1453L89.7827 85.1271L89.7373 85.109L89.6918 85.0908H89.6464L89.6009 85.0635H89.5555L89.51 85.0453H89.4646L89.4191 85.0271H89.3736L89.3282 85.018H89.2827H89.2373H89.1918H89.1373H89.0827H89.0282L89.01 85.0362ZM87.6464 85.9453H87.41V85.8635L87.4191 85.7817L87.4373 85.6999L87.4555 85.6271L87.4827 85.5544L87.51 85.4908L87.5464 85.4271L87.5827 85.3635L87.6282 85.309L87.6737 85.2544L87.7191 85.209L87.7737 85.1635L87.8282 85.118L87.8827 85.0817L87.9373 85.0453L88.0009 85.009L88.0646 84.9817L88.1282 84.9544L88.1918 84.9271L88.2555 84.8999L88.3191 84.8817L88.3827 84.8635L88.4464 84.8453L88.51 84.8271H88.5737L88.6373 84.809H88.7009L88.7646 84.7908H88.8282H88.8918H88.9464H89.0009V85.0362H88.9464H88.8918H88.8373H88.7827H88.7282L88.6737 85.0544H88.6191L88.5646 85.0726H88.51L88.4555 85.0999L88.4009 85.118L88.3464 85.1362L88.2918 85.1544L88.2373 85.1726L88.1827 85.1999L88.1282 85.2271L88.0736 85.2544L88.0282 85.2817L87.9827 85.318L87.9373 85.3544L87.9009 85.3908L87.8646 85.4271L87.8282 85.4635L87.8009 85.5089L87.7737 85.5544L87.7464 85.5999L87.7282 85.6453L87.71 85.6999L87.6918 85.7544V85.8089L87.6737 85.8726V85.9362L87.6464 85.9453ZM89.0464 86.7908L89.0009 87.0271L88.9282 87.0089L88.8555 86.9908L88.7827 86.9726L88.71 86.9544L88.6373 86.9362L88.5646 86.918L88.4918 86.8999L88.4191 86.8817L88.3555 86.8635L88.2918 86.8453L88.2282 86.8271L88.1646 86.8089L88.1009 86.7817L88.0373 86.7544L87.9827 86.7271L87.9282 86.6999L87.8737 86.6726L87.8191 86.6453L87.7737 86.609L87.7282 86.5726L87.6827 86.5362L87.6373 86.4908L87.6009 86.4453L87.5646 86.3999L87.5282 86.3544L87.5009 86.2999L87.4737 86.2453L87.4555 86.1908L87.4373 86.1271V86.0635L87.4191 85.9999V85.9362H87.6464V85.9908V86.0362V86.0817L87.6646 86.1271V86.1635L87.6918 86.1999L87.71 86.2362L87.7282 86.2726L87.7555 86.309L87.7827 86.3362L87.81 86.3635L87.8464 86.3908L87.8827 86.418L87.9191 86.4453L87.9646 86.4726L88.01 86.4999L88.0555 86.5271L88.11 86.5453L88.1646 86.5635L88.2191 86.5817L88.2736 86.5999L88.3373 86.618L88.4009 86.6362L88.4646 86.6544L88.5282 86.6726L88.5918 86.6908L88.6646 86.7089L88.7373 86.7271L88.81 86.7453L88.8827 86.7635L88.9555 86.7817L89.0282 86.7999L89.0464 86.7908ZM91.0646 88.3817H90.8282V88.2908L90.8191 88.1999V88.118L90.7918 88.0453L90.7736 87.9726L90.7464 87.909L90.7191 87.8453L90.6827 87.7817L90.6464 87.7271L90.6009 87.6726L90.5555 87.6271L90.51 87.5817L90.4555 87.5362L90.4009 87.4908L90.3464 87.4544L90.2827 87.418L90.2191 87.3817L90.1555 87.3453L90.0827 87.318L90.01 87.2908L89.9373 87.2635L89.8646 87.2362L89.7827 87.2089L89.7009 87.1817L89.6191 87.1635L89.5373 87.1453L89.4555 87.1271L89.3736 87.1089L89.2827 87.0908L89.1918 87.0726L89.1009 87.0544L89.01 87.0362L89.0555 86.7999L89.1464 86.818L89.2373 86.8362L89.3282 86.8544L89.4191 86.8726L89.51 86.8908L89.6009 86.9089L89.6918 86.9271L89.7736 86.9453L89.8555 86.9726L89.9373 86.9999L90.0191 87.0271L90.1009 87.0544L90.1827 87.0817L90.2646 87.118L90.3373 87.1544L90.41 87.1908L90.4827 87.2362L90.5555 87.2817L90.6191 87.3271L90.6827 87.3817L90.7464 87.4362L90.8009 87.4999L90.8555 87.5635L90.9009 87.6362L90.9464 87.709L90.9827 87.7908L91.0191 87.8726L91.0464 87.9635L91.0646 88.0544L91.0827 88.1544V88.2544L91.0918 88.3635L91.0646 88.3817ZM89.0191 89.9362V89.6908H89.0918H89.1646H89.2464L89.3282 89.6817H89.41L89.4918 89.6635H89.5736L89.6555 89.6362L89.7373 89.618L89.8191 89.5999L89.8918 89.5817L89.9646 89.5544L90.0373 89.5271L90.11 89.4999L90.1827 89.4635L90.2464 89.4271L90.31 89.3908L90.3737 89.3453L90.4373 89.2999L90.4918 89.2544L90.5464 89.1999L90.5918 89.1453L90.6373 89.0908L90.6827 89.0271L90.7191 88.9635L90.7555 88.8908L90.7827 88.818L90.81 88.7362L90.8282 88.6544L90.8464 88.5635V88.4726L90.8555 88.3726H91.0918V88.4908V88.5999L91.0646 88.6999L91.0373 88.7999L91.01 88.8908L90.9736 88.9817L90.9282 89.0635L90.8827 89.1453L90.8282 89.218L90.7736 89.2908L90.71 89.3544L90.6464 89.418L90.5827 89.4726L90.51 89.5271L90.4373 89.5726L90.3646 89.618L90.2918 89.6635L90.21 89.6999L90.1282 89.7362L90.0464 89.7635L89.9646 89.7908L89.8827 89.818L89.8009 89.8362L89.7191 89.8544L89.6373 89.8726H89.5555L89.4736 89.8999H89.3918L89.31 89.918H89.2282H89.1464H89.0646L89.0191 89.9362ZM86.9646 88.5999L87.0646 88.818L87.1191 88.6544L87.1555 88.718L87.1918 88.7817L87.2282 88.8453L87.2736 88.909L87.3191 88.9635L87.3646 89.018L87.41 89.0726L87.4555 89.1271L87.51 89.1726L87.5646 89.218L87.6191 89.2635L87.6737 89.3089L87.7282 89.3453L87.7918 89.3817L87.8555 89.418L87.9191 89.4544L87.9827 89.4817L88.0464 89.5089L88.11 89.5362L88.1736 89.5635L88.2373 89.5817L88.31 89.5999L88.3827 89.618L88.4555 89.6362L88.5282 89.6544H88.6009L88.6737 89.6817H88.7464L88.8191 89.6999H88.8918H88.9646H89.0373V89.9453H88.9646H88.8918H88.8191L88.7464 89.9362H88.6737L88.6009 89.918H88.5282L88.4555 89.8908L88.3827 89.8726L88.31 89.8544L88.2373 89.8362L88.1646 89.809L88.0918 89.7817L88.0191 89.7544L87.9464 89.7271L87.8737 89.6908L87.8009 89.6544L87.7282 89.618L87.6646 89.5726L87.6009 89.5271L87.5373 89.4817L87.4737 89.4362L87.41 89.3817L87.3464 89.3271L87.2918 89.2726L87.2373 89.2089L87.1827 89.1453L87.1282 89.0817L87.0827 89.009L87.0373 88.9362L86.9918 88.8635L86.9555 88.7908L87.01 88.6271L86.9646 88.5999ZM86.91 88.7635L86.8555 88.6544L86.9646 88.5999L86.91 88.7635ZM87.4009 88.6453L87.0646 88.818L86.9646 88.5999L87.3009 88.4271L87.4555 88.4817L87.4009 88.6453ZM87.3009 88.4271L87.4009 88.3726L87.4555 88.4817L87.3009 88.4271ZM89.0191 89.3362V89.5817H88.9555H88.8918H88.8282L88.7646 89.5726H88.7009L88.6373 89.5544H88.5737L88.51 89.5271L88.4464 89.5089L88.3827 89.4908L88.3191 89.4726L88.2555 89.4544L88.1918 89.4271L88.1282 89.3999L88.0646 89.3726L88.0009 89.3453L87.9373 89.318L87.8827 89.2817L87.8282 89.2453L87.7737 89.2089L87.7191 89.1726L87.6646 89.1271L87.61 89.0817L87.5555 89.0362L87.51 88.9908L87.4646 88.9453L87.4191 88.8908L87.3737 88.8362L87.3373 88.7817L87.3009 88.7271L87.2646 88.6635L87.2282 88.5999L87.4373 88.4908L87.4646 88.5453L87.4918 88.5999L87.5191 88.6453L87.5555 88.6908L87.5918 88.7362L87.6282 88.7817L87.6646 88.8271L87.71 88.8726L87.7555 88.909L87.8009 88.9453L87.8464 88.9817L87.8918 89.018L87.9373 89.0544L87.9918 89.0817L88.0464 89.109L88.1009 89.1362L88.1555 89.1635L88.21 89.1908L88.2646 89.218L88.3191 89.2362L88.3736 89.2544L88.4282 89.2726L88.4827 89.2908L88.5373 89.3089H88.5918L88.6464 89.3362H88.7009L88.7555 89.3544H88.81L88.8646 89.3635H88.9191H88.9737L89.0191 89.3362ZM90.4555 88.3817H90.6918V88.4726L90.6827 88.5635L90.6646 88.6453L90.6464 88.7271L90.6191 88.7999L90.5918 88.8726L90.5555 88.9362L90.5191 88.9999L90.4736 89.0635L90.4282 89.118L90.3737 89.1726L90.3191 89.218L90.2646 89.2635L90.2009 89.2999L90.1373 89.3362L90.0737 89.3726L90.01 89.3999L89.9464 89.4271L89.8827 89.4544L89.8191 89.4726L89.7464 89.4908L89.6736 89.5089L89.6009 89.5271H89.5282L89.4646 89.5544H89.4009L89.3373 89.5726H89.2736L89.21 89.5817H89.1464H89.0827H89.0191V89.3362H89.0737H89.1282H89.1827H89.2464H89.31L89.3736 89.3271H89.4373L89.5009 89.3089H89.5646L89.6282 89.2817L89.6918 89.2635L89.7555 89.2453L89.8191 89.2271L89.8737 89.2089L89.9282 89.1817L89.9827 89.1544L90.0373 89.1271L90.0918 89.0999L90.1373 89.0635L90.1827 89.0271L90.2282 88.9908L90.2646 88.9544L90.3009 88.909L90.3373 88.8635L90.3646 88.818L90.3918 88.7635L90.4191 88.709L90.4373 88.6544L90.4555 88.5908V88.5271L90.4736 88.4544V88.3817H90.4555ZM88.9464 87.409L88.9918 87.1726L89.0646 87.1908L89.1373 87.2089L89.21 87.2271L89.2827 87.2453L89.3555 87.2635L89.4282 87.2817L89.5009 87.2999L89.5736 87.318L89.6464 87.3362L89.7191 87.3544L89.7918 87.3726L89.8646 87.3999L89.9282 87.4271L89.9918 87.4544L90.0555 87.4817L90.1191 87.509L90.1827 87.5453L90.2373 87.5817L90.2918 87.618L90.3464 87.6544L90.3918 87.6999L90.4373 87.7453L90.4827 87.7908L90.5191 87.8453L90.5555 87.8999L90.5918 87.9635L90.6191 88.0271L90.6373 88.0908L90.6555 88.1635V88.2362L90.6736 88.3089V88.3908H90.4464V88.3271V88.2726V88.218L90.4282 88.1635L90.41 88.118L90.3918 88.0726L90.3646 88.0271L90.3373 87.9908L90.31 87.9544L90.2737 87.918L90.2373 87.8817L90.2009 87.8453L90.1555 87.809L90.11 87.7817L90.0646 87.7544L90.01 87.7271L89.9555 87.6999L89.9009 87.6726L89.8464 87.6453L89.7827 87.618L89.7191 87.5999L89.6555 87.5817L89.5918 87.5635L89.5191 87.5453L89.4464 87.5271L89.3736 87.509L89.3009 87.4908L89.2282 87.4726L89.1555 87.4544L89.0827 87.4362L89.01 87.418L88.9373 87.3999L88.9464 87.409ZM87.0464 85.9817H87.2827V86.0635L87.2918 86.1362V86.209L87.3191 86.2726L87.3373 86.3362L87.3646 86.3908L87.3918 86.4453L87.4191 86.4999L87.4555 86.5453L87.4918 86.5908L87.5373 86.6362L87.5827 86.6817L87.6282 86.718L87.6827 86.7544L87.7373 86.7908L87.7918 86.8271L87.8555 86.8635L87.9191 86.8908L87.9827 86.918L88.0555 86.9453L88.1282 86.9726L88.2009 86.9999L88.2736 87.0271L88.3464 87.0453L88.4282 87.0635L88.51 87.0817L88.5918 87.0999L88.6737 87.118L88.7555 87.1362L88.8373 87.1544L88.9191 87.1726L89.0009 87.1908L88.9555 87.4271L88.8737 87.409L88.7918 87.3908L88.71 87.3726L88.6282 87.3544L88.5464 87.3362L88.4646 87.318L88.3827 87.2999L88.3009 87.2817L88.2191 87.2544L88.1373 87.2271L88.0555 87.1999L87.9827 87.1726L87.91 87.1453L87.8373 87.118L87.7646 87.0817L87.6918 87.0453L87.6282 87.0089L87.5646 86.9635L87.5009 86.918L87.4464 86.8726L87.3918 86.818L87.3373 86.7635L87.2918 86.7089L87.2464 86.6453L87.21 86.5817L87.1736 86.509L87.1464 86.4362L87.1191 86.3544L87.1009 86.2726L87.0827 86.1908V86.0999L87.0736 86.0089L87.0464 85.9817ZM89.0191 84.4453V84.6908H88.9464H88.8737H88.8009L88.7282 84.6999H88.6555L88.5827 84.718L88.51 84.7362L88.4373 84.7544L88.3646 84.7726L88.2918 84.7908L88.2191 84.818L88.1464 84.8453L88.0736 84.8726L88.0009 84.8999L87.9373 84.9362L87.8737 84.9726L87.81 85.009L87.7464 85.0544L87.6918 85.0999L87.6373 85.1453L87.5918 85.1999L87.5464 85.2544L87.5009 85.309L87.4646 85.3726L87.4282 85.4362L87.4009 85.4999L87.3737 85.5726L87.3555 85.6453L87.3373 85.7271V85.8089L87.3191 85.8908V85.9817H87.0827V85.8726L87.0918 85.7726L87.11 85.6726L87.1282 85.5817L87.1555 85.4908L87.1918 85.3999L87.2282 85.318L87.2736 85.2362L87.3191 85.1635L87.3737 85.0908L87.4282 85.0271L87.4918 84.9635L87.5555 84.909L87.6191 84.8544L87.6918 84.809L87.7646 84.7635L87.8373 84.718L87.91 84.6817L87.9918 84.6453L88.0736 84.6089L88.1555 84.5817L88.2373 84.5544L88.3191 84.5271L88.4009 84.5089L88.4827 84.4908L88.5646 84.4726H88.6464L88.7282 84.4544H88.81L88.8918 84.4453H88.9737H89.0555H89.0191ZM90.8646 85.5362L90.7464 85.3271L90.71 85.4999L90.6646 85.4362L90.6191 85.3726L90.5736 85.318L90.5282 85.2635L90.4827 85.209L90.4373 85.1635L90.3918 85.118L90.3464 85.0726L90.3009 85.0362L90.2555 84.9999L90.21 84.9635L90.1646 84.9362L90.1191 84.909L90.0737 84.8817L90.0191 84.8544L89.9646 84.8271L89.91 84.809L89.8555 84.7908L89.8009 84.7726L89.7464 84.7544H89.6918L89.6373 84.7271H89.5827L89.5282 84.7089H89.4736L89.41 84.6908H89.3464H89.2827H89.2191H89.1555H89.0918H89.0282V84.4453H89.0918H89.1555H89.2191H89.2827H89.3464L89.41 84.4544H89.4736L89.5373 84.4726H89.6009L89.6646 84.4908H89.7282L89.7918 84.518L89.8555 84.5362L89.9191 84.5544L89.9827 84.5726L90.0464 84.5999L90.11 84.6271L90.1737 84.6544L90.2282 84.6817L90.2827 84.718L90.3373 84.7544L90.3918 84.7908L90.4464 84.8362L90.5009 84.8817L90.5555 84.9271L90.61 84.9817L90.6646 85.0362L90.7191 85.0908L90.7736 85.1544L90.8191 85.218L90.8646 85.2908L90.91 85.3635L90.8736 85.5362H90.8646ZM90.9009 85.3635L90.9736 85.4726L90.8646 85.5362L90.9009 85.3635ZM90.4373 85.518L90.7464 85.3271L90.8646 85.5362L90.5555 85.7271L90.4009 85.6908L90.4373 85.518ZM90.5555 85.7271L90.4555 85.7908L90.3918 85.6908L90.5464 85.7271H90.5555Z" fill="white"/>
<path d="M90.4909 85.6091C90.1364 85.0091 89.5636 84.9274 89.0091 84.9183C88.4364 84.9183 87.5273 85.1365 87.5273 85.9547C87.5273 86.6001 88.2 86.7547 89.0182 86.9183C89.9636 87.1092 90.9362 87.282 90.9362 88.382C90.9362 89.5365 89.8182 89.8092 89 89.8092C88.2364 89.8092 87.3727 89.482 87 88.7001L87.3364 88.5273C87.6364 89.1455 88.4 89.4547 89 89.4547C89.6 89.4547 90.5545 89.282 90.5545 88.3729C90.5545 87.6092 89.7545 87.4365 88.9455 87.282C88.0545 87.1001 87.1364 86.9092 87.1364 85.9729C87.1182 84.891 88.1909 84.5547 88.9909 84.5547C89.6909 84.5547 90.3 84.6729 90.7818 85.4183L90.4727 85.6091H90.4909Z" fill="white"/>
<path d="M97.4079 87.6097V84.9915H97.6443V87.6097L97.5261 87.7279L97.4079 87.6097ZM97.5261 87.7279H97.4079V87.6097L97.5261 87.7279ZM99.2897 87.7279H97.5261V87.4824H99.2897V87.7279ZM99.2897 85.1097V84.8642H99.4442L99.5988 84.9006L99.7352 84.937L99.8624 84.9915L99.9806 85.0552L100.09 85.1279L100.19 85.2188L100.281 85.3188L100.362 85.4279L100.426 85.537L100.481 85.6552L100.526 85.7824L100.562 85.9097L100.59 86.037L100.608 86.1642V86.3006V86.437L100.59 86.5642L100.562 86.6915L100.526 86.8188L100.481 86.9461L100.426 87.0642L100.362 87.1733L100.281 87.2824L100.19 87.3824L100.09 87.4733L99.9806 87.5461L99.8624 87.6097L99.7352 87.6642L99.5988 87.7006L99.4442 87.7279H99.2897V87.4915H99.4261L99.5533 87.4642L99.6715 87.4279L99.7806 87.3824L99.8806 87.3279L99.9715 87.2642L100.053 87.1915L100.126 87.1097L100.19 87.0279L100.244 86.937L100.29 86.837L100.326 86.737L100.353 86.6279L100.372 86.5188V86.4097L100.39 86.3006V86.1915L100.372 86.0824L100.353 85.9733L100.326 85.8642L100.29 85.7642L100.244 85.6642L100.19 85.5733L100.126 85.4915L100.053 85.4097L99.9715 85.337L99.8806 85.2733L99.7806 85.2188L99.6715 85.1733L99.5533 85.137L99.4261 85.1188H99.2897V85.1097ZM97.5261 84.8552H99.2897V85.1006H97.5261L97.4079 84.9824L97.5261 84.8642V84.8552ZM97.4079 84.9733V84.8552H97.5261L97.4079 84.9733ZM97.4079 89.7097V87.9461H97.6443V89.7097L97.5261 89.8279L97.4079 89.7097ZM97.6443 89.7097V89.8279H97.5261L97.6443 89.7097ZM97.1533 89.5915H97.5261V89.837H97.1533L97.0352 89.7188L97.1533 89.6006V89.5915ZM97.1533 89.837H97.0352V89.7188L97.1533 89.837ZM97.2715 84.6097V89.7188H97.0352V84.6097L97.1533 84.4915L97.2715 84.6097ZM97.0352 84.6097V84.4915H97.1533L97.0352 84.6097ZM99.2897 84.7279H97.1442V84.4824H99.2897V84.7279ZM99.2897 88.0642V87.8188H99.4715L99.6442 87.7824L99.7988 87.737L99.9443 87.6824L100.072 87.6097L100.19 87.5279L100.299 87.437L100.399 87.337L100.481 87.2279L100.553 87.1097L100.617 86.9824L100.672 86.8461L100.708 86.7097L100.735 86.5642L100.753 86.4188V86.2733V86.1279L100.735 85.9824L100.708 85.837L100.672 85.7006L100.617 85.5642L100.553 85.437L100.481 85.3188L100.399 85.2097L100.299 85.1097L100.19 85.0188L100.072 84.937L99.9443 84.8642L99.7988 84.8097L99.6442 84.7642L99.4715 84.737H99.2897V84.4824H99.4897L99.6806 84.5188L99.8624 84.5642L100.026 84.6279L100.181 84.7097L100.317 84.8097L100.444 84.9188L100.562 85.037L100.662 85.1733L100.753 85.3097L100.826 85.4551L100.89 85.6097L100.935 85.7733L100.972 85.937L100.99 86.1006V86.2642V86.4279L100.972 86.5915L100.935 86.7551L100.89 86.9188L100.826 87.0733L100.753 87.2188L100.662 87.3552L100.562 87.4915L100.444 87.6097L100.317 87.7188L100.181 87.8188L100.026 87.9006L99.8624 87.9642L99.6806 88.0097L99.4897 88.037H99.2897V88.0642ZM97.5261 87.8188H99.2897V88.0642H97.5261L97.4079 87.9461L97.5261 87.8279V87.8188ZM97.4079 87.937V87.8188H97.5261L97.4079 87.937Z" fill="white"/>
<path d="M97.527 84.9909V87.6091H99.2907C100.918 87.6091 100.918 84.9909 99.2907 84.9909H97.527ZM97.527 87.9636V89.7273H97.1543V84.6182H99.2998C101.418 84.6182 101.418 87.9545 99.2998 87.9545H97.5361L97.527 87.9636Z" fill="white"/>
<path d="M105.391 89.7L107.4 84.5818L107.618 84.6727L105.609 89.7909L105.5 89.8636L105.391 89.7ZM105.609 89.7909L105.582 89.8636H105.5L105.609 89.7909ZM105.1 89.6273H105.509V89.8727H105.1L104.991 89.8L105.1 89.6364V89.6273ZM105.1 89.8727H105.018L104.991 89.8L105.1 89.8727ZM103.2 84.5818L105.209 89.7L104.991 89.7909L102.982 84.6727L103.091 84.5091L103.2 84.5818ZM102.982 84.6727L102.918 84.5091H103.091L102.982 84.6727ZM103.491 84.7455H103.082V84.5H103.491L103.6 84.5727L103.491 84.7364V84.7455ZM103.491 84.5H103.573L103.6 84.5727L103.491 84.5ZM105.191 89.3364L103.382 84.6727L103.6 84.5818L105.409 89.2454V89.3364H105.191ZM105.409 89.3364L105.3 89.6182L105.191 89.3364H105.409ZM107.218 84.6727L105.409 89.3364L105.191 89.2454L107 84.5818L107.109 84.5091L107.218 84.6727ZM107 84.5818L107.027 84.5091H107.109L107 84.5818ZM107.509 84.7455H107.1V84.5H107.509L107.618 84.6636L107.509 84.7364V84.7455ZM107.509 84.5H107.682L107.618 84.6636L107.509 84.5Z" fill="white"/>
<path d="M107.509 84.6183L105.5 89.7456H105.091L103.082 84.6183H103.491L105.3 89.291L107.1 84.6183H107.509Z" fill="white"/>
<path d="M109.526 84.8548H111.29V85.1002H109.526L109.408 84.9821L109.526 84.8639V84.8548ZM109.526 85.1002H109.408V84.9821L109.526 85.1002ZM109.645 84.6275V84.9821H109.408V84.6275L109.526 84.5093L109.645 84.6275ZM109.408 84.6275V84.5093H109.526L109.408 84.6275ZM113.435 84.7457H109.526V84.5002H113.435L113.554 84.6184L113.435 84.7366V84.7457ZM113.435 84.5002H113.554V84.6184L113.435 84.5002ZM113.317 84.973V84.6184H113.554V84.973L113.435 85.0911L113.317 84.973ZM113.554 84.973V85.0911H113.435L113.554 84.973ZM111.672 84.8548H113.435V85.1002H111.672L111.554 84.9821L111.672 84.8639V84.8548ZM111.554 84.973V84.8548H111.672L111.554 84.973ZM111.554 89.7184V84.973H111.79V89.7184L111.672 89.8366L111.554 89.7184ZM111.79 89.7184V89.8366H111.672L111.79 89.7184ZM111.299 89.6002H111.672V89.8457H111.299L111.181 89.7275L111.299 89.6093V89.6002ZM111.299 89.8457H111.181V89.7275L111.299 89.8457ZM111.417 84.973V89.7184H111.181V84.973L111.299 84.8548L111.417 84.973ZM111.299 84.8548H111.417V84.973L111.299 84.8548Z" fill="white"/>
<path d="M111.291 84.9825H109.527V84.6279H113.436V84.9825H111.664V89.7279H111.291V84.9825Z" fill="white"/>
<path d="M115.135 89.5094H115.372V89.5366V89.5548V89.573L115.381 89.5912V89.6185L115.39 89.6366H115.399L115.408 89.6548H115.417L115.435 89.6639H115.453H115.472H115.49H115.508H115.526H115.544H115.563H115.581H115.599L115.608 89.6548H115.617L115.626 89.6366H115.635V89.6185V89.5912V89.573L115.644 89.5548V89.5366V89.5094H115.881V89.5548V89.6003V89.6457L115.853 89.6821L115.835 89.7185L115.817 89.7548L115.79 89.7821L115.763 89.8094L115.735 89.8367L115.708 89.8548L115.672 89.873L115.635 89.8912H115.599L115.563 89.9094H115.526H115.49H115.453H115.417H115.381L115.344 89.8912L115.308 89.873L115.272 89.8548L115.244 89.8367L115.217 89.8094L115.19 89.7821L115.163 89.7548L115.144 89.7185L115.126 89.6821L115.108 89.6457V89.6003L115.09 89.5548V89.5094H115.135ZM115.917 89.5094H115.681V89.4821V89.4639V89.4457L115.672 89.4276V89.4003L115.663 89.3821H115.653L115.644 89.3639H115.635L115.617 89.3548H115.599H115.581H115.563H115.544H115.526H115.508H115.49H115.472H115.453L115.444 89.3639H115.435L115.426 89.3821H115.417V89.4003V89.4276V89.4457L115.408 89.4639V89.4821V89.5094H115.172V89.4639V89.4185V89.373L115.199 89.3366L115.217 89.3003L115.235 89.2639L115.263 89.2367L115.29 89.2094L115.317 89.1821L115.344 89.1639L115.381 89.1457L115.417 89.1276H115.453L115.49 89.1094H115.526H115.563H115.599H115.635H115.672L115.708 89.1276L115.744 89.1457L115.781 89.1639L115.808 89.1821L115.835 89.2094L115.863 89.2367L115.89 89.2639L115.908 89.3003L115.926 89.3366L115.944 89.373V89.4185L115.963 89.4639V89.5094H115.917Z" fill="white"/>
<path d="M115.801 89.509C115.801 89.8908 115.246 89.8908 115.246 89.509C115.246 89.1272 115.801 89.1272 115.801 89.509Z" fill="white"/>
<path d="M122.446 89.3548V84.6185H122.683V89.3548L122.564 89.473L122.446 89.3548ZM122.564 89.473H122.446V89.3548L122.564 89.473ZM125.31 89.473H122.564V89.2276H125.31L125.428 89.3458L125.31 89.4639V89.473ZM125.31 89.2276H125.428V89.3458L125.31 89.2276ZM125.192 89.7185V89.3458H125.428V89.7185L125.31 89.8367L125.192 89.7185ZM125.428 89.7185V89.8367H125.31L125.428 89.7185ZM122.183 89.6003H125.31V89.8458H122.183L122.064 89.7276L122.183 89.6094V89.6003ZM122.183 89.8458H122.064V89.7276L122.183 89.8458ZM122.301 84.6185V89.7276H122.064V84.6185L122.183 84.5003L122.301 84.6185ZM122.064 84.6185V84.5003H122.183L122.064 84.6185ZM122.555 84.7367H122.183V84.4912H122.555L122.674 84.6094L122.555 84.7276V84.7367ZM122.555 84.4912H122.674V84.6094L122.555 84.4912Z" fill="white"/>
<path d="M122.564 84.6191V89.3555H125.319V89.7282H122.191V84.6191H122.564Z" fill="white"/>
<path d="M126.665 84.8545H128.429V85.1H126.665L126.547 84.9818L126.665 84.8636V84.8545ZM126.665 85.1H126.547V84.9818L126.665 85.1ZM126.783 84.6273V84.9818H126.547V84.6273L126.665 84.5091L126.783 84.6273ZM126.547 84.6273V84.5091H126.665L126.547 84.6273ZM130.574 84.7455H126.665V84.5H130.574L130.692 84.6182L130.574 84.7364V84.7455ZM130.574 84.5H130.692V84.6182L130.574 84.5ZM130.456 84.9727V84.6182H130.692V84.9727L130.574 85.0909L130.456 84.9727ZM130.692 84.9727V85.0909H130.574L130.692 84.9727ZM128.811 84.8545H130.574V85.1H128.811L128.692 84.9818L128.811 84.8636V84.8545ZM128.692 84.9727V84.8545H128.811L128.692 84.9727ZM128.692 89.7182V84.9727H128.929V89.7182L128.811 89.8364L128.692 89.7182ZM128.929 89.7182V89.8364H128.811L128.929 89.7182ZM128.438 89.6H128.811V89.8455H128.438L128.32 89.7273L128.438 89.6091V89.6ZM128.438 89.8455H128.32V89.7273L128.438 89.8455ZM128.556 84.9727V89.7182H128.32V84.9727L128.438 84.8545L128.556 84.9727ZM128.438 84.8545H128.556V84.9727L128.438 84.8545Z" fill="white"/>
<path d="M128.437 84.9825H126.664V84.6279H130.573V84.9825H128.81V89.7279H128.437V84.9825Z" fill="white"/>
<path d="M133.255 89.3454V84.9908H133.491V89.3454L133.373 89.4636L133.255 89.3454ZM133.373 89.4636H133.255V89.3454L133.373 89.4636ZM134.646 89.4636H133.373V89.2181H134.646V89.4636ZM136.628 87.109H136.864V87.3272L136.855 87.4363V87.5454L136.828 87.6545L136.809 87.7636L136.782 87.8727L136.755 87.9727L136.718 88.0727L136.682 88.1727L136.637 88.2727L136.591 88.3727L136.537 88.4636L136.482 88.5545L136.418 88.6454L136.355 88.7272L136.282 88.809L136.209 88.8908L136.128 88.9636L136.046 89.0363L135.955 89.0999L135.864 89.1636L135.764 89.2181L135.664 89.2727L135.555 89.3181L135.446 89.3636L135.328 89.3999L135.209 89.4272L135.082 89.4545L134.955 89.4727H134.819L134.682 89.4908V89.2454H134.809L134.937 89.2363L135.055 89.2181L135.173 89.1999L135.282 89.1727L135.391 89.1454L135.491 89.109L135.591 89.0636L135.682 89.0181L135.773 88.9636L135.855 88.909L135.937 88.8545L136.009 88.7908L136.082 88.7272L136.146 88.6545L136.209 88.5817L136.264 88.509L136.318 88.4272L136.373 88.3454L136.418 88.2636L136.464 88.1817L136.5 88.0908L136.537 87.9999L136.564 87.909L136.591 87.8181L136.618 87.7272L136.637 87.6272L136.655 87.5272V87.4272L136.673 87.3272V87.2272V87.1272L136.628 87.109ZM134.646 85.109V84.8636H134.782L134.909 84.8727L135.037 84.8908L135.164 84.909L135.282 84.9363L135.4 84.9727L135.509 85.009L135.618 85.0545L135.718 85.0999L135.818 85.1545L135.909 85.209L136 85.2727L136.082 85.3363L136.164 85.409L136.237 85.4817L136.309 85.5636L136.373 85.6454L136.437 85.7272L136.491 85.8181L136.546 85.909L136.591 85.9999L136.637 86.0908L136.673 86.1908L136.709 86.2908L136.746 86.3908L136.773 86.4908L136.8 86.5908L136.818 86.6908L136.837 86.7908V86.8908L136.855 86.9908V87.0999H136.628V87.009L136.618 86.9181V86.8272L136.591 86.7363L136.573 86.6454L136.555 86.5545L136.528 86.4636L136.5 86.3727L136.464 86.2817L136.428 86.1999L136.391 86.1181L136.346 86.0363L136.3 85.9545L136.246 85.8817L136.191 85.809L136.137 85.7363L136.073 85.6636L136.009 85.5999L135.937 85.5363L135.864 85.4817L135.782 85.4272L135.7 85.3727L135.618 85.3272L135.528 85.2817L135.437 85.2454L135.337 85.209L135.237 85.1817L135.128 85.1545L135.019 85.1363L134.9 85.1181H134.782L134.655 85.109H134.646ZM133.373 84.8636H134.646V85.109H133.373L133.255 84.9908L133.373 84.8727V84.8636ZM133.255 84.9817V84.8636H133.373L133.255 84.9817ZM134.646 89.8363V89.5908H134.8L134.946 89.5727L135.091 89.5545L135.228 89.5272L135.355 89.4999L135.482 89.4636L135.6 89.4181L135.718 89.3727L135.828 89.3181L135.937 89.2636L136.037 89.1999L136.128 89.1272L136.218 89.0545L136.3 88.9727L136.382 88.8908L136.455 88.809L136.528 88.7181L136.591 88.6272L136.655 88.5363L136.709 88.4363L136.764 88.3363L136.809 88.2363L136.855 88.1272L136.891 88.0181L136.928 87.909L136.955 87.7999L136.982 87.6908L137 87.5727L137.018 87.4545V87.3363L137.037 87.2181V87.0999H137.273V87.2272V87.3545V87.4817L137.246 87.609L137.228 87.7363L137.2 87.8636L137.173 87.9908L137.137 88.109L137.091 88.2272L137.046 88.3454L136.991 88.4636L136.937 88.5727L136.873 88.6817L136.809 88.7908L136.737 88.8908L136.655 88.9908L136.573 89.0817L136.482 89.1727L136.391 89.2545L136.291 89.3363L136.182 89.409L136.073 89.4817L135.955 89.5454L135.837 89.609L135.709 89.6636L135.573 89.709L135.437 89.7454L135.291 89.7817L135.146 89.809L134.991 89.8272H134.837L134.673 89.8454L134.646 89.8363ZM132.991 89.5908H134.646V89.8363H132.991L132.873 89.7181L132.991 89.5999V89.5908ZM132.991 89.8363H132.873V89.7181L132.991 89.8363ZM133.109 84.609V89.7181H132.873V84.609L132.991 84.4908L133.109 84.609ZM132.873 84.609V84.4908H132.991L132.873 84.609ZM134.646 84.7272H132.991V84.4817H134.646V84.7272ZM137.237 87.0999H137V86.9908V86.8817L136.982 86.7727L136.964 86.6636L136.946 86.5545L136.918 86.4454L136.891 86.3363L136.855 86.2272L136.818 86.1272L136.773 86.0272L136.728 85.9272L136.673 85.8272L136.618 85.7363L136.555 85.6454L136.491 85.5545L136.418 85.4727L136.346 85.3908L136.264 85.309L136.182 85.2363L136.091 85.1636L136 85.0999L135.9 85.0363L135.8 84.9817L135.691 84.9272L135.582 84.8817L135.464 84.8454L135.346 84.809L135.219 84.7817L135.091 84.7545L134.955 84.7363H134.809L134.664 84.7181V84.4727H134.819L134.973 84.4908L135.119 84.509L135.264 84.5363L135.4 84.5636L135.537 84.5999L135.664 84.6454L135.791 84.6999L135.909 84.7545L136.028 84.8181L136.137 84.8817L136.237 84.9545L136.337 85.0272L136.428 85.109L136.518 85.1908L136.6 85.2817L136.682 85.3727L136.755 85.4727L136.818 85.5727L136.882 85.6727L136.937 85.7817L136.991 85.8908L137.037 85.9999L137.082 86.1181L137.118 86.2363L137.155 86.3545L137.182 86.4727L137.209 86.5908L137.228 86.709L137.246 86.8272V86.9454L137.264 87.0636L137.237 87.0999Z" fill="white"/>
<path d="M133.373 84.9912V89.3457H134.645C136.1 89.3457 136.764 88.2094 136.745 87.1094C136.727 86.0457 136.055 84.9912 134.645 84.9912H133.373ZM137.127 87.1094C137.155 88.4094 136.364 89.7185 134.655 89.7185H133V84.6094H134.655C136.309 84.6094 137.1 85.8457 137.127 87.1003V87.1094Z" fill="white"/>
<path d="M139.409 89.5094H139.645V89.5366V89.5548V89.573L139.654 89.5912V89.6185L139.663 89.6366H139.672L139.681 89.6548H139.691L139.709 89.6639H139.727H139.745H139.763H139.781H139.8H139.818H139.836H139.854H139.872L139.881 89.6548H139.891L139.9 89.6366H139.909V89.6185V89.5912V89.573L139.918 89.5548V89.5366V89.5094H140.154V89.5548V89.6003V89.6457L140.127 89.6821L140.109 89.7185L140.091 89.7548L140.063 89.7821L140.036 89.8094L140.009 89.8367L139.981 89.8548L139.945 89.873L139.909 89.8912H139.872L139.836 89.9094H139.8H139.763H139.727H139.691H139.654L139.618 89.8912L139.581 89.873L139.545 89.8548L139.518 89.8367L139.491 89.8094L139.463 89.7821L139.436 89.7548L139.418 89.7185L139.4 89.6821L139.381 89.6457V89.6003L139.363 89.5548V89.5094H139.409ZM140.191 89.5094H139.954V89.4821V89.4639V89.4457L139.945 89.4276V89.4003L139.936 89.3821H139.927L139.918 89.3639H139.909L139.891 89.3548H139.872H139.854H139.836H139.818H139.8H139.781H139.763H139.745H139.727L139.718 89.3639H139.709L139.7 89.3821H139.691V89.4003V89.4276V89.4457L139.681 89.4639V89.4821V89.5094H139.445V89.4639V89.4185V89.373L139.472 89.3366L139.491 89.3003L139.509 89.2639L139.536 89.2367L139.563 89.2094L139.591 89.1821L139.618 89.1639L139.654 89.1457L139.691 89.1276H139.727L139.763 89.1094H139.8H139.836H139.872H139.909H139.945L139.981 89.1276L140.018 89.1457L140.054 89.1639L140.081 89.1821L140.109 89.2094L140.136 89.2367L140.163 89.2639L140.181 89.3003L140.2 89.3366L140.218 89.373V89.4185L140.236 89.4639V89.5094H140.191Z" fill="white"/>
<path d="M140.074 89.509C140.074 89.8908 139.52 89.8908 139.52 89.509C139.52 89.1272 140.074 89.1272 140.074 89.509Z" fill="white"/>
<path fill-rule="evenodd" clip-rule="evenodd" d="M90.5361 9.92706H90.5271C86.5907 9.92706 81.7542 10.9907 81.8997 16.2907C81.8997 16.2907 82.8271 13.3816 89.4089 14.1907C90.5998 14.3362 91.5452 14.2998 92.318 14.1543C92.018 14.1816 91.818 14.1543 91.818 14.1543C91.818 14.1543 91.4543 12.2998 91.3725 9.93615C91.0998 9.92706 90.8179 9.91797 90.5361 9.91797V9.92706Z" fill="white"/>
<path fill-rule="evenodd" clip-rule="evenodd" d="M91.3813 9.94545C91.4632 12.3 91.8268 14.1636 91.8268 14.1636C91.8268 14.1636 92.0268 14.1909 92.3268 14.1636C93.1177 14.0091 93.7086 13.7364 94.1541 13.4C94.7541 12.8818 95.2723 12 95.4541 10.5455C95.545 9.80909 95.5632 8.93636 95.445 7.86364C94.6723 0.972727 97.4541 0 97.4541 0C97.3723 0 97.2995 0 97.2268 0C91.9723 0 91.2268 5.77273 91.3813 9.94545Z" fill="white"/>
<path fill-rule="evenodd" clip-rule="evenodd" d="M100.001 0.000301842C100.001 0.000301842 102.783 0.973025 102.01 7.85484C101.892 8.92757 101.901 9.80027 102.001 10.5366C102.001 10.4639 102.001 10.4094 102.001 10.4094C102.001 10.4094 103.792 10.0275 106.065 9.93663C106.21 5.76393 105.474 -0.00878906 100.219 -0.00878906C100.147 -0.00878906 100.074 -0.00878906 99.9922 -0.00878906L100.001 0.000301842Z" fill="white"/>
<path fill-rule="evenodd" clip-rule="evenodd" d="M106.926 9.92773H106.899C106.617 9.92773 106.344 9.92773 106.071 9.94592C103.799 10.0277 102.008 10.4186 102.008 10.4186C102.008 10.4186 102.008 10.4732 102.008 10.5459C102.19 12.0005 102.708 12.8823 103.308 13.4005C103.753 13.7368 104.344 14.0096 105.135 14.1641C105.908 14.3096 106.853 14.3459 108.044 14.2005C114.626 13.3914 115.553 16.3005 115.553 16.3005C115.699 11.0005 110.862 9.93683 106.926 9.93683V9.92773Z" fill="white"/>
<path fill-rule="evenodd" clip-rule="evenodd" d="M108.036 21.0277C106.845 20.8823 105.9 20.9186 105.127 21.0641C105.427 21.0368 105.627 21.0641 105.627 21.0641C105.627 21.0641 105.991 22.9186 106.072 25.2823C110.118 25.4368 115.709 24.6186 115.545 18.9277C115.545 18.9277 114.618 21.8368 108.036 21.0277Z" fill="white"/>
<path fill-rule="evenodd" clip-rule="evenodd" d="M105.409 21.0459H105.382C105.309 21.0459 105.218 21.0459 105.127 21.055C104.336 21.2095 103.745 21.4823 103.3 21.8186C102.7 22.3368 102.182 23.2186 102 24.6732C101.909 25.4095 101.891 26.2823 102.009 27.355C102.782 34.2368 100 35.2095 100 35.2095C105.464 35.3732 106.227 29.5004 106.073 25.2732C105.991 22.9186 105.627 21.055 105.627 21.055C105.627 21.055 105.545 21.0459 105.409 21.0459Z" fill="white"/>
<path fill-rule="evenodd" clip-rule="evenodd" d="M95.4467 24.8089C95.4467 24.8089 93.6558 25.1907 91.3831 25.2816C91.2376 29.518 92.0013 35.3907 97.4558 35.218C97.4558 35.218 94.674 34.2453 95.4467 27.3635C95.5649 26.2907 95.5558 25.418 95.4558 24.6816C95.4558 24.7544 95.4558 24.8089 95.4558 24.8089H95.4467Z" fill="white"/>
<path fill-rule="evenodd" clip-rule="evenodd" d="M91.3815 25.2725C93.6543 25.1907 95.4452 24.7998 95.4452 24.7998C95.4452 24.7998 95.4452 24.7452 95.4452 24.6725C95.2634 23.218 94.7452 22.3361 94.1452 21.818C93.6997 21.4816 93.1088 21.2089 92.3179 21.0543C91.5452 20.9089 90.5996 20.8725 89.4087 21.018C82.8269 21.8271 81.8996 18.918 81.8996 18.918C81.7451 24.6089 87.3269 25.418 91.3724 25.2725H91.3815Z" fill="white"/>
<path fill-rule="evenodd" clip-rule="evenodd" d="M90.2637 4.34551C90.2183 4.34551 90.1637 4.3546 90.1001 4.36369C90.0365 4.37278 89.9637 4.39096 89.891 4.40915C89.7365 4.43642 89.5728 4.47278 89.4001 4.53642C89.3183 4.56369 89.2274 4.59096 89.1274 4.62733C89.0365 4.66369 88.9456 4.70915 88.8456 4.74551C88.6546 4.81824 88.4637 4.94551 88.2637 5.04551C88.0819 5.18187 87.8819 5.30006 87.7001 5.46369C87.5092 5.60915 87.3546 5.79096 87.1819 5.96369C87.0365 6.1546 86.8728 6.33642 86.7546 6.54551C86.6183 6.73642 86.5183 6.9546 86.4092 7.1546C86.3274 7.36369 86.2274 7.56369 86.1819 7.76369C86.1546 7.86369 86.1274 7.9546 86.091 8.0546C86.0728 8.14551 86.0546 8.24551 86.0365 8.32733C85.991 8.50006 85.9819 8.66369 85.9637 8.80915C85.9637 8.88187 85.9456 8.94551 85.9456 9.00915C85.9456 9.07278 85.9456 9.12733 85.9456 9.18187C85.9456 9.39096 85.9456 9.50915 85.9456 9.50915C85.9456 9.50915 85.9546 9.39096 85.9728 9.18187C85.9728 9.12733 85.9819 9.07278 85.991 9.00915C86.0001 8.94551 86.0183 8.88187 86.0274 8.80915C86.0546 8.66369 86.0819 8.50915 86.1365 8.34551C86.1637 8.26369 86.191 8.17278 86.2183 8.08187C86.2546 7.99096 86.291 7.90006 86.3274 7.80915C86.391 7.61824 86.5092 7.44551 86.6001 7.24551C86.7183 7.06369 86.8274 6.87278 86.9728 6.70006C87.1001 6.51824 87.2637 6.36369 87.4183 6.20006C87.591 6.0546 87.7546 5.90006 87.9365 5.78187C88.1092 5.64551 88.3001 5.5546 88.4728 5.4546C88.6637 5.38187 88.8365 5.28187 89.0183 5.23642C89.1092 5.20915 89.191 5.18187 89.2728 5.1546C89.3546 5.13642 89.4365 5.11824 89.5183 5.10006C89.6728 5.06369 89.8183 5.04551 89.9365 5.03642C90.0001 5.03642 90.0546 5.02733 90.1092 5.01824C90.1728 5.01824 90.2274 5.01824 90.2728 5.01824C90.4728 5.01824 90.5819 5.01824 90.5819 5.01824L90.5456 4.31824C90.5456 4.31824 90.4365 4.32733 90.2365 4.34551H90.2637Z" fill="white"/>
<path fill-rule="evenodd" clip-rule="evenodd" d="M106.982 4.69171C107.028 4.69171 107.082 4.7008 107.146 4.70989C107.2 4.71898 107.264 4.73716 107.337 4.74625C107.473 4.77353 107.628 4.8008 107.782 4.86444C107.864 4.89171 107.946 4.91898 108.037 4.94625C108.119 4.98262 108.21 5.01898 108.291 5.06444C108.473 5.13716 108.646 5.25534 108.828 5.34625C109 5.47353 109.182 5.58262 109.346 5.73716C109.519 5.87353 109.673 6.04625 109.828 6.20989C109.964 6.39171 110.11 6.55534 110.228 6.74625C110.355 6.92807 110.446 7.12807 110.546 7.30989C110.619 7.50989 110.71 7.69171 110.755 7.87353C110.782 7.96444 110.81 8.05534 110.837 8.13716C110.855 8.22807 110.873 8.30989 110.891 8.39171C110.928 8.55534 110.937 8.7008 110.955 8.83716C110.955 8.9008 110.964 8.96444 110.973 9.01898C110.973 9.08262 110.973 9.13717 110.973 9.19172C110.973 9.40081 110.973 9.51899 110.973 9.51899L111.646 9.48263C111.646 9.48263 111.637 9.36444 111.619 9.15535C111.619 9.10081 111.61 9.04625 111.6 8.98262C111.591 8.91898 111.573 8.83716 111.564 8.76444C111.537 8.60989 111.51 8.42807 111.446 8.25534C111.419 8.16444 111.391 8.07353 111.364 7.97353C111.328 7.88262 111.291 7.78262 111.246 7.68262C111.173 7.48262 111.055 7.28262 110.955 7.08262C110.828 6.89171 110.71 6.68262 110.555 6.5008C110.419 6.30989 110.237 6.13716 110.073 5.96444C109.891 5.80989 109.719 5.64625 109.519 5.51898C109.337 5.37353 109.128 5.27353 108.937 5.16444C108.737 5.08262 108.546 4.97353 108.355 4.91898C108.264 4.89171 108.164 4.85534 108.082 4.82807C107.991 4.80989 107.9 4.79171 107.819 4.77353C107.655 4.72807 107.491 4.71898 107.355 4.7008C107.282 4.7008 107.219 4.68262 107.164 4.68262C107.1 4.68262 107.046 4.68262 107 4.68262C106.8 4.68262 106.691 4.68262 106.691 4.68262C106.691 4.68262 106.8 4.69171 107 4.70989L106.982 4.69171Z" fill="white"/>
<path d="M86.2913 25.7725C86.2913 25.7725 86.2913 25.8906 86.2913 26.0997C86.2913 26.1543 86.2913 26.2088 86.2913 26.2725C86.2913 26.327 86.3004 26.3906 86.3094 26.4543C86.3185 26.5816 86.3276 26.727 86.3731 26.8997C86.3913 26.9816 86.4094 27.0634 86.4276 27.1543C86.4549 27.2361 86.4822 27.327 86.5094 27.4179C86.5549 27.6088 86.6458 27.7906 86.7185 27.9816C86.8185 28.1634 86.9094 28.3634 87.0367 28.5452C87.1458 28.7361 87.3004 28.9088 87.4367 29.0816C87.5913 29.2452 87.7458 29.4088 87.9185 29.5543C88.0822 29.7088 88.264 29.8179 88.4367 29.9452C88.6185 30.0452 88.7913 30.1634 88.9731 30.227C89.064 30.2634 89.1458 30.2997 89.2276 30.3452C89.3185 30.3725 89.4004 30.3997 89.4822 30.427C89.6458 30.4816 89.7913 30.5179 89.9276 30.5452C89.9913 30.5634 90.0549 30.5725 90.1185 30.5816C90.1822 30.5816 90.2367 30.5906 90.2822 30.5997C90.4822 30.6179 90.5913 30.627 90.5913 30.627C90.5913 30.627 90.4731 30.627 90.2822 30.627C90.2367 30.627 90.1731 30.627 90.1185 30.627C90.0549 30.627 89.9913 30.6088 89.9276 30.6088C89.7913 30.5906 89.6276 30.5816 89.464 30.5361C89.3822 30.5179 89.2913 30.4997 89.2004 30.4816C89.1094 30.4543 89.0185 30.4179 88.9276 30.3906C88.7367 30.3361 88.5458 30.2361 88.3458 30.1452C88.1549 30.0361 87.9458 29.9361 87.764 29.7906C87.564 29.6634 87.3913 29.4997 87.2094 29.3452C87.0458 29.1725 86.8731 28.9997 86.7276 28.8088C86.5731 28.627 86.4549 28.4179 86.3276 28.227C86.2276 28.0179 86.1094 27.827 86.0367 27.627C86.0004 27.527 85.9549 27.427 85.9185 27.3361C85.8913 27.2361 85.864 27.1452 85.8367 27.0543C85.7822 26.8725 85.7458 26.6997 85.7185 26.5452C85.7004 26.4634 85.6913 26.3906 85.6822 26.327C85.6822 26.2634 85.6731 26.2088 85.664 26.1543C85.6458 25.9452 85.6367 25.827 85.6367 25.827L86.3094 25.7906L86.2913 25.7725Z" fill="white"/>
<path fill-rule="evenodd" clip-rule="evenodd" d="M107 30.9548C107.046 30.9548 107.1 30.9457 107.164 30.9366C107.227 30.9275 107.3 30.9094 107.373 30.8912C107.527 30.8639 107.691 30.8276 107.864 30.7639C107.955 30.7367 108.036 30.7094 108.136 30.673C108.227 30.6366 108.318 30.5912 108.418 30.5548C108.609 30.4821 108.8 30.3548 109 30.2457C109.182 30.1094 109.382 29.9912 109.564 29.8276C109.755 29.6821 109.909 29.5002 110.082 29.3275C110.227 29.1366 110.391 28.9548 110.509 28.7457C110.646 28.5548 110.746 28.3366 110.855 28.1367C110.936 27.9276 111.036 27.7276 111.082 27.5276C111.109 27.4276 111.136 27.3367 111.173 27.2367C111.191 27.1367 111.209 27.0457 111.227 26.9639C111.273 26.7912 111.282 26.6276 111.3 26.4821C111.3 26.4094 111.318 26.3457 111.318 26.2821C111.318 26.2185 111.318 26.1639 111.318 26.1094C111.318 25.9003 111.318 25.7821 111.318 25.7821C111.318 25.7821 111.309 25.9003 111.291 26.1094C111.291 26.1639 111.282 26.2185 111.273 26.2821C111.264 26.3457 111.246 26.4094 111.236 26.4821C111.209 26.6276 111.182 26.7821 111.127 26.9457C111.1 27.0276 111.073 27.1185 111.046 27.2094C111.009 27.3003 110.973 27.3912 110.936 27.4821C110.873 27.673 110.755 27.8457 110.664 28.0457C110.546 28.2276 110.436 28.4185 110.291 28.5912C110.164 28.773 110 28.9276 109.846 29.0912C109.673 29.2367 109.509 29.3912 109.327 29.5094C109.155 29.6457 108.964 29.7367 108.791 29.8367C108.6 29.9094 108.427 30.0094 108.246 30.0548C108.155 30.0821 108.073 30.1094 107.991 30.1366C107.909 30.1548 107.827 30.173 107.746 30.1912C107.591 30.2276 107.446 30.2457 107.327 30.2547C107.264 30.2547 107.209 30.2639 107.155 30.273C107.091 30.273 107.036 30.273 106.991 30.273C106.791 30.273 106.682 30.273 106.682 30.273L106.718 30.973C106.718 30.973 106.827 30.9639 107.027 30.9457L107 30.9548Z" fill="white"/>
</g>
</g>
<defs>
<clipPath id="clip0_1_2396">
<rect width="143.636" height="90" fill="white"/>
</clipPath>
</defs>
</svg>
