<svg width="191" height="120" viewBox="0 0 191 120" fill="none" xmlns="http://www.w3.org/2000/svg">
<mask id="mask0_907_493" style="mask-type:luminance" maskUnits="userSpaceOnUse" x="0" y="0" width="191" height="120">
<path d="M190.776 0H0V119.903H190.776V0Z" fill="white"/>
</mask>
<g mask="url(#mask0_907_493)">
<path fill-rule="evenodd" clip-rule="evenodd" d="M13.3091 87.8182L24.4364 61.4546L35.5636 87.8182H13.3091ZM0 105.346H5.97576L11.0667 93.297H37.8303L42.9939 105.346H48.9697L27.0667 54.3516H21.8788L0 105.346Z" fill="#307ABD"/>
<path fill-rule="evenodd" clip-rule="evenodd" d="M53.2344 105.346H85.1495V99.794H58.7495V54.3516H53.2344V105.346Z" fill="#307ABD"/>
<path fill-rule="evenodd" clip-rule="evenodd" d="M99.1626 105.491H104.326L124.399 54.3516H118.447L101.744 97.5031L85.0414 54.3516H79.0898L98.9201 104.873L99.1626 105.491Z" fill="#307ABD"/>
<path fill-rule="evenodd" clip-rule="evenodd" d="M128.328 105.346H133.783V54.3516H128.328V105.346Z" fill="#307ABD"/>
<path fill-rule="evenodd" clip-rule="evenodd" d="M166.196 106.196C182.995 106.196 190.717 92.5842 190.789 79.9296C190.826 72.269 188.341 65.4084 183.771 60.6084C179.396 56.0024 173.311 53.5781 166.196 53.5781C149.202 53.5781 141.602 66.7418 141.602 79.7842C141.602 92.8266 149.299 106.196 166.196 106.196ZM147.044 79.8448C147.008 73.6751 148.947 68.2206 152.499 64.4751C155.856 60.9357 160.596 59.069 166.183 59.069C179.456 59.069 185.395 69.5054 185.395 79.8448C185.395 89.8933 179.383 100.693 166.183 100.693C153.117 100.693 147.105 89.8812 147.044 79.8327V79.8448Z" fill="#307ABD"/>
<path d="M0.946591 116.81V113.319H1.26174V116.81L1.10417 116.968L0.946591 116.81ZM1.10417 116.968H0.946591V116.81L1.10417 116.968ZM3.45568 116.968H1.10417V116.641H3.45568V116.968ZM3.45568 113.477V113.15H3.66174L3.8678 113.198L4.04962 113.247L4.21931 113.319L4.37689 113.404L4.52235 113.501L4.65568 113.622L4.77689 113.756L4.88598 113.901L4.97083 114.047L5.04356 114.204L5.10416 114.374L5.15265 114.544L5.18901 114.713L5.21325 114.883V115.065V115.247L5.18901 115.416L5.15265 115.586L5.10416 115.756L5.04356 115.925L4.97083 116.083L4.88598 116.229L4.77689 116.374L4.65568 116.507L4.52235 116.629L4.37689 116.725L4.21931 116.81L4.04962 116.883L3.8678 116.932L3.66174 116.968H3.45568V116.653H3.6375L3.80719 116.616L3.96477 116.568L4.11022 116.507L4.24356 116.435L4.36477 116.35L4.47386 116.253L4.57083 116.144L4.65568 116.035L4.72841 115.913L4.78901 115.78L4.8375 115.647L4.87386 115.501L4.8981 115.356V115.21L4.92235 115.065V114.919L4.8981 114.774L4.87386 114.629L4.8375 114.483L4.78901 114.35L4.72841 114.216L4.65568 114.095L4.57083 113.986L4.47386 113.877L4.36477 113.78L4.24356 113.695L4.11022 113.622L3.96477 113.562L3.80719 113.513L3.6375 113.489H3.45568V113.477ZM1.10417 113.138H3.45568V113.465H1.10417L0.946591 113.307L1.10417 113.15V113.138ZM0.946591 113.295V113.138H1.10417L0.946591 113.295ZM0.946591 119.61V117.259H1.26174V119.61L1.10417 119.768L0.946591 119.61ZM1.26174 119.61V119.768H1.10417L1.26174 119.61ZM0.607197 119.453H1.10417V119.78H0.595076L0.4375 119.622L0.595076 119.465L0.607197 119.453ZM0.607197 119.78H0.449621V119.622L0.607197 119.78ZM0.764773 112.81V119.622H0.4375V112.81L0.595076 112.653L0.752651 112.81H0.764773ZM0.449621 112.81V112.653H0.607197L0.449621 112.81ZM3.45568 112.968H0.595076V112.641H3.45568V112.968ZM3.45568 117.416V117.089H3.6981L3.92841 117.041L4.13447 116.98L4.32841 116.907L4.4981 116.81L4.65568 116.701L4.80113 116.58L4.93447 116.447L5.04356 116.301L5.14053 116.144L5.22538 115.974L5.2981 115.792L5.34659 115.61L5.38295 115.416L5.40719 115.222V115.029V114.835L5.38295 114.641L5.34659 114.447L5.2981 114.265L5.22538 114.083L5.14053 113.913L5.04356 113.756L4.93447 113.61L4.80113 113.477L4.65568 113.356L4.4981 113.247L4.32841 113.15L4.13447 113.077L3.92841 113.016L3.6981 112.98H3.45568V112.641H3.72234L3.97689 112.689L4.21931 112.75L4.4375 112.835L4.64356 112.944L4.8375 113.077L5.00719 113.222L5.16477 113.38L5.2981 113.562L5.41931 113.744L5.51628 113.938L5.60113 114.144L5.66174 114.362L5.71022 114.58L5.73447 114.798V115.016V115.235L5.71022 115.453L5.66174 115.671L5.60113 115.889L5.51628 116.095L5.41931 116.289L5.2981 116.471L5.16477 116.653L5.00719 116.81L4.8375 116.956L4.64356 117.089L4.4375 117.198L4.21931 117.283L3.97689 117.344L3.72234 117.38H3.45568V117.416ZM1.10417 117.089H3.45568V117.416H1.10417L0.946591 117.259L1.10417 117.101V117.089ZM0.946591 117.247V117.089H1.10417L0.946591 117.247Z" fill="#373435"/>
<path d="M1.10284 113.317V116.808H3.45436C5.62406 116.808 5.62406 113.317 3.45436 113.317H1.10284ZM1.10284 117.281V119.632H0.59375V112.82H3.45436C6.2786 112.82 6.2786 117.269 3.45436 117.269H1.10284V117.281Z" fill="#373435"/>
<path d="M13.817 116.543V119.634H13.5018V116.543L13.6594 116.385L13.817 116.543ZM13.6594 116.385H13.817V116.543L13.6594 116.385ZM9.51392 116.385H13.6594V116.713H9.51392L9.35634 116.555L9.51392 116.397V116.385ZM9.35634 116.543V116.385H9.51392L9.35634 116.543ZM9.35634 119.634V116.543H9.6715V119.634L9.51392 119.791L9.35634 119.634ZM9.6715 119.634V119.791H9.51392L9.6715 119.634ZM9.01695 119.476H9.51392V119.803H9.01695L8.85938 119.646L9.01695 119.488V119.476ZM9.01695 119.803H8.85938V119.646L9.01695 119.803ZM9.17453 112.834V119.646H8.85938V112.834L9.01695 112.676L9.17453 112.834ZM8.85938 112.834V112.676H9.01695L8.85938 112.834ZM9.51392 112.991H9.01695V112.664H9.51392L9.6715 112.822L9.51392 112.979V112.991ZM9.51392 112.664H9.6715V112.822L9.51392 112.664ZM9.35634 116.07V112.834H9.6715V116.07L9.51392 116.228L9.35634 116.07ZM9.51392 116.228H9.35634V116.07L9.51392 116.228ZM13.6594 116.228H9.51392V115.9H13.6594L13.817 116.058L13.6594 116.216V116.228ZM13.817 116.07V116.228H13.6594L13.817 116.07ZM13.817 112.834V116.07H13.5018V112.834L13.6594 112.676L13.817 112.834ZM13.5018 112.834V112.676H13.6594L13.5018 112.834ZM14.1564 112.991H13.6594V112.664H14.1564L14.314 112.822L14.1564 112.979V112.991ZM14.1564 112.664H14.314V112.822L14.1564 112.664ZM13.9988 119.634V112.822H14.314V119.634L14.1564 119.791L13.9988 119.634ZM14.314 119.634V119.791H14.1564L14.314 119.634ZM13.6594 119.476H14.1564V119.803H13.6594L13.5018 119.646L13.6594 119.488V119.476ZM13.6594 119.803H13.5018V119.646L13.6594 119.803Z" fill="#373435"/>
<path d="M13.674 119.632V116.542H9.5165V119.632H9.01953V112.82H9.5165V116.069H13.674V112.82H14.171V119.632H13.674Z" fill="#373435"/>
<path d="M20.5949 113.27L22.3403 117.416L22.0616 117.549L20.3161 113.403V113.27H20.5949ZM20.3161 113.27L20.4616 112.931L20.607 113.27H20.3282H20.3161ZM18.5706 117.416L20.3161 113.27L20.5949 113.403L18.8494 117.549L18.704 117.646L18.5585 117.416H18.5706ZM18.7161 117.646H18.4737L18.5706 117.416L18.7161 117.646ZM22.2191 117.646H18.7161V117.319H22.2191L22.3646 117.416L22.2191 117.646ZM22.3646 117.416L22.4616 117.646H22.2191L22.3646 117.416ZM22.5585 117.9L23.2737 119.573L22.9949 119.706L22.2797 118.034L22.4252 117.803L22.5706 117.9H22.5585ZM22.4131 117.803H22.51L22.5464 117.9L22.4009 117.803H22.4131ZM18.5222 117.803H22.4131V118.131H18.5222L18.3767 117.9L18.5222 117.803ZM18.3767 117.9L18.4131 117.803H18.51L18.3646 117.9H18.3767ZM17.6737 119.573L18.3767 117.9L18.6555 118.034L17.9525 119.706L17.807 119.803L17.6616 119.573H17.6737ZM17.9525 119.706L17.9161 119.803H17.8191L17.9646 119.706H17.9525ZM17.2737 119.476H17.8191V119.803H17.2737L17.1282 119.573L17.2737 119.476ZM17.2737 119.803H17.0312L17.1282 119.573L17.2737 119.803ZM20.3403 112.894L17.4191 119.706L17.1403 119.573L20.0616 112.761L20.207 112.664L20.3525 112.894H20.3403ZM20.0616 112.761L20.0979 112.664H20.1949L20.0494 112.761H20.0616ZM20.7525 112.991H20.207V112.664H20.7525L20.8979 112.761L20.7525 112.991ZM20.7525 112.664H20.8494L20.8858 112.761L20.7403 112.664H20.7525ZM23.5282 119.706L20.607 112.894L20.8858 112.761L23.807 119.573L23.6616 119.803L23.5161 119.706H23.5282ZM23.807 119.573L23.904 119.803H23.6616L23.807 119.573ZM23.1282 119.476H23.6737V119.803H23.1282L22.9828 119.706L23.1282 119.476ZM23.1282 119.803H23.0312L22.9949 119.706L23.1403 119.803H23.1282Z" fill="#373435"/>
<path d="M22.1955 117.475L20.45 113.329L18.7045 117.475H22.2076H22.1955ZM23.1045 119.632L22.3894 117.96H18.4985L17.7955 119.632H17.25L20.1712 112.82H20.7167L23.6379 119.632H23.0924H23.1045Z" fill="#373435"/>
<path d="M29.6255 116.725H27.3225V116.397H29.6255V116.725ZM31.1165 114.931H31.4316V115.028V115.125V115.222L31.4074 115.306V115.391L31.371 115.476L31.3468 115.561L31.3225 115.646L31.2983 115.731L31.2619 115.803L31.2255 115.876L31.1892 115.949L31.1407 116.022L31.0922 116.094L31.0437 116.155L30.9831 116.216L30.9225 116.276L30.8619 116.337L30.8013 116.385L30.7286 116.434L30.6558 116.482L30.5831 116.519L30.4983 116.555L30.4134 116.591L30.3286 116.616L30.2437 116.64L30.1468 116.664L30.0498 116.688H29.9528L29.8558 116.713H29.7468H29.6377V116.385H29.7346H29.8316H29.9286L30.0134 116.361H30.0983L30.1831 116.325L30.2558 116.3L30.3286 116.276L30.4013 116.252L30.4619 116.216L30.5225 116.179L30.5831 116.143L30.6316 116.106L30.6801 116.07L30.7286 116.022L30.7771 115.973L30.8134 115.925L30.8498 115.876L30.8861 115.828L30.9225 115.767L30.9589 115.706L30.9831 115.646L31.0074 115.585L31.0316 115.525L31.0558 115.452L31.0801 115.379V115.306L31.1043 115.234V115.161L31.1286 115.088V115.003V114.919L31.1165 114.931ZM29.6862 113.476V113.149H29.7952H29.9043H30.0013L30.0983 113.173L30.1952 113.197L30.2801 113.222L30.3649 113.258L30.4498 113.294L30.5346 113.331L30.6074 113.379L30.6801 113.428L30.7528 113.476L30.8255 113.525L30.8861 113.585L30.9468 113.646L31.0074 113.706L31.0558 113.767L31.1043 113.84L31.1528 113.913L31.2013 113.985L31.2377 114.058L31.274 114.131L31.3104 114.203L31.3346 114.276L31.3589 114.349L31.3831 114.434V114.519L31.4195 114.603V114.688L31.4437 114.773V114.858V114.943H31.1286V114.87V114.797V114.725V114.652L31.1043 114.579V114.519L31.068 114.458L31.0437 114.397L31.0195 114.337L30.9952 114.276L30.971 114.216L30.9346 114.155L30.8983 114.094L30.8619 114.034L30.8255 113.985L30.7771 113.937L30.7286 113.888L30.6801 113.84L30.6316 113.791L30.5831 113.743L30.5225 113.706L30.4619 113.67L30.4013 113.634L30.3407 113.597L30.268 113.573L30.1952 113.549L30.1225 113.525L30.0377 113.5H29.9528L29.868 113.476H29.7831H29.6862ZM27.3225 113.149H29.6862V113.476H27.3225L27.1649 113.319L27.3225 113.161V113.149ZM27.1649 113.306V113.149H27.3225L27.1649 113.306ZM27.1649 116.555V113.306H27.4801V116.555L27.3225 116.713L27.1649 116.555ZM27.3225 116.713H27.1649V116.555L27.3225 116.713ZM31.3468 119.464H32.0013V119.791H31.3468L31.2377 119.743L31.3468 119.476V119.464ZM31.3468 119.791H31.274L31.2255 119.743L31.3346 119.791H31.3468ZM29.2134 116.943L31.468 119.525L31.2377 119.743L28.9831 117.161L29.0922 116.894L29.2013 116.943H29.2134ZM29.1043 116.894H29.1771L29.2255 116.943L29.1165 116.894H29.1043ZM27.3225 116.894H29.1043V117.222H27.3225L27.1649 117.064L27.3225 116.906V116.894ZM27.1649 117.052V116.894H27.3225L27.1649 117.052ZM27.1649 119.634V117.052H27.4801V119.634L27.3225 119.791L27.1649 119.634ZM27.4801 119.634V119.791H27.3225L27.4801 119.634ZM26.8255 119.476H27.3225V119.803H26.8255L26.668 119.646L26.8255 119.488V119.476ZM26.8255 119.803H26.668V119.646L26.8255 119.803ZM26.9831 112.834V119.646H26.668V112.834L26.8255 112.676L26.9831 112.834ZM26.668 112.834V112.676H26.8255L26.668 112.834ZM29.6862 112.991H26.8255V112.664H29.6862V112.991ZM31.9771 114.943H31.6619V114.858V114.761L31.6498 114.664V114.567L31.6134 114.482L31.5892 114.397L31.5649 114.313L31.5407 114.228L31.5043 114.143L31.468 114.058L31.4316 113.973L31.3831 113.888L31.3346 113.816L31.2861 113.743L31.2255 113.67L31.1649 113.597L31.1043 113.537L31.0316 113.476L30.9589 113.416L30.8861 113.355L30.8134 113.306L30.7286 113.258L30.6437 113.21L30.5589 113.173L30.4619 113.137L30.3649 113.1L30.268 113.076L30.1589 113.052L30.0498 113.028H29.9407L29.8195 113.003H29.6983V112.676H29.8316L29.9649 112.688H30.0983L30.2195 112.725L30.3407 112.749L30.4619 112.785L30.571 112.822L30.6801 112.87L30.7892 112.919L30.8861 112.967L30.9831 113.028L31.0801 113.088L31.1649 113.161L31.2498 113.234L31.3346 113.306L31.4074 113.391L31.4801 113.476L31.5407 113.561L31.6013 113.646L31.6619 113.731L31.7104 113.828L31.7589 113.925L31.8074 114.022L31.8437 114.119L31.8801 114.216L31.9165 114.313L31.9407 114.422L31.9649 114.531V114.64L31.9892 114.749V114.858V114.967L31.9771 114.943ZM29.8195 116.919L29.5892 117.137L29.6983 116.87H29.8195H29.9407H30.0619L30.171 116.834L30.2801 116.81L30.3771 116.785L30.474 116.749L30.571 116.713L30.6558 116.676L30.7407 116.628L30.8255 116.579L30.8983 116.531L30.971 116.482L31.0437 116.422L31.1043 116.361L31.1649 116.3L31.2255 116.24L31.274 116.167L31.3225 116.094L31.371 116.022L31.4195 115.949L31.4558 115.864L31.4922 115.779L31.5286 115.694L31.5528 115.61L31.5771 115.525L31.6013 115.44V115.343L31.6255 115.246V115.149L31.6377 115.052V114.955H31.9528V115.064V115.173V115.282L31.9286 115.391L31.9043 115.5L31.8801 115.61L31.8558 115.706L31.8195 115.803L31.7831 115.9L31.7468 115.997L31.6983 116.094L31.6498 116.191L31.5892 116.276L31.5286 116.361L31.468 116.446L31.3952 116.531L31.3225 116.603L31.2498 116.676L31.1649 116.749L31.0801 116.81L30.9831 116.87L30.8861 116.931L30.7892 116.979L30.6801 117.028L30.571 117.064L30.4619 117.1L30.3407 117.137L30.2195 117.161L30.0983 117.185H29.9649L29.8316 117.21H29.6983L29.8074 116.943L29.8195 116.919ZM29.5892 117.137L29.3468 116.87H29.6983L29.5892 117.137ZM31.8922 119.743L29.5892 117.137L29.8195 116.919L32.1225 119.525L32.0134 119.791L31.9043 119.743H31.8922ZM32.1225 119.525L32.3649 119.791H32.0134L32.1225 119.525Z" fill="#373435"/>
<path d="M27.3095 116.569H29.6125C30.7519 116.569 31.2489 115.903 31.261 114.945C31.261 114.145 30.7519 113.321 29.6731 113.321H27.3095V116.569ZM32.0004 119.648H31.3458L29.0913 117.066H27.3095V119.648H26.8125V112.836H29.6731C31.0913 112.836 31.8064 113.89 31.8186 114.957C31.8186 116.072 31.1277 117.042 29.7095 117.042L32.0125 119.648H32.0004Z" fill="#373435"/>
<path d="M38.2321 117.488L40.729 113.5L40.9836 113.682L38.4866 117.67L38.3533 117.743L38.2199 117.488H38.2321ZM38.4866 117.67L38.4381 117.743H38.3533L38.4866 117.67ZM38.1836 117.416H38.3533V117.743H38.1836L38.0502 117.67L38.1836 117.416ZM38.1836 117.743H38.0987L38.0502 117.67L38.1836 117.743ZM35.7957 113.5L38.3048 117.488L38.0502 117.67L35.5411 113.682L35.5169 113.597L35.8078 113.513L35.7957 113.5ZM35.5048 113.585V113.04L35.7957 113.488L35.5048 113.573V113.585ZM35.5048 119.634V113.585H35.8199V119.634L35.6624 119.791L35.5048 119.634ZM35.8199 119.634V119.791H35.6624L35.8199 119.634ZM35.1654 119.476H35.6624V119.803H35.1654L35.0078 119.646L35.1654 119.488V119.476ZM35.1654 119.803H35.0078V119.646L35.1654 119.803ZM35.323 112.834V119.646H35.0078V112.834L35.1654 112.676L35.323 112.834ZM35.0078 112.834V112.676H35.1654L35.0078 112.834ZM35.7593 112.991H35.1654V112.664H35.7593L35.8927 112.737L35.7593 112.991ZM35.7593 112.664H35.8442L35.8927 112.737L35.7593 112.664ZM38.123 116.882L35.626 112.919L35.8805 112.737L38.3775 116.7V116.882H38.123ZM38.3775 116.882L38.2442 117.088L38.1108 116.882H38.3654H38.3775ZM40.8381 112.919L38.3775 116.882L38.123 116.7L40.5836 112.737L40.7169 112.664L40.8502 112.919H40.8381ZM40.5836 112.737L40.6321 112.664H40.7169L40.5836 112.737ZM41.323 112.991H40.7048V112.664H41.323L41.4805 112.822L41.323 112.979V112.991ZM41.323 112.664H41.4805V112.822L41.323 112.664ZM41.1654 119.634V112.822H41.4805V119.634L41.323 119.791L41.1654 119.634ZM41.4805 119.634V119.791H41.323L41.4805 119.634ZM40.826 119.476H41.323V119.803H40.826L40.6684 119.646L40.826 119.488V119.476ZM40.826 119.803H40.6684V119.646L40.826 119.803ZM40.9836 113.597V119.646H40.6684V113.597L40.6927 113.513L40.9836 113.597ZM40.6927 113.513L40.9836 113.052V113.597L40.6927 113.513Z" fill="#373435"/>
<path d="M40.8485 113.584L38.3515 117.572H38.194L35.6728 113.584V119.632H35.1758V112.82H35.7697L38.2667 116.796L40.7273 112.82H41.3455V119.632H40.8485V113.584Z" fill="#373435"/>
<path d="M47.759 113.27L49.5044 117.416L49.2256 117.549L47.4802 113.403V113.27H47.759ZM47.4802 113.27L47.6256 112.931L47.7711 113.27H47.4923H47.4802ZM45.7347 117.416L47.4802 113.27L47.759 113.403L46.0135 117.549L45.868 117.646L45.7226 117.416H45.7347ZM45.8802 117.646H45.6377L45.7347 117.416L45.8802 117.646ZM49.3832 117.646H45.8802V117.319H49.3832L49.5286 117.416L49.3832 117.646ZM49.5286 117.416L49.6256 117.646H49.3832L49.5286 117.416ZM49.7226 117.9L50.4377 119.573L50.159 119.706L49.4438 118.034L49.5893 117.803L49.7347 117.9H49.7226ZM49.5771 117.803H49.6741L49.7105 117.9L49.565 117.803H49.5771ZM45.6862 117.803H49.5771V118.131H45.6862L45.5408 117.9L45.6862 117.803ZM45.5408 117.9L45.5771 117.803H45.6741L45.5286 117.9H45.5408ZM44.8377 119.573L45.5408 117.9L45.8196 118.034L45.1165 119.706L44.9711 119.803L44.8256 119.573H44.8377ZM45.1165 119.706L45.0802 119.803H44.9832L45.1286 119.706H45.1165ZM44.4377 119.476H44.9832V119.803H44.4377L44.2923 119.573L44.4377 119.476ZM44.4377 119.803H44.1953L44.2923 119.573L44.4377 119.803ZM47.5044 112.894L44.5832 119.706L44.3044 119.573L47.2256 112.761L47.3711 112.664L47.5165 112.894H47.5044ZM47.2256 112.761L47.262 112.664H47.3589L47.2135 112.761H47.2256ZM47.9165 112.991H47.3711V112.664H47.9165L48.062 112.761L47.9165 112.991ZM47.9165 112.664H48.0135L48.0499 112.761L47.9044 112.664H47.9165ZM50.6923 119.706L47.7711 112.894L48.0499 112.761L50.9711 119.573L50.8256 119.803L50.6802 119.706H50.6923ZM50.9711 119.573L51.068 119.803H50.8256L50.9711 119.573ZM50.2923 119.476H50.8377V119.803H50.2923L50.1468 119.706L50.2923 119.476ZM50.2923 119.803H50.1953L50.159 119.706L50.3044 119.803H50.2923Z" fill="#373435"/>
<path d="M49.3712 117.475L47.6258 113.329L45.8803 117.475H49.3834H49.3712ZM50.2803 119.632L49.5652 117.96H45.6743L44.9712 119.632H44.4258L47.347 112.82H47.8924L50.8137 119.632H50.2682H50.2803Z" fill="#373435"/>
<path d="M56.5937 119.879V119.551H56.6664H56.7391H56.8119H56.8846H56.9573L57.03 119.527H57.1028L57.1755 119.503H57.2482L57.321 119.466L57.3937 119.442L57.4664 119.418L57.5391 119.394L57.6119 119.37L57.6846 119.345L57.7573 119.321L57.83 119.285L57.9028 119.248L57.9755 119.212L58.0482 119.176L58.1209 119.139L58.1937 119.103L58.2664 119.054L58.3391 119.006L58.3997 118.957L58.4603 118.909L58.521 118.86L58.5816 118.812L58.6422 118.763L58.7028 118.703L58.7634 118.642L58.824 118.582L59.0422 118.812L58.9816 118.873L58.9209 118.933L58.8482 118.994L58.7755 119.054L58.7028 119.115L58.63 119.176L58.5573 119.224L58.4846 119.273L58.4119 119.321L58.3391 119.37L58.2664 119.418L58.1937 119.466L58.1209 119.503L58.0482 119.539L57.9755 119.576L57.8906 119.612L57.8058 119.648L57.721 119.685L57.6361 119.709L57.5513 119.733L57.4664 119.757L57.3816 119.782L57.2967 119.806H57.2119L57.127 119.842H57.0422L56.9573 119.866H56.8725L56.7876 119.879H56.7028H56.6179H56.5331H56.5937ZM53.0906 116.279H53.4058V116.448L53.4179 116.618V116.776L53.4543 116.933L53.4785 117.091L53.5149 117.248L53.5513 117.394L53.5997 117.539L53.6482 117.685L53.7088 117.83L53.7694 117.963L53.8422 118.097L53.9149 118.23L53.9997 118.351L54.0846 118.473L54.1816 118.582L54.2785 118.691L54.3876 118.8L54.4967 118.897L54.6179 118.994L54.7391 119.079L54.8725 119.163L55.0058 119.236L55.1513 119.309L55.3088 119.37L55.4664 119.418L55.6361 119.466L55.8058 119.503L55.9876 119.539L56.1694 119.563H56.3634L56.5573 119.576V119.903H56.3513L56.1452 119.879L55.9513 119.854L55.7573 119.818L55.5755 119.782L55.3937 119.733L55.224 119.673L55.0543 119.612L54.8967 119.539L54.7391 119.454L54.5937 119.37L54.4482 119.273L54.3149 119.176L54.1816 119.066L54.0603 118.945L53.9513 118.824L53.8422 118.691L53.7452 118.557L53.6482 118.424L53.5634 118.279L53.4785 118.133L53.4058 117.988L53.3452 117.83L53.2846 117.673L53.2361 117.515L53.1876 117.345L53.1513 117.176L53.1149 117.006L53.0906 116.836V116.666L53.0664 116.485V116.303L53.0906 116.279ZM56.6058 112.594V112.921H56.4119L56.2179 112.945L56.0361 112.97L55.8543 113.006L55.6846 113.042L55.5149 113.091L55.3573 113.151L55.1997 113.212L55.0543 113.285L54.9088 113.357L54.7755 113.442L54.6422 113.527L54.521 113.624L54.3997 113.721L54.2906 113.83L54.1937 113.939L54.0967 114.06L54.0119 114.182L53.927 114.315L53.8543 114.448L53.7816 114.582L53.721 114.727L53.6603 114.873L53.6119 115.018L53.5634 115.163L53.527 115.321L53.4906 115.479L53.4664 115.636L53.4422 115.794V115.951L53.4179 116.109V116.266H53.1028V116.085V115.915V115.745L53.1391 115.576L53.1634 115.406L53.1997 115.236L53.2482 115.066L53.2967 114.897L53.3573 114.739L53.4179 114.582L53.4906 114.424L53.5755 114.279L53.6603 114.133L53.7573 113.988L53.8543 113.854L53.9634 113.721L54.0725 113.6L54.1937 113.479L54.327 113.37L54.4603 113.26L54.6058 113.163L54.7513 113.066L54.9088 112.982L55.0664 112.909L55.2361 112.836L55.4058 112.776L55.5876 112.727L55.7816 112.679L55.9755 112.642L56.1816 112.618H56.3876L56.6058 112.594ZM59.0785 113.903L58.8725 113.66V113.903L58.7997 113.842L58.7391 113.782L58.6785 113.721L58.6179 113.673L58.5573 113.624L58.4967 113.576L58.4361 113.527L58.3755 113.479L58.3028 113.43L58.23 113.382L58.1573 113.345L58.0846 113.309L58.0119 113.273L57.9391 113.236L57.8664 113.2L57.7937 113.163L57.721 113.139L57.6482 113.115L57.5755 113.091L57.5028 113.066L57.43 113.042L57.3573 113.018L57.2846 112.994H57.2119L57.1391 112.957H57.0664L56.9937 112.933H56.921L56.8482 112.921H56.7755H56.7028H56.63V112.594H56.7149H56.7997H56.8846H56.9694H57.0543L57.1391 112.618H57.224L57.3088 112.642H57.3937L57.4785 112.679L57.5634 112.703L57.6482 112.727L57.7331 112.751L57.8179 112.776L57.9028 112.812L57.9876 112.848L58.0725 112.885L58.1452 112.921L58.2179 112.957L58.2907 112.994L58.3634 113.042L58.4361 113.091L58.5088 113.139L58.5816 113.188L58.6543 113.236L58.727 113.285L58.7997 113.345L58.8725 113.406L58.9452 113.466L59.0179 113.527L59.0785 113.588L59.1391 113.648V113.891L59.0785 113.903ZM59.0785 113.66L59.1997 113.782L59.0785 113.891V113.648V113.66ZM58.521 113.963L58.8603 113.648L59.0664 113.891L58.727 114.206H58.521V113.963ZM58.727 114.206L58.6179 114.303L58.521 114.194H58.727V114.206ZM56.5937 113.382V113.054H56.6664H56.7391H56.8119H56.8846H56.9573L57.03 113.066H57.1028L57.1755 113.091H57.2482L57.321 113.127L57.3937 113.151L57.4664 113.176L57.5391 113.2L57.6119 113.224L57.6846 113.248L57.7573 113.273L57.83 113.297L57.9028 113.333L57.9634 113.37L58.024 113.406L58.0846 113.442L58.1452 113.479L58.2058 113.515L58.2664 113.551L58.327 113.6L58.3876 113.648L58.4482 113.697L58.5088 113.745L58.5694 113.794L58.63 113.842L58.6906 113.903L58.7513 113.963L58.5331 114.194L58.4846 114.145L58.4361 114.097L58.3876 114.048L58.3391 114L58.2907 113.951L58.2422 113.903L58.1816 113.866L58.1209 113.83L58.0603 113.794L57.9997 113.757L57.9391 113.721L57.8785 113.685L57.8179 113.648L57.7573 113.624L57.6967 113.6L57.6361 113.576L57.5755 113.551L57.5149 113.527L57.4543 113.503L57.3937 113.479L57.3331 113.454H57.2725L57.2119 113.418H57.1513L57.0906 113.394H57.03L56.9694 113.37H56.9088L56.8482 113.357H56.7876H56.727H56.6664L56.5937 113.382ZM53.8785 116.254H53.5634V116.097V115.939V115.782L53.5997 115.624L53.624 115.466L53.6603 115.321L53.6967 115.176L53.7452 115.03L53.7937 114.885L53.8543 114.751L53.9149 114.618L53.9876 114.485L54.0603 114.363L54.1452 114.242L54.23 114.121L54.327 114.012L54.424 113.903L54.5331 113.806L54.6422 113.709L54.7634 113.612L54.8846 113.527L55.0179 113.442L55.1513 113.37L55.2846 113.309L55.43 113.248L55.5755 113.2L55.7331 113.151L55.8906 113.115L56.0603 113.091L56.23 113.066H56.4119L56.5937 113.054V113.382H56.424L56.2664 113.394L56.1088 113.418L55.9634 113.442L55.8179 113.479L55.6725 113.515L55.5391 113.563L55.4058 113.612L55.2846 113.673L55.1634 113.733L55.0543 113.806L54.9452 113.879L54.8482 113.963L54.7513 114.048L54.6543 114.133L54.5694 114.23L54.4846 114.327L54.4119 114.436L54.3391 114.545L54.2785 114.654L54.2179 114.776L54.1573 114.897L54.1088 115.018L54.0603 115.139L54.024 115.273L53.9876 115.406L53.9634 115.539L53.9391 115.673L53.9149 115.818V115.963L53.8906 116.109V116.254H53.8785ZM56.5816 119.066V119.394H56.3997L56.23 119.382L56.0603 119.357L55.8906 119.333L55.7331 119.297L55.5755 119.248L55.43 119.2L55.2846 119.139L55.1513 119.079L55.0179 119.006L54.8967 118.933L54.7755 118.848L54.6543 118.763L54.5452 118.666L54.4361 118.57L54.3391 118.46L54.2422 118.351L54.1573 118.23L54.0725 118.109L53.9997 117.988L53.927 117.854L53.8664 117.721L53.8058 117.588L53.7573 117.454L53.7088 117.309L53.6725 117.163L53.6361 117.018L53.6119 116.873L53.5876 116.727V116.57L53.5634 116.412V116.254H53.8664V116.4L53.8785 116.545V116.679L53.9149 116.812L53.9391 116.945L53.9755 117.079L54.0119 117.212L54.0482 117.345L54.0967 117.466L54.1452 117.588L54.2058 117.709L54.2664 117.818L54.327 117.927L54.3997 118.036L54.4725 118.133L54.5573 118.23L54.6422 118.327L54.7391 118.412L54.8361 118.497L54.9331 118.582L55.0422 118.654L55.1513 118.727L55.2725 118.788L55.3937 118.848L55.527 118.897L55.6603 118.945L55.7937 118.982L55.9391 119.018L56.0846 119.042L56.2422 119.066H56.3997L56.5694 119.079L56.5816 119.066ZM58.727 118.242L58.5088 118.485H58.727L58.6664 118.533L58.6058 118.582L58.5452 118.63L58.4846 118.679L58.424 118.727L58.3634 118.776L58.3028 118.824L58.2422 118.873L58.1816 118.909L58.1209 118.945L58.0603 118.982L57.9997 119.018L57.9391 119.054L57.8664 119.091L57.7937 119.127L57.721 119.151L57.6482 119.176L57.5755 119.2L57.5028 119.224L57.43 119.248L57.3573 119.273L57.2846 119.297H57.2119L57.1391 119.333H57.0664L56.9937 119.357H56.921L56.8482 119.37H56.7755H56.7028H56.63H56.5573V119.042H56.6179H56.6785H56.7391H56.7997H56.8603L56.921 119.03H56.9816L57.0422 119.006H57.1028L57.1634 118.982H57.224L57.2846 118.945L57.3452 118.921L57.4058 118.897L57.4664 118.873L57.527 118.848L57.5876 118.824L57.6482 118.8L57.7088 118.776L57.7694 118.739L57.83 118.703L57.8906 118.666L57.9513 118.63L58.0119 118.594L58.0725 118.557L58.1331 118.521L58.1937 118.485L58.2422 118.436L58.2907 118.388L58.3391 118.339L58.3876 118.291L58.4361 118.242H58.6543H58.727ZM58.5088 118.242L58.6179 118.133L58.727 118.242H58.5088ZM58.8482 118.812L58.5088 118.485L58.727 118.242L59.0664 118.57V118.8H58.8482V118.812ZM59.0664 118.57L59.1876 118.679L59.0785 118.8V118.57H59.0664Z" fill="#373435"/>
<path d="M58.9716 118.689C58.317 119.368 57.4564 119.708 56.5958 119.708C54.4019 119.708 53.2504 118.108 53.2504 116.265C53.2261 114.447 54.3655 112.75 56.5958 112.75C57.4564 112.75 58.317 113.089 58.9716 113.768L58.6322 114.083C58.0746 113.502 57.3352 113.223 56.608 113.223C54.7049 113.223 53.7352 114.629 53.7473 116.253C53.7716 117.853 54.7292 119.235 56.608 119.235C57.3473 119.235 58.0867 118.944 58.6443 118.374L58.9837 118.702L58.9716 118.689Z" fill="#373435"/>
<path d="M66.7774 116.135H62.9592V115.808H66.7774L66.935 115.965L66.7774 116.123V116.135ZM66.7774 115.808H66.935V115.965L66.7774 115.808ZM66.6198 116.45V115.977H66.935V116.45L66.7774 116.608L66.6198 116.45ZM66.935 116.45V116.608H66.7774L66.935 116.45ZM62.9592 116.293H66.7774V116.62H62.9592L62.8017 116.462L62.9592 116.305V116.293ZM62.8017 116.45V116.293H62.9592L62.8017 116.45ZM62.8017 119.129V116.45H63.1168V119.129L62.9592 119.287L62.8017 119.129ZM62.9592 119.287H62.8017V119.129L62.9592 119.287ZM67.0683 119.287H62.9592V118.959H67.0683L67.2259 119.117L67.0683 119.274V119.287ZM67.0683 118.959H67.2259V119.117L67.0683 118.959ZM66.9108 119.626V119.117H67.2259V119.626L67.0683 119.784L66.9108 119.626ZM67.2259 119.626V119.784H67.0683L67.2259 119.626ZM62.4623 119.468H67.0683V119.796H62.4623L62.3047 119.638L62.4623 119.48V119.468ZM62.4623 119.796H62.3047V119.638L62.4623 119.796ZM62.6198 112.826V119.638H62.3047V112.826L62.4623 112.668L62.6198 112.826ZM62.3047 112.826V112.668H62.4623L62.3047 112.826ZM66.9592 112.984H62.4623V112.656H66.9592L67.1168 112.814L66.9592 112.971V112.984ZM66.9592 112.656H67.1168V112.814L66.9592 112.656ZM66.8017 113.311V112.814H67.1168V113.311L66.9592 113.468L66.8017 113.311ZM67.1168 113.311V113.468H66.9592L67.1168 113.311ZM62.9592 113.153H66.9592V113.48H62.9592L62.8017 113.323L62.9592 113.165V113.153ZM62.8017 113.311V113.153H62.9592L62.8017 113.311ZM62.8017 115.953V113.311H63.1168V115.953L62.9592 116.111L62.8017 115.953ZM62.9592 116.111H62.8017V115.953L62.9592 116.111Z" fill="#373435"/>
<path d="M62.9575 115.972H66.7757V116.445H62.9575V119.123H67.0787V119.632H62.4727V112.82H66.9575V113.317H62.9575V115.972Z" fill="#373435"/>
<path d="M75.3334 117.053V112.822H75.6485V117.053H75.3334ZM70.3516 117.053H70.6667V117.356L70.7152 117.647L70.7758 117.913L70.8607 118.156L70.9697 118.386L71.091 118.592L71.2364 118.774L71.394 118.944L71.5637 119.089L71.7455 119.21L71.9394 119.319L72.1455 119.404L72.3516 119.477L72.5697 119.525L72.7879 119.55H73.0061H73.2243L73.4425 119.525L73.6607 119.477L73.8667 119.404L74.0728 119.319L74.2667 119.21L74.4485 119.089L74.6182 118.944L74.7758 118.774L74.9213 118.592L75.0425 118.386L75.1516 118.156L75.2364 117.913L75.297 117.647L75.3334 117.356V117.053H75.6607V117.392L75.6 117.707L75.5273 118.01L75.4303 118.289L75.3091 118.544L75.1637 118.774L75.0061 118.98L74.8243 119.174L74.6303 119.344L74.4243 119.489L74.2061 119.61L73.9758 119.707L73.7455 119.78L73.5031 119.841L73.2607 119.877H73.0182H72.7758L72.5334 119.841L72.291 119.78L72.0607 119.707L71.8303 119.61L71.6122 119.489L71.4061 119.344L71.2122 119.174L71.0303 118.98L70.8728 118.762L70.7273 118.532L70.6061 118.277L70.5091 117.998L70.4364 117.695L70.3879 117.38V117.041H70.3758L70.3516 117.053ZM70.6667 112.822V117.053H70.3516V112.822L70.5091 112.665L70.6667 112.822ZM70.3516 112.822V112.665H70.5091L70.3516 112.822ZM70.994 112.98H70.497V112.653H70.994L71.1516 112.81L70.994 112.968V112.98ZM70.994 112.653H71.1516V112.81L70.994 112.653ZM70.8364 117.041V112.81H71.1516V117.041H70.8364ZM74.8364 117.041H75.1516V117.319L75.1031 117.586L75.0425 117.829L74.9697 118.059L74.8728 118.265L74.7516 118.459L74.6182 118.641L74.4728 118.798L74.3152 118.932L74.1455 119.053L73.9637 119.15L73.7819 119.235L73.5879 119.295L73.394 119.344L73.2 119.368H72.994H72.7879L72.594 119.344L72.4 119.295L72.2061 119.235L72.0243 119.15L71.8425 119.053L71.6728 118.932L71.5152 118.798L71.3697 118.641L71.2364 118.459L71.1152 118.265L71.0182 118.047L70.9455 117.816L70.8849 117.574L70.8485 117.307V117.029H71.1516V117.283L71.2 117.513L71.2485 117.732L71.3213 117.925L71.4061 118.107L71.5031 118.277L71.6122 118.422L71.7334 118.556L71.8667 118.677L72.0122 118.774L72.1697 118.859L72.3273 118.932L72.497 118.992L72.6667 119.029L72.8364 119.053H73.0061H73.1758L73.3455 119.029L73.5152 118.992L73.6849 118.932L73.8425 118.859L74 118.774L74.1455 118.677L74.2788 118.556L74.4 118.422L74.5091 118.277L74.6061 118.107L74.691 117.925L74.7637 117.732L74.8122 117.513L74.8485 117.283V117.029L74.8364 117.041ZM75.1516 112.81V117.041H74.8364V112.81L74.994 112.653L75.1516 112.81ZM74.8364 112.81V112.653H74.994L74.8364 112.81ZM75.4788 112.968H74.9819V112.641H75.4788L75.6364 112.798L75.4788 112.956V112.968ZM75.4788 112.641H75.6364V112.798L75.4788 112.641Z" fill="#373435"/>
<path d="M75.4896 112.82V117.051C75.4896 120.614 70.5078 120.614 70.5078 117.051V112.82H71.0048V117.051C71.0048 119.972 75.0048 119.972 75.0048 117.051V112.82H75.5018H75.4896Z" fill="#373435"/>
<path d="M78.681 113.137H81.0325V113.464H78.681L78.5234 113.306L78.681 113.149V113.137ZM78.681 113.464H78.5234V113.306L78.681 113.464ZM78.8386 112.834V113.306H78.5234V112.834L78.681 112.676L78.8386 112.834ZM78.5234 112.834V112.676H78.681L78.5234 112.834ZM83.8931 112.991H78.681V112.664H83.8931L84.0507 112.822L83.8931 112.979V112.991ZM83.8931 112.664H84.0507V112.822L83.8931 112.664ZM83.7356 113.294V112.822H84.0507V113.294L83.8931 113.452L83.7356 113.294ZM84.0507 113.294V113.452H83.8931L84.0507 113.294ZM81.5416 113.137H83.8931V113.464H81.5416L81.384 113.306L81.5416 113.149V113.137ZM81.384 113.294V113.137H81.5416L81.384 113.294ZM81.384 119.622V113.294H81.6992V119.622L81.5416 119.779L81.384 119.622ZM81.6992 119.622V119.779H81.5416L81.6992 119.622ZM81.0447 119.464H81.5416V119.791H81.0447L80.8871 119.634L81.0447 119.476V119.464ZM81.0447 119.791H80.8871V119.634L81.0447 119.791ZM81.2022 113.294V119.622H80.8871V113.294L81.0447 113.137L81.2022 113.294ZM81.0447 113.137H81.2022V113.294L81.0447 113.137Z" fill="#373435"/>
<path d="M81.0312 113.309H78.6797V112.836H83.8918V113.309H81.5403V119.636H81.0312V113.309Z" fill="#373435"/>
<path d="M87.6737 112.991H87.1767V112.664H87.6737L87.8313 112.822L87.6737 112.979V112.991ZM87.6737 112.664H87.8313V112.822L87.6737 112.664ZM87.5161 119.634V112.822H87.8313V119.634L87.6737 119.791L87.5161 119.634ZM87.8313 119.634V119.791H87.6737L87.8313 119.634ZM87.1888 119.476H87.6858V119.803H87.1888L87.0312 119.646L87.1888 119.488V119.476ZM87.1888 119.803H87.0312V119.646L87.1888 119.803ZM87.3464 112.834V119.646H87.0312V112.834L87.1888 112.676L87.3464 112.834ZM87.0312 112.834V112.676H87.1888L87.0312 112.834Z" fill="#373435"/>
<path d="M87.1758 112.82H87.6728V119.632H87.1758V112.82Z" fill="#373435"/>
<path d="M94.4374 119.879V119.551H94.5102H94.5829H94.6556H94.7283H94.8011L94.8738 119.527H94.9465L95.0192 119.503H95.092L95.1647 119.466L95.2374 119.442L95.3102 119.418L95.3829 119.394L95.4556 119.37L95.5283 119.345L95.6011 119.321L95.6738 119.285L95.7465 119.248L95.8193 119.212L95.892 119.176L95.9647 119.139L96.0374 119.103L96.1102 119.054L96.1829 119.006L96.2435 118.957L96.3041 118.909L96.3647 118.86L96.4253 118.812L96.4859 118.763L96.5465 118.703L96.6071 118.642L96.6677 118.582L96.8859 118.812L96.8253 118.873L96.7647 118.933L96.692 118.994L96.6192 119.054L96.5465 119.115L96.4738 119.176L96.4011 119.224L96.3283 119.273L96.2556 119.321L96.1829 119.37L96.1102 119.418L96.0374 119.466L95.9647 119.503L95.892 119.539L95.8193 119.576L95.7344 119.612L95.6496 119.648L95.5647 119.685L95.4798 119.709L95.395 119.733L95.3102 119.757L95.2253 119.782L95.1405 119.806H95.0556L94.9708 119.842H94.8859L94.8011 119.866H94.7162L94.6314 119.879H94.5465H94.4617H94.3768H94.4374ZM90.9344 116.279H91.2495V116.448L91.2617 116.618V116.776L91.298 116.933L91.3223 117.091L91.3586 117.248L91.395 117.394L91.4435 117.539L91.492 117.685L91.5526 117.83L91.6132 117.963L91.6859 118.097L91.7586 118.23L91.8435 118.351L91.9283 118.473L92.0253 118.582L92.1223 118.691L92.2314 118.8L92.3405 118.897L92.4617 118.994L92.5829 119.079L92.7162 119.163L92.8495 119.236L92.995 119.309L93.1526 119.37L93.3102 119.418L93.4799 119.466L93.6496 119.503L93.8314 119.539L94.0132 119.563H94.2071L94.4011 119.576V119.903H94.195L93.9889 119.879L93.795 119.854L93.6011 119.818L93.4192 119.782L93.2374 119.733L93.0677 119.673L92.898 119.612L92.7405 119.539L92.5829 119.454L92.4374 119.37L92.292 119.273L92.1586 119.176L92.0253 119.066L91.9041 118.945L91.795 118.824L91.6859 118.691L91.5889 118.557L91.492 118.424L91.4071 118.279L91.3223 118.133L91.2495 117.988L91.1889 117.83L91.1283 117.673L91.0799 117.515L91.0314 117.345L90.995 117.176L90.9586 117.006L90.9344 116.836V116.666L90.9102 116.485V116.303L90.9344 116.279ZM94.4495 112.594V112.921H94.2556L94.0617 112.945L93.8798 112.97L93.698 113.006L93.5283 113.042L93.3586 113.091L93.2011 113.151L93.0435 113.212L92.898 113.285L92.7526 113.357L92.6193 113.442L92.4859 113.527L92.3647 113.624L92.2435 113.721L92.1344 113.83L92.0374 113.939L91.9405 114.06L91.8556 114.182L91.7708 114.315L91.698 114.448L91.6253 114.582L91.5647 114.727L91.5041 114.873L91.4556 115.018L91.4071 115.163L91.3708 115.321L91.3344 115.479L91.3102 115.636L91.2859 115.794V115.951L91.2617 116.109V116.266H90.9465V116.085V115.915V115.745L90.9829 115.576L91.0071 115.406L91.0435 115.236L91.092 115.066L91.1405 114.897L91.2011 114.739L91.2617 114.582L91.3344 114.424L91.4192 114.279L91.5041 114.133L91.6011 113.988L91.698 113.854L91.8071 113.721L91.9162 113.6L92.0374 113.479L92.1708 113.37L92.3041 113.26L92.4495 113.163L92.595 113.066L92.7526 112.982L92.9102 112.909L93.0799 112.836L93.2496 112.776L93.4314 112.727L93.6253 112.679L93.8192 112.642L94.0253 112.618H94.2314L94.4495 112.594ZM96.9223 113.903L96.7162 113.66V113.903L96.6435 113.842L96.5829 113.782L96.5223 113.721L96.4617 113.673L96.4011 113.624L96.3405 113.576L96.2799 113.527L96.2192 113.479L96.1465 113.43L96.0738 113.382L96.0011 113.345L95.9283 113.309L95.8556 113.273L95.7829 113.236L95.7102 113.2L95.6374 113.163L95.5647 113.139L95.492 113.115L95.4192 113.091L95.3465 113.066L95.2738 113.042L95.2011 113.018L95.1283 112.994H95.0556L94.9829 112.957H94.9102L94.8374 112.933H94.7647L94.692 112.921H94.6192H94.5465H94.4738V112.594H94.5586H94.6435H94.7283H94.8132H94.898L94.9829 112.618H95.0677L95.1526 112.642H95.2374L95.3223 112.679L95.4071 112.703L95.492 112.727L95.5768 112.751L95.6617 112.776L95.7465 112.812L95.8314 112.848L95.9162 112.885L95.9889 112.921L96.0617 112.957L96.1344 112.994L96.2071 113.042L96.2799 113.091L96.3526 113.139L96.4253 113.188L96.498 113.236L96.5708 113.285L96.6435 113.345L96.7162 113.406L96.7889 113.466L96.8617 113.527L96.9223 113.588L96.9829 113.648V113.891L96.9223 113.903ZM96.9223 113.66L97.0435 113.782L96.9223 113.891V113.648V113.66ZM96.3647 113.963L96.7041 113.648L96.9102 113.891L96.5708 114.206H96.3647V113.963ZM96.5708 114.206L96.4617 114.303L96.3647 114.194H96.5708V114.206ZM94.4374 113.382V113.054H94.5102H94.5829H94.6556H94.7283H94.8011L94.8738 113.066H94.9465L95.0192 113.091H95.092L95.1647 113.127L95.2374 113.151L95.3102 113.176L95.3829 113.2L95.4556 113.224L95.5283 113.248L95.6011 113.273L95.6738 113.297L95.7465 113.333L95.8071 113.37L95.8677 113.406L95.9283 113.442L95.9889 113.479L96.0495 113.515L96.1102 113.551L96.1708 113.6L96.2314 113.648L96.292 113.697L96.3526 113.745L96.4132 113.794L96.4738 113.842L96.5344 113.903L96.595 113.963L96.3768 114.194L96.3283 114.145L96.2799 114.097L96.2314 114.048L96.1829 114L96.1344 113.951L96.0738 113.903L96.0132 113.866L95.9526 113.83L95.892 113.794L95.8314 113.757L95.7708 113.721L95.7102 113.685L95.6496 113.648L95.5889 113.624L95.5283 113.6L95.4677 113.576L95.4071 113.551L95.3465 113.527L95.2859 113.503L95.2253 113.479L95.1647 113.454H95.1041L95.0435 113.418H94.9829L94.9223 113.394H94.8617L94.8011 113.37H94.7405L94.6799 113.357H94.6192H94.5586H94.498L94.4374 113.382ZM91.7223 116.254H91.4071V116.097V115.939V115.782L91.4435 115.624L91.4677 115.466L91.5041 115.321L91.5405 115.176L91.5889 115.03L91.6374 114.885L91.698 114.751L91.7586 114.618L91.8314 114.485L91.9041 114.363L91.9889 114.242L92.0738 114.121L92.1708 114.012L92.2677 113.903L92.3768 113.806L92.4859 113.709L92.6071 113.612L92.7283 113.527L92.8617 113.442L92.995 113.37L93.1405 113.309L93.2859 113.248L93.4314 113.2L93.5889 113.151L93.7465 113.115L93.9162 113.091L94.0859 113.066H94.2677L94.4495 113.054V113.382H94.2799L94.1223 113.394L93.9647 113.418L93.8192 113.442L93.6738 113.479L93.5283 113.515L93.395 113.563L93.2617 113.612L93.1405 113.673L93.0192 113.733L92.9102 113.806L92.8011 113.879L92.7041 113.963L92.6071 114.048L92.5102 114.133L92.4253 114.23L92.3405 114.327L92.2677 114.436L92.195 114.545L92.1344 114.654L92.0738 114.776L92.0132 114.897L91.9647 115.018L91.9162 115.139L91.8799 115.273L91.8435 115.406L91.8192 115.539L91.795 115.673L91.7708 115.818V115.963L91.7465 116.109V116.254H91.7223ZM94.4253 119.066V119.394H94.2435L94.0738 119.382L93.9041 119.357L93.7344 119.333L93.5768 119.297L93.4192 119.248L93.2738 119.2L93.1283 119.139L92.995 119.079L92.8617 119.006L92.7405 118.933L92.6193 118.848L92.498 118.763L92.3889 118.666L92.2798 118.57L92.1829 118.46L92.0859 118.351L92.0011 118.23L91.9162 118.109L91.8435 117.988L91.7708 117.854L91.7102 117.721L91.6496 117.588L91.6011 117.454L91.5526 117.309L91.5162 117.163L91.4799 117.018L91.4556 116.873L91.4314 116.727V116.57L91.4071 116.412V116.254H91.7102V116.4L91.7223 116.545V116.679L91.7586 116.812L91.7829 116.945L91.8192 117.079L91.8556 117.212L91.892 117.345L91.9405 117.466L91.9889 117.588L92.0496 117.709L92.1102 117.818L92.1708 117.927L92.2435 118.036L92.3162 118.133L92.4011 118.23L92.4859 118.327L92.5829 118.412L92.6799 118.497L92.7768 118.582L92.8859 118.654L92.995 118.727L93.1162 118.788L93.2374 118.848L93.3708 118.897L93.5041 118.945L93.6374 118.982L93.7829 119.018L93.9283 119.042L94.0859 119.066H94.2435L94.4132 119.079L94.4253 119.066ZM96.5708 118.242L96.3526 118.485H96.5708L96.5102 118.533L96.4496 118.582L96.3889 118.63L96.3283 118.679L96.2677 118.727L96.2071 118.776L96.1465 118.824L96.0859 118.873L96.0253 118.909L95.9647 118.945L95.9041 118.982L95.8435 119.018L95.7829 119.054L95.7102 119.091L95.6374 119.127L95.5647 119.151L95.492 119.176L95.4192 119.2L95.3465 119.224L95.2738 119.248L95.2011 119.273L95.1283 119.297H95.0556L94.9829 119.333H94.9102L94.8374 119.357H94.7647L94.692 119.37H94.6192H94.5465H94.4738H94.4011V119.042H94.4617H94.5223H94.5829H94.6435H94.7041L94.7647 119.03H94.8253L94.8859 119.006H94.9465L95.0071 118.982H95.0677L95.1283 118.945L95.1889 118.921L95.2496 118.897L95.3102 118.873L95.3708 118.848L95.4314 118.824L95.492 118.8L95.5526 118.776L95.6132 118.739L95.6738 118.703L95.7344 118.666L95.795 118.63L95.8556 118.594L95.9162 118.557L95.9768 118.521L96.0253 118.485L96.0738 118.436L96.1223 118.388L96.1708 118.339L96.2192 118.291L96.2677 118.242H96.4859H96.5708ZM96.3526 118.242L96.4617 118.133L96.5708 118.242H96.3526ZM96.692 118.812L96.3526 118.485L96.5708 118.242L96.9102 118.57V118.8H96.692V118.812ZM96.9102 118.57L97.0314 118.679L96.9223 118.8V118.57H96.9102Z" fill="#373435"/>
<path d="M96.7997 118.689C96.1452 119.368 95.2846 119.708 94.424 119.708C92.23 119.708 91.0785 118.108 91.0785 116.265C91.0543 114.447 92.1937 112.75 94.424 112.75C95.2846 112.75 96.1452 113.089 96.7997 113.768L96.4603 114.083C95.9027 113.502 95.1634 113.223 94.4361 113.223C92.5331 113.223 91.5634 114.629 91.5755 116.253C91.5997 117.853 92.5573 119.235 94.4361 119.235C95.1755 119.235 95.9149 118.944 96.4724 118.374L96.8118 118.702L96.7997 118.689Z" fill="#373435"/>
<path d="M102.681 113.27L104.426 117.416L104.147 117.549L102.402 113.403V113.27H102.681ZM102.402 113.27L102.547 112.931L102.693 113.27H102.414H102.402ZM100.657 117.416L102.402 113.27L102.681 113.403L100.935 117.549L100.79 117.646L100.644 117.416H100.657ZM100.802 117.646H100.56L100.657 117.416L100.802 117.646ZM104.305 117.646H100.802V117.319H104.305L104.451 117.416L104.305 117.646ZM104.451 117.416L104.547 117.646H104.305L104.451 117.416ZM104.644 117.9L105.36 119.573L105.081 119.706L104.366 118.034L104.511 117.803L104.657 117.9H104.644ZM104.499 117.803H104.596L104.632 117.9L104.487 117.803H104.499ZM100.608 117.803H104.499V118.131H100.608L100.463 117.9L100.608 117.803ZM100.463 117.9L100.499 117.803H100.596L100.451 117.9H100.463ZM99.7596 119.573L100.463 117.9L100.741 118.034L100.038 119.706L99.893 119.803L99.7475 119.573H99.7596ZM100.038 119.706L100.002 119.803H99.9051L100.051 119.706H100.038ZM99.3596 119.476H99.9051V119.803H99.3596L99.2142 119.573L99.3596 119.476ZM99.3596 119.803H99.1172L99.2142 119.573L99.3596 119.803ZM102.426 112.894L99.5051 119.706L99.2263 119.573L102.147 112.761L102.293 112.664L102.438 112.894H102.426ZM102.147 112.761L102.184 112.664H102.281L102.135 112.761H102.147ZM102.838 112.991H102.293V112.664H102.838L102.984 112.761L102.838 112.991ZM102.838 112.664H102.935L102.972 112.761L102.826 112.664H102.838ZM105.614 119.706L102.693 112.894L102.972 112.761L105.893 119.573L105.747 119.803L105.602 119.706H105.614ZM105.893 119.573L105.99 119.803H105.747L105.893 119.573ZM105.214 119.476H105.76V119.803H105.214L105.069 119.706L105.214 119.476ZM105.214 119.803H105.117L105.081 119.706L105.226 119.803H105.214Z" fill="#373435"/>
<path d="M104.281 117.475L102.536 113.329L100.79 117.475H104.294H104.281ZM105.19 119.632L104.475 117.96H100.584L99.8814 119.632H99.3359L102.257 112.82H102.803L105.724 119.632H105.178H105.19Z" fill="#373435"/>
<path d="M109.333 119.141V112.826H109.648V119.141L109.491 119.299L109.333 119.141ZM109.491 119.299H109.333V119.141L109.491 119.299ZM113.151 119.299H109.491V118.971H113.151L113.309 119.129L113.151 119.287V119.299ZM113.151 118.971H113.309V119.129L113.151 118.971ZM112.994 119.626V119.129H113.309V119.626L113.151 119.784L112.994 119.626ZM113.309 119.626V119.784H113.151L113.309 119.626ZM108.982 119.468H113.151V119.796H108.982L108.824 119.638L108.982 119.48V119.468ZM108.982 119.796H108.824V119.638L108.982 119.796ZM109.139 112.826V119.638H108.824V112.826L108.982 112.668L109.139 112.826ZM108.824 112.826V112.668H108.982L108.824 112.826ZM109.479 112.984H108.982V112.656H109.479L109.636 112.814L109.479 112.971V112.984ZM109.479 112.656H109.636V112.814L109.479 112.656Z" fill="#373435"/>
<path d="M109.489 112.82V119.135H113.162V119.632H108.992V112.82H109.489Z" fill="#373435"/>
<path d="M118.677 113.382V113.054H118.75H118.823H118.896H118.968H119.041H119.114H119.187L119.259 113.066H119.332L119.405 113.091H119.477L119.55 113.115L119.623 113.139L119.696 113.163L119.768 113.188L119.841 113.212L119.914 113.236L119.987 113.273L120.059 113.309L120.12 113.345L120.18 113.382L120.241 113.418L120.302 113.466L120.362 113.515L120.423 113.563L120.483 113.624L120.544 113.685L120.605 113.745L120.653 113.818L120.702 113.891L120.75 113.963L120.799 114.036L120.532 114.206L120.496 114.133L120.447 114.073L120.399 114.012L120.35 113.951L120.302 113.903L120.253 113.854L120.205 113.806L120.156 113.757L120.108 113.721L120.059 113.685L120.011 113.648L119.95 113.612L119.89 113.576L119.829 113.551L119.768 113.527L119.708 113.503L119.647 113.479L119.587 113.454H119.526L119.465 113.418H119.405L119.344 113.394H119.283L119.223 113.37H119.162L119.102 113.357H119.041H118.98H118.92H118.847H118.774H118.702L118.677 113.382ZM116.859 114.594H116.544V114.485L116.556 114.376L116.58 114.266L116.605 114.17L116.641 114.073L116.677 113.988L116.726 113.903L116.774 113.818L116.835 113.745L116.896 113.673L116.956 113.612L117.029 113.551L117.102 113.491L117.174 113.442L117.247 113.394L117.332 113.345L117.417 113.309L117.502 113.273L117.587 113.236L117.671 113.2L117.756 113.176L117.841 113.151L117.926 113.127L118.011 113.103H118.096L118.18 113.079H118.265L118.35 113.054H118.435H118.52H118.593H118.665V113.382H118.593H118.52H118.447H118.374H118.302L118.229 113.406H118.156L118.083 113.43H118.011L117.938 113.466L117.865 113.491L117.793 113.515L117.72 113.539L117.647 113.563L117.574 113.6L117.502 113.636L117.429 113.673L117.368 113.709L117.308 113.757L117.247 113.806L117.199 113.854L117.15 113.903L117.102 113.951L117.065 114.012L117.029 114.073L116.993 114.133L116.968 114.194L116.944 114.266L116.92 114.339V114.412L116.896 114.497V114.582L116.859 114.594ZM118.726 115.721L118.665 116.036L118.568 116.012L118.471 115.988L118.374 115.963L118.277 115.939L118.18 115.915L118.083 115.891L117.987 115.866L117.89 115.842L117.805 115.818L117.72 115.794L117.635 115.77L117.55 115.745L117.465 115.709L117.38 115.673L117.308 115.636L117.235 115.6L117.162 115.563L117.09 115.527L117.029 115.479L116.968 115.43L116.908 115.382L116.847 115.321L116.799 115.26L116.75 115.2L116.702 115.139L116.665 115.066L116.629 114.994L116.605 114.921L116.58 114.836V114.751L116.556 114.666V114.582H116.859V114.654V114.715V114.776L116.883 114.836V114.885L116.92 114.933L116.944 114.982L116.968 115.03L117.005 115.079L117.041 115.115L117.077 115.151L117.126 115.188L117.174 115.224L117.223 115.26L117.283 115.297L117.344 115.333L117.405 115.37L117.477 115.394L117.55 115.418L117.623 115.442L117.696 115.466L117.78 115.491L117.865 115.515L117.95 115.539L118.035 115.563L118.12 115.588L118.217 115.612L118.314 115.636L118.411 115.66L118.508 115.685L118.605 115.709L118.702 115.733L118.726 115.721ZM121.417 117.842H121.102V117.721L121.09 117.6V117.491L121.053 117.394L121.029 117.297L120.993 117.212L120.956 117.127L120.908 117.042L120.859 116.97L120.799 116.897L120.738 116.836L120.677 116.776L120.605 116.715L120.532 116.654L120.459 116.606L120.374 116.557L120.29 116.509L120.205 116.46L120.108 116.424L120.011 116.388L119.914 116.351L119.817 116.315L119.708 116.279L119.599 116.242L119.49 116.218L119.38 116.194L119.271 116.17L119.162 116.145L119.041 116.121L118.92 116.097L118.799 116.073L118.677 116.048L118.738 115.733L118.859 115.757L118.98 115.782L119.102 115.806L119.223 115.83L119.344 115.854L119.465 115.879L119.587 115.903L119.696 115.927L119.805 115.963L119.914 116L120.023 116.036L120.132 116.073L120.241 116.109L120.35 116.157L120.447 116.206L120.544 116.254L120.641 116.315L120.738 116.376L120.823 116.436L120.908 116.509L120.993 116.582L121.065 116.666L121.138 116.751L121.199 116.848L121.259 116.945L121.308 117.054L121.356 117.163L121.393 117.285L121.417 117.406L121.441 117.539V117.673L121.453 117.818L121.417 117.842ZM118.69 119.915V119.588H118.787H118.883H118.993L119.102 119.576H119.211L119.32 119.551H119.429L119.538 119.515L119.647 119.491L119.756 119.466L119.853 119.442L119.95 119.406L120.047 119.37L120.144 119.333L120.241 119.285L120.326 119.236L120.411 119.188L120.496 119.127L120.58 119.066L120.653 119.006L120.726 118.933L120.787 118.86L120.847 118.788L120.908 118.703L120.956 118.618L121.005 118.521L121.041 118.424L121.077 118.315L121.102 118.206L121.126 118.085V117.963L121.138 117.83H121.453V117.988V118.133L121.417 118.266L121.38 118.4L121.344 118.521L121.296 118.642L121.235 118.751L121.174 118.86L121.102 118.957L121.029 119.054L120.944 119.139L120.859 119.224L120.774 119.297L120.677 119.37L120.58 119.43L120.483 119.491L120.387 119.551L120.277 119.6L120.168 119.648L120.059 119.685L119.95 119.721L119.841 119.757L119.732 119.782L119.623 119.806L119.514 119.83H119.405L119.296 119.866H119.187L119.077 119.891H118.968H118.859H118.75L118.69 119.915ZM115.95 118.133L116.083 118.424L116.156 118.206L116.205 118.291L116.253 118.376L116.302 118.46L116.362 118.545L116.423 118.618L116.483 118.691L116.544 118.763L116.605 118.836L116.677 118.897L116.75 118.957L116.823 119.018L116.896 119.079L116.968 119.127L117.053 119.176L117.138 119.224L117.223 119.273L117.308 119.309L117.393 119.345L117.477 119.382L117.562 119.418L117.647 119.442L117.744 119.466L117.841 119.491L117.938 119.515L118.035 119.539H118.132L118.229 119.576H118.326L118.423 119.6H118.52H118.617H118.714V119.927H118.617H118.52H118.423L118.326 119.915H118.229L118.132 119.891H118.035L117.938 119.854L117.841 119.83L117.744 119.806L117.647 119.782L117.55 119.745L117.453 119.709L117.356 119.673L117.259 119.636L117.162 119.588L117.065 119.539L116.968 119.491L116.883 119.43L116.799 119.37L116.714 119.309L116.629 119.248L116.544 119.176L116.459 119.103L116.387 119.03L116.314 118.945L116.241 118.86L116.168 118.776L116.108 118.679L116.047 118.582L115.987 118.485L115.938 118.388L116.011 118.17L115.95 118.133ZM115.877 118.351L115.805 118.206L115.95 118.133L115.877 118.351ZM116.532 118.194L116.083 118.424L115.95 118.133L116.399 117.903L116.605 117.976L116.532 118.194ZM116.399 117.903L116.532 117.83L116.605 117.976L116.399 117.903ZM118.69 119.115V119.442H118.605H118.52H118.435L118.35 119.43H118.265L118.18 119.406H118.096L118.011 119.37L117.926 119.345L117.841 119.321L117.756 119.297L117.671 119.273L117.587 119.236L117.502 119.2L117.417 119.163L117.332 119.127L117.247 119.091L117.174 119.042L117.102 118.994L117.029 118.945L116.956 118.897L116.883 118.836L116.811 118.776L116.738 118.715L116.677 118.654L116.617 118.594L116.556 118.521L116.496 118.448L116.447 118.376L116.399 118.303L116.35 118.218L116.302 118.133L116.58 117.988L116.617 118.06L116.653 118.133L116.69 118.194L116.738 118.254L116.787 118.315L116.835 118.376L116.883 118.436L116.944 118.497L117.005 118.545L117.065 118.594L117.126 118.642L117.187 118.691L117.247 118.739L117.32 118.776L117.393 118.812L117.465 118.848L117.538 118.885L117.611 118.921L117.683 118.957L117.756 118.982L117.829 119.006L117.902 119.03L117.974 119.054L118.047 119.079H118.12L118.193 119.115H118.265L118.338 119.139H118.411L118.483 119.151H118.556H118.629L118.69 119.115ZM120.605 117.842H120.92V117.963L120.908 118.085L120.883 118.194L120.859 118.303L120.823 118.4L120.787 118.497L120.738 118.582L120.69 118.666L120.629 118.751L120.568 118.824L120.496 118.897L120.423 118.957L120.35 119.018L120.265 119.066L120.18 119.115L120.096 119.163L120.011 119.2L119.926 119.236L119.841 119.273L119.756 119.297L119.659 119.321L119.562 119.345L119.465 119.37H119.368L119.283 119.406H119.199L119.114 119.43H119.029L118.944 119.442H118.859H118.774H118.69V119.115H118.762H118.835H118.908H118.993H119.077L119.162 119.103H119.247L119.332 119.079H119.417L119.502 119.042L119.587 119.018L119.671 118.994L119.756 118.97L119.829 118.945L119.902 118.909L119.974 118.873L120.047 118.836L120.12 118.8L120.18 118.751L120.241 118.703L120.302 118.654L120.35 118.606L120.399 118.545L120.447 118.485L120.483 118.424L120.52 118.351L120.556 118.279L120.58 118.206L120.605 118.121V118.036L120.629 117.939V117.842H120.605ZM118.593 116.545L118.653 116.23L118.75 116.254L118.847 116.279L118.944 116.303L119.041 116.327L119.138 116.351L119.235 116.376L119.332 116.4L119.429 116.424L119.526 116.448L119.623 116.473L119.72 116.497L119.817 116.533L119.902 116.57L119.987 116.606L120.071 116.642L120.156 116.679L120.241 116.727L120.314 116.776L120.387 116.824L120.459 116.873L120.52 116.933L120.58 116.994L120.641 117.054L120.69 117.127L120.738 117.2L120.787 117.285L120.823 117.37L120.847 117.454L120.871 117.551V117.648L120.896 117.745V117.854H120.593V117.77V117.697V117.624L120.568 117.551L120.544 117.491L120.52 117.43L120.483 117.37L120.447 117.321L120.411 117.273L120.362 117.224L120.314 117.176L120.265 117.127L120.205 117.079L120.144 117.042L120.083 117.006L120.011 116.97L119.938 116.933L119.865 116.897L119.793 116.86L119.708 116.824L119.623 116.8L119.538 116.776L119.453 116.751L119.356 116.727L119.259 116.703L119.162 116.679L119.065 116.654L118.968 116.63L118.871 116.606L118.774 116.582L118.677 116.557L118.58 116.533L118.593 116.545ZM116.059 114.642H116.374V114.751L116.387 114.848V114.945L116.423 115.03L116.447 115.115L116.483 115.188L116.52 115.26L116.556 115.333L116.605 115.394L116.653 115.454L116.714 115.515L116.774 115.576L116.835 115.624L116.908 115.673L116.98 115.721L117.053 115.77L117.138 115.818L117.223 115.854L117.308 115.891L117.405 115.927L117.502 115.963L117.599 116L117.696 116.036L117.793 116.06L117.902 116.085L118.011 116.109L118.12 116.133L118.229 116.157L118.338 116.182L118.447 116.206L118.556 116.23L118.665 116.254L118.605 116.57L118.496 116.545L118.387 116.521L118.277 116.497L118.168 116.473L118.059 116.448L117.95 116.424L117.841 116.4L117.732 116.376L117.623 116.339L117.514 116.303L117.405 116.266L117.308 116.23L117.211 116.194L117.114 116.157L117.017 116.109L116.92 116.06L116.835 116.012L116.75 115.951L116.665 115.891L116.593 115.83L116.52 115.757L116.447 115.685L116.387 115.612L116.326 115.527L116.277 115.442L116.229 115.345L116.193 115.248L116.156 115.139L116.132 115.03L116.108 114.921V114.8L116.096 114.679L116.059 114.642ZM118.69 112.594V112.921H118.593H118.496H118.399L118.302 112.933H118.205L118.108 112.957L118.011 112.982L117.914 113.006L117.817 113.03L117.72 113.054L117.623 113.091L117.526 113.127L117.429 113.163L117.332 113.2L117.247 113.248L117.162 113.297L117.077 113.345L116.993 113.406L116.92 113.466L116.847 113.527L116.787 113.6L116.726 113.673L116.665 113.745L116.617 113.83L116.568 113.915L116.532 114L116.496 114.097L116.471 114.194L116.447 114.303V114.412L116.423 114.521V114.642H116.108V114.497L116.12 114.363L116.144 114.23L116.168 114.109L116.205 113.988L116.253 113.866L116.302 113.757L116.362 113.648L116.423 113.551L116.496 113.454L116.568 113.37L116.653 113.285L116.738 113.212L116.823 113.139L116.92 113.079L117.017 113.018L117.114 112.957L117.211 112.909L117.32 112.86L117.429 112.812L117.538 112.776L117.647 112.739L117.756 112.703L117.865 112.679L117.974 112.654L118.083 112.63H118.193L118.302 112.606H118.411L118.52 112.594H118.629H118.738H118.69ZM121.15 114.048L120.993 113.77L120.944 114L120.883 113.915L120.823 113.83L120.762 113.757L120.702 113.685L120.641 113.612L120.58 113.551L120.52 113.491L120.459 113.43L120.399 113.382L120.338 113.333L120.277 113.285L120.217 113.248L120.156 113.212L120.096 113.176L120.023 113.139L119.95 113.103L119.877 113.079L119.805 113.054L119.732 113.03L119.659 113.006H119.587L119.514 112.97H119.441L119.368 112.945H119.296L119.211 112.921H119.126H119.041H118.956H118.871H118.787H118.702V112.594H118.787H118.871H118.956H119.041H119.126L119.211 112.606H119.296L119.38 112.63H119.465L119.55 112.654H119.635L119.72 112.691L119.805 112.715L119.89 112.739L119.974 112.763L120.059 112.8L120.144 112.836L120.229 112.873L120.302 112.909L120.374 112.957L120.447 113.006L120.52 113.054L120.593 113.115L120.665 113.176L120.738 113.236L120.811 113.309L120.883 113.382L120.956 113.454L121.029 113.539L121.09 113.624L121.15 113.721L121.211 113.818L121.162 114.048H121.15ZM121.199 113.818L121.296 113.963L121.15 114.048L121.199 113.818ZM120.58 114.024L120.993 113.77L121.15 114.048L120.738 114.303L120.532 114.254L120.58 114.024ZM120.738 114.303L120.605 114.388L120.52 114.254L120.726 114.303H120.738Z" fill="#373435"/>
<path d="M120.655 114.14C120.182 113.34 119.418 113.231 118.679 113.219C117.915 113.219 116.703 113.51 116.703 114.601C116.703 115.462 117.6 115.668 118.691 115.886C119.952 116.14 121.248 116.371 121.248 117.837C121.248 119.377 119.758 119.74 118.667 119.74C117.648 119.74 116.497 119.304 116 118.262L116.448 118.031C116.848 118.855 117.867 119.268 118.667 119.268C119.467 119.268 120.739 119.037 120.739 117.825C120.739 116.807 119.673 116.577 118.594 116.371C117.406 116.128 116.182 115.874 116.182 114.625C116.158 113.183 117.588 112.734 118.655 112.734C119.588 112.734 120.4 112.892 121.042 113.886L120.63 114.14H120.655Z" fill="#373435"/>
<path d="M129.88 116.81V113.319H130.195V116.81L130.037 116.968L129.88 116.81ZM130.037 116.968H129.88V116.81L130.037 116.968ZM132.389 116.968H130.037V116.641H132.389V116.968ZM132.389 113.477V113.15H132.595L132.801 113.198L132.983 113.247L133.153 113.319L133.31 113.404L133.456 113.501L133.589 113.622L133.71 113.756L133.819 113.901L133.904 114.047L133.977 114.204L134.037 114.374L134.086 114.544L134.122 114.713L134.146 114.883V115.065V115.247L134.122 115.416L134.086 115.586L134.037 115.756L133.977 115.925L133.904 116.083L133.819 116.229L133.71 116.374L133.589 116.507L133.456 116.629L133.31 116.725L133.153 116.81L132.983 116.883L132.801 116.932L132.595 116.968H132.389V116.653H132.571L132.74 116.616L132.898 116.568L133.043 116.507L133.177 116.435L133.298 116.35L133.407 116.253L133.504 116.144L133.589 116.035L133.662 115.913L133.722 115.78L133.771 115.647L133.807 115.501L133.831 115.356V115.21L133.856 115.065V114.919L133.831 114.774L133.807 114.629L133.771 114.483L133.722 114.35L133.662 114.216L133.589 114.095L133.504 113.986L133.407 113.877L133.298 113.78L133.177 113.695L133.043 113.622L132.898 113.562L132.74 113.513L132.571 113.489H132.389V113.477ZM130.037 113.138H132.389V113.465H130.037L129.88 113.307L130.037 113.15V113.138ZM129.88 113.295V113.138H130.037L129.88 113.295ZM129.88 119.61V117.259H130.195V119.61L130.037 119.768L129.88 119.61ZM130.195 119.61V119.768H130.037L130.195 119.61ZM129.54 119.453H130.037V119.78H129.54L129.383 119.622L129.54 119.465V119.453ZM129.54 119.78H129.383V119.622L129.54 119.78ZM129.698 112.81V119.622H129.383V112.81L129.54 112.653L129.698 112.81ZM129.383 112.81V112.653H129.54L129.383 112.81ZM132.389 112.968H129.528V112.641H132.389V112.968ZM132.389 117.416V117.089H132.631L132.862 117.041L133.068 116.98L133.262 116.907L133.431 116.81L133.589 116.701L133.734 116.58L133.868 116.447L133.977 116.301L134.074 116.144L134.159 115.974L134.231 115.792L134.28 115.61L134.316 115.416L134.34 115.222V115.029V114.835L134.316 114.641L134.28 114.447L134.231 114.265L134.159 114.083L134.074 113.913L133.977 113.756L133.868 113.61L133.734 113.477L133.589 113.356L133.431 113.247L133.262 113.15L133.068 113.077L132.862 113.016L132.631 112.98H132.389V112.641H132.656L132.91 112.689L133.153 112.75L133.371 112.835L133.577 112.944L133.759 113.077L133.928 113.222L134.086 113.38L134.219 113.562L134.34 113.744L134.437 113.938L134.522 114.144L134.583 114.362L134.631 114.58L134.656 114.798V115.016V115.235L134.631 115.453L134.583 115.671L134.522 115.889L134.437 116.095L134.34 116.289L134.219 116.471L134.086 116.653L133.928 116.81L133.759 116.956L133.577 117.089L133.371 117.198L133.153 117.283L132.91 117.344L132.656 117.38H132.389V117.416ZM130.037 117.089H132.389V117.416H130.037L129.88 117.259L130.037 117.101V117.089ZM129.88 117.247V117.089H130.037L129.88 117.247Z" fill="#373435"/>
<path d="M130.036 113.317V116.808H132.388C134.557 116.808 134.557 113.317 132.388 113.317H130.036ZM130.036 117.281V119.632H129.539V112.82H132.4C135.224 112.82 135.224 117.269 132.4 117.269H130.048L130.036 117.281Z" fill="#373435"/>
<path d="M140.524 119.597L143.202 112.773L143.493 112.894L140.814 119.719L140.669 119.816L140.524 119.597ZM140.814 119.719L140.778 119.816H140.669L140.814 119.719ZM140.136 119.5H140.681V119.828H140.136L139.99 119.731L140.136 119.513V119.5ZM140.136 119.828H140.027L139.99 119.731L140.136 119.828ZM137.602 112.773L140.281 119.597L139.99 119.719L137.311 112.894L137.457 112.676L137.602 112.773ZM137.311 112.894L137.227 112.676H137.457L137.311 112.894ZM137.99 112.991H137.445V112.664H137.99L138.136 112.761L137.99 112.979V112.991ZM137.99 112.664H138.099L138.136 112.761L137.99 112.664ZM140.257 119.113L137.845 112.894L138.136 112.773L140.548 118.991V119.113H140.257ZM140.548 119.113L140.402 119.488L140.257 119.113H140.548ZM142.96 112.894L140.548 119.113L140.257 118.991L142.669 112.773L142.814 112.676L142.96 112.894ZM142.669 112.773L142.705 112.676H142.814L142.669 112.773ZM143.348 112.991H142.802V112.664H143.348L143.493 112.882L143.348 112.979V112.991ZM143.348 112.664H143.578L143.493 112.882L143.348 112.664Z" fill="#373435"/>
<path d="M143.344 112.82L140.666 119.657H140.12L137.441 112.82H137.987L140.399 119.051L142.799 112.82H143.344Z" fill="#373435"/>
<path d="M146.036 113.137H148.388V113.464H146.036L145.879 113.306L146.036 113.149V113.137ZM146.036 113.464H145.879V113.306L146.036 113.464ZM146.194 112.834V113.306H145.879V112.834L146.036 112.676L146.194 112.834ZM145.879 112.834V112.676H146.036L145.879 112.834ZM151.249 112.991H146.036V112.664H151.249L151.406 112.822L151.249 112.979V112.991ZM151.249 112.664H151.406V112.822L151.249 112.664ZM151.091 113.294V112.822H151.406V113.294L151.249 113.452L151.091 113.294ZM151.406 113.294V113.452H151.249L151.406 113.294ZM148.897 113.137H151.249V113.464H148.897L148.74 113.306L148.897 113.149V113.137ZM148.74 113.294V113.137H148.897L148.74 113.294ZM148.74 119.622V113.294H149.055V119.622L148.897 119.779L148.74 119.622ZM149.055 119.622V119.779H148.897L149.055 119.622ZM148.4 119.464H148.897V119.791H148.4L148.243 119.634L148.4 119.476V119.464ZM148.4 119.791H148.243V119.634L148.4 119.791ZM148.558 113.294V119.622H148.243V113.294L148.4 113.137L148.558 113.294ZM148.4 113.137H148.558V113.294L148.4 113.137Z" fill="#373435"/>
<path d="M148.391 113.309H146.039V112.836H151.251V113.309H148.888V119.636H148.391V113.309Z" fill="#373435"/>
<path d="M153.514 119.346H153.829V119.382V119.406V119.431L153.841 119.455V119.491L153.853 119.516H153.865L153.877 119.54H153.889L153.914 119.552H153.938H153.962H153.986H154.011H154.035H154.059H154.083H154.108H154.132L154.144 119.54H154.156L154.168 119.516H154.18V119.491V119.455V119.431L154.193 119.406V119.382V119.346H154.508V119.406V119.467V119.528L154.471 119.576L154.447 119.625L154.423 119.673L154.386 119.709L154.35 119.746L154.314 119.782L154.277 119.806L154.229 119.831L154.18 119.855H154.132L154.083 119.879H154.035H153.986H153.938H153.889H153.841L153.793 119.855L153.744 119.831L153.696 119.806L153.659 119.782L153.623 119.746L153.586 119.709L153.55 119.673L153.526 119.625L153.502 119.576L153.477 119.528V119.467L153.453 119.406V119.346H153.514ZM154.556 119.346H154.241V119.309V119.285V119.261L154.229 119.237V119.2L154.217 119.176H154.205L154.193 119.152H154.18L154.156 119.14H154.132H154.108H154.083H154.059H154.035H154.011H153.986H153.962H153.938L153.926 119.152H153.914L153.902 119.176H153.889V119.2V119.237V119.261L153.877 119.285V119.309V119.346H153.562V119.285V119.225V119.164L153.599 119.116L153.623 119.067L153.647 119.019L153.683 118.982L153.72 118.946L153.756 118.909L153.793 118.885L153.841 118.861L153.889 118.837H153.938L153.986 118.812H154.035H154.083H154.132H154.18H154.229L154.277 118.837L154.326 118.861L154.374 118.885L154.411 118.909L154.447 118.946L154.483 118.982L154.52 119.019L154.544 119.067L154.568 119.116L154.593 119.164V119.225L154.617 119.285V119.346H154.556Z" fill="#373435"/>
<path d="M154.4 119.343C154.4 119.852 153.66 119.852 153.66 119.343C153.66 118.834 154.4 118.834 154.4 119.343Z" fill="#373435"/>
<path d="M163.259 119.141V112.826H163.574V119.141L163.417 119.299L163.259 119.141ZM163.417 119.299H163.259V119.141L163.417 119.299ZM167.077 119.299H163.417V118.971H167.077L167.235 119.129L167.077 119.287V119.299ZM167.077 118.971H167.235V119.129L167.077 118.971ZM166.92 119.626V119.129H167.235V119.626L167.077 119.784L166.92 119.626ZM167.235 119.626V119.784H167.077L167.235 119.626ZM162.908 119.468H167.077V119.796H162.908L162.75 119.638L162.908 119.48V119.468ZM162.908 119.796H162.75V119.638L162.908 119.796ZM163.065 112.826V119.638H162.75V112.826L162.908 112.668L163.065 112.826ZM162.75 112.826V112.668H162.908L162.75 112.826ZM163.405 112.984H162.908V112.656H163.405L163.562 112.814L163.405 112.971V112.984ZM163.405 112.656H163.562V112.814L163.405 112.656Z" fill="#373435"/>
<path d="M163.419 112.82V119.135H167.092V119.632H162.922V112.82H163.419Z" fill="#373435"/>
<path d="M168.884 113.137H171.236V113.464H168.884L168.727 113.306L168.884 113.149V113.137ZM168.884 113.464H168.727V113.306L168.884 113.464ZM169.042 112.834V113.306H168.727V112.834L168.884 112.676L169.042 112.834ZM168.727 112.834V112.676H168.884L168.727 112.834ZM174.096 112.991H168.884V112.664H174.096L174.254 112.822L174.096 112.979V112.991ZM174.096 112.664H174.254V112.822L174.096 112.664ZM173.939 113.294V112.822H174.254V113.294L174.096 113.452L173.939 113.294ZM174.254 113.294V113.452H174.096L174.254 113.294ZM171.745 113.137H174.096V113.464H171.745L171.587 113.306L171.745 113.149V113.137ZM171.587 113.294V113.137H171.745L171.587 113.294ZM171.587 119.622V113.294H171.902V119.622L171.745 119.779L171.587 119.622ZM171.902 119.622V119.779H171.745L171.902 119.622ZM171.248 119.464H171.745V119.791H171.248L171.09 119.634L171.248 119.476V119.464ZM171.248 119.791H171.09V119.634L171.248 119.791ZM171.405 113.294V119.622H171.09V113.294L171.248 113.137L171.405 113.294ZM171.248 113.137H171.405V113.294L171.248 113.137Z" fill="#373435"/>
<path d="M171.246 113.309H168.883V112.836H174.095V113.309H171.743V119.636H171.246V113.309Z" fill="#373435"/>
<path d="M177.673 119.13V113.324H177.988V119.13L177.831 119.287L177.673 119.13ZM177.831 119.287H177.673V119.13L177.831 119.287ZM179.528 119.287H177.831V118.96H179.528V119.287ZM182.17 116.148H182.485V116.439L182.473 116.584V116.73L182.437 116.875L182.413 117.021L182.376 117.166L182.34 117.299L182.291 117.433L182.243 117.566L182.182 117.699L182.122 117.833L182.049 117.954L181.976 118.075L181.891 118.196L181.806 118.306L181.71 118.415L181.613 118.524L181.503 118.621L181.394 118.718L181.273 118.803L181.152 118.887L181.019 118.96L180.885 119.033L180.74 119.093L180.594 119.154L180.437 119.203L180.279 119.239L180.11 119.275L179.94 119.299H179.758L179.576 119.324V118.996H179.746L179.916 118.984L180.073 118.96L180.231 118.936L180.376 118.899L180.522 118.863L180.655 118.815L180.788 118.754L180.91 118.693L181.031 118.621L181.14 118.548L181.249 118.475L181.346 118.39L181.443 118.306L181.528 118.209L181.613 118.112L181.685 118.015L181.758 117.906L181.831 117.796L181.891 117.687L181.952 117.578L182 117.457L182.049 117.336L182.085 117.215L182.122 117.093L182.158 116.972L182.182 116.839L182.206 116.706V116.572L182.231 116.439V116.306V116.172L182.17 116.148ZM179.528 113.481V113.154H179.71L179.879 113.166L180.049 113.19L180.219 113.215L180.376 113.251L180.534 113.299L180.679 113.348L180.825 113.409L180.958 113.469L181.091 113.542L181.213 113.615L181.334 113.699L181.443 113.784L181.552 113.881L181.649 113.978L181.746 114.087L181.831 114.196L181.916 114.306L181.988 114.427L182.061 114.548L182.122 114.669L182.182 114.79L182.231 114.924L182.279 115.057L182.328 115.19L182.364 115.324L182.4 115.457L182.425 115.59L182.449 115.724V115.857L182.473 115.99V116.136H182.17V116.015L182.158 115.893V115.772L182.122 115.651L182.097 115.53L182.073 115.409L182.037 115.287L182 115.166L181.952 115.045L181.903 114.936L181.855 114.827L181.794 114.718L181.734 114.609L181.661 114.512L181.588 114.415L181.516 114.318L181.431 114.221L181.346 114.136L181.249 114.051L181.152 113.978L181.043 113.906L180.934 113.833L180.825 113.772L180.703 113.712L180.582 113.663L180.449 113.615L180.316 113.578L180.17 113.542L180.025 113.518L179.867 113.493H179.71L179.54 113.481H179.528ZM177.831 113.154H179.528V113.481H177.831L177.673 113.324L177.831 113.166V113.154ZM177.673 113.312V113.154H177.831L177.673 113.312ZM179.528 119.784V119.457H179.734L179.928 119.433L180.122 119.409L180.303 119.372L180.473 119.336L180.643 119.287L180.8 119.227L180.958 119.166L181.103 119.093L181.249 119.021L181.382 118.936L181.503 118.839L181.625 118.742L181.734 118.633L181.843 118.524L181.94 118.415L182.037 118.293L182.122 118.172L182.206 118.051L182.279 117.918L182.352 117.784L182.413 117.651L182.473 117.506L182.522 117.36L182.57 117.215L182.606 117.069L182.643 116.924L182.667 116.766L182.691 116.609V116.451L182.716 116.293V116.136H183.031V116.306V116.475V116.645L182.994 116.815L182.97 116.984L182.934 117.154L182.897 117.324L182.849 117.481L182.788 117.639L182.728 117.796L182.655 117.954L182.582 118.099L182.497 118.245L182.413 118.39L182.316 118.524L182.206 118.657L182.097 118.778L181.976 118.899L181.855 119.009L181.722 119.118L181.576 119.215L181.431 119.312L181.273 119.396L181.116 119.481L180.946 119.554L180.764 119.615L180.582 119.663L180.388 119.712L180.194 119.748L179.988 119.772H179.782L179.564 119.796L179.528 119.784ZM177.322 119.457H179.528V119.784H177.322L177.164 119.627L177.322 119.469V119.457ZM177.322 119.784H177.164V119.627L177.322 119.784ZM177.479 112.815V119.627H177.164V112.815L177.322 112.657L177.479 112.815ZM177.164 112.815V112.657H177.322L177.164 112.815ZM179.528 112.972H177.322V112.645H179.528V112.972ZM182.982 116.136H182.667V115.99V115.845L182.643 115.699L182.619 115.554L182.594 115.409L182.558 115.263L182.522 115.118L182.473 114.972L182.425 114.839L182.364 114.706L182.303 114.572L182.231 114.439L182.158 114.318L182.073 114.196L181.988 114.075L181.891 113.966L181.794 113.857L181.685 113.748L181.576 113.651L181.455 113.554L181.334 113.469L181.2 113.384L181.067 113.312L180.922 113.239L180.776 113.178L180.619 113.13L180.461 113.081L180.291 113.045L180.122 113.009L179.94 112.984H179.746L179.552 112.96V112.633H179.758L179.964 112.657L180.158 112.681L180.352 112.718L180.534 112.754L180.716 112.803L180.885 112.863L181.055 112.936L181.213 113.009L181.37 113.093L181.516 113.178L181.649 113.275L181.782 113.372L181.903 113.481L182.025 113.59L182.134 113.712L182.243 113.833L182.34 113.966L182.425 114.099L182.51 114.233L182.582 114.378L182.655 114.524L182.716 114.669L182.776 114.827L182.825 114.984L182.873 115.142L182.91 115.299L182.946 115.457L182.97 115.615L182.994 115.772V115.93L183.019 116.087L182.982 116.136Z" fill="#373435"/>
<path d="M177.829 113.322V119.128H179.526C181.465 119.128 182.35 117.612 182.326 116.146C182.302 114.728 181.405 113.322 179.526 113.322H177.829ZM182.835 116.146C182.871 117.879 181.817 119.625 179.538 119.625H177.332V112.812H179.538C181.744 112.812 182.799 114.461 182.835 116.134V116.146Z" fill="#373435"/>
<path d="M185.881 119.346H186.196V119.382V119.406V119.431L186.208 119.455V119.491L186.22 119.516H186.232L186.245 119.54H186.257L186.281 119.552H186.305H186.329H186.354H186.378H186.402H186.426H186.451H186.475H186.499L186.511 119.54H186.523L186.535 119.516H186.548V119.491V119.455V119.431L186.56 119.406V119.382V119.346H186.875V119.406V119.467V119.528L186.838 119.576L186.814 119.625L186.79 119.673L186.754 119.709L186.717 119.746L186.681 119.782L186.645 119.806L186.596 119.831L186.548 119.855H186.499L186.451 119.879H186.402H186.354H186.305H186.257H186.208L186.16 119.855L186.111 119.831L186.063 119.806L186.026 119.782L185.99 119.746L185.954 119.709L185.917 119.673L185.893 119.625L185.869 119.576L185.845 119.528V119.467L185.82 119.406V119.346H185.881ZM186.923 119.346H186.608V119.309V119.285V119.261L186.596 119.237V119.2L186.584 119.176H186.572L186.56 119.152H186.548L186.523 119.14H186.499H186.475H186.451H186.426H186.402H186.378H186.354H186.329H186.305L186.293 119.152H186.281L186.269 119.176H186.257V119.2V119.237V119.261L186.245 119.285V119.309V119.346H185.929V119.285V119.225V119.164L185.966 119.116L185.99 119.067L186.014 119.019L186.051 118.982L186.087 118.946L186.123 118.909L186.16 118.885L186.208 118.861L186.257 118.837H186.305L186.354 118.812H186.402H186.451H186.499H186.548H186.596L186.645 118.837L186.693 118.861L186.742 118.885L186.778 118.909L186.814 118.946L186.851 118.982L186.887 119.019L186.911 119.067L186.935 119.116L186.96 119.164V119.225L186.984 119.285V119.346H186.923Z" fill="#373435"/>
<path d="M186.763 119.343C186.763 119.852 186.023 119.852 186.023 119.343C186.023 118.834 186.763 118.834 186.763 119.343Z" fill="#373435"/>
<path fill-rule="evenodd" clip-rule="evenodd" d="M120.715 13.2309H120.703C115.454 13.2309 109.006 14.6491 109.2 21.7157C109.2 21.7157 110.436 17.8369 119.212 18.9157C120.8 19.1097 122.06 19.0612 123.091 18.8672C122.691 18.9036 122.424 18.8672 122.424 18.8672C122.424 18.8672 121.939 16.3945 121.83 13.243C121.466 13.2309 121.09 13.2188 120.715 13.2188V13.2309Z" fill="#ED3237"/>
<path fill-rule="evenodd" clip-rule="evenodd" d="M121.84 13.2606C121.95 16.4 122.434 18.8848 122.434 18.8848C122.434 18.8848 122.701 18.9212 123.101 18.8848C124.156 18.6788 124.944 18.3151 125.537 17.8667C126.337 17.1758 127.028 16 127.271 14.0606C127.392 13.0788 127.416 11.9152 127.259 10.4848C126.228 1.29697 129.937 0 129.937 0C129.828 0 129.731 0 129.634 0C122.628 0 121.634 7.69697 121.84 13.2606Z" fill="#ED3237"/>
<path fill-rule="evenodd" clip-rule="evenodd" d="M133.332 -0.00350379C133.332 -0.00350379 137.042 1.29346 136.011 10.4692C135.854 11.8995 135.866 13.0631 135.999 14.0449C135.999 13.948 135.999 13.8752 135.999 13.8752C135.999 13.8752 138.387 13.3662 141.417 13.2449C141.611 7.68134 140.629 -0.015625 133.623 -0.015625C133.526 -0.015625 133.429 -0.015625 133.32 -0.015625L133.332 -0.00350379Z" fill="#ED3237"/>
<path fill-rule="evenodd" clip-rule="evenodd" d="M142.569 13.2344H142.533C142.157 13.2344 141.794 13.2344 141.43 13.2586C138.4 13.3677 136.012 13.8889 136.012 13.8889C136.012 13.8889 136.012 13.9616 136.012 14.0586C136.254 15.998 136.945 17.1738 137.745 17.8647C138.339 18.3132 139.127 18.6768 140.181 18.8829C141.212 19.0768 142.472 19.1253 144.06 18.9313C152.836 17.8526 154.072 21.7313 154.072 21.7313C154.266 14.6647 147.818 13.2465 142.569 13.2465V13.2344Z" fill="#ED3237"/>
<path fill-rule="evenodd" clip-rule="evenodd" d="M144.051 28.0344C142.463 27.8404 141.202 27.8889 140.172 28.0829C140.572 28.0465 140.839 28.0829 140.839 28.0829C140.839 28.0829 141.323 30.5556 141.432 33.7071C146.826 33.9132 154.281 32.8223 154.063 25.2344C154.063 25.2344 152.826 29.1132 144.051 28.0344Z" fill="#ED3237"/>
<path fill-rule="evenodd" clip-rule="evenodd" d="M140.544 28.0625H140.508C140.411 28.0625 140.29 28.0625 140.168 28.0746C139.114 28.2807 138.326 28.6443 137.732 29.0928C136.932 29.7837 136.241 30.9595 135.999 32.8989C135.877 33.8807 135.853 35.0443 136.011 36.4746C137.041 45.6504 133.332 46.9473 133.332 46.9473C140.617 47.1655 141.635 39.3352 141.429 33.6989C141.32 30.5595 140.835 28.0746 140.835 28.0746C140.835 28.0746 140.726 28.0625 140.544 28.0625Z" fill="#ED3237"/>
<path fill-rule="evenodd" clip-rule="evenodd" d="M127.26 33.0759C127.26 33.0759 124.872 33.585 121.841 33.7062C121.648 39.3547 122.666 47.185 129.938 46.9547C129.938 46.9547 126.229 45.6578 127.26 36.482C127.417 35.0517 127.405 33.8881 127.272 32.9062C127.272 33.0032 127.272 33.0759 127.272 33.0759H127.26Z" fill="#ED3237"/>
<path fill-rule="evenodd" clip-rule="evenodd" d="M121.842 33.6993C124.872 33.5902 127.26 33.069 127.26 33.069C127.26 33.069 127.26 32.9963 127.26 32.8993C127.018 30.9599 126.327 29.7841 125.527 29.0932C124.933 28.6447 124.145 28.2811 123.091 28.075C122.06 27.8811 120.8 27.8326 119.212 28.0266C110.436 29.1053 109.2 25.2266 109.2 25.2266C108.993 32.8144 116.436 33.8932 121.83 33.6993H121.842Z" fill="#ED3237"/>
<path fill-rule="evenodd" clip-rule="evenodd" d="M120.351 5.79418C120.291 5.79418 120.218 5.8063 120.133 5.81842C120.048 5.83054 119.951 5.85478 119.854 5.87902C119.648 5.91539 119.43 5.96387 119.2 6.04872C119.091 6.08508 118.97 6.12145 118.836 6.16993C118.715 6.21842 118.594 6.27902 118.46 6.32751C118.206 6.42448 117.951 6.59418 117.685 6.72751C117.442 6.90933 117.176 7.0669 116.933 7.28509C116.679 7.47902 116.473 7.72145 116.242 7.95175C116.048 8.2063 115.83 8.44872 115.673 8.72751C115.491 8.98205 115.357 9.27296 115.212 9.53963C115.103 9.81842 114.97 10.0851 114.909 10.3518C114.873 10.4851 114.836 10.6063 114.788 10.7396C114.763 10.8608 114.739 10.9942 114.715 11.1033C114.654 11.3336 114.642 11.5518 114.618 11.7457C114.618 11.8427 114.594 11.9275 114.594 12.0124C114.594 12.0972 114.594 12.1699 114.594 12.2427C114.594 12.5214 114.594 12.679 114.594 12.679C114.594 12.679 114.606 12.5214 114.63 12.2427C114.63 12.1699 114.642 12.0972 114.654 12.0124C114.666 11.9275 114.691 11.8427 114.703 11.7457C114.739 11.5518 114.776 11.3457 114.848 11.1275C114.885 11.0184 114.921 10.8972 114.957 10.776C115.006 10.6548 115.054 10.5336 115.103 10.4124C115.188 10.1578 115.345 9.92751 115.466 9.66084C115.624 9.41842 115.77 9.16387 115.963 8.93357C116.133 8.69115 116.351 8.48509 116.557 8.2669C116.788 8.07296 117.006 7.8669 117.248 7.70933C117.479 7.52751 117.733 7.4063 117.963 7.27296C118.218 7.17599 118.448 7.04266 118.691 6.98206C118.812 6.94569 118.921 6.90933 119.03 6.87296C119.139 6.84872 119.248 6.82448 119.357 6.80024C119.563 6.75175 119.757 6.72751 119.915 6.71539C120 6.71539 120.073 6.70327 120.145 6.69115C120.23 6.69115 120.303 6.69115 120.363 6.69115C120.63 6.69115 120.776 6.69115 120.776 6.69115L120.727 5.75781C120.727 5.75781 120.582 5.76993 120.315 5.79418H120.351Z" fill="#ED3237"/>
<path fill-rule="evenodd" clip-rule="evenodd" d="M142.642 6.25431C142.702 6.25431 142.775 6.26643 142.86 6.27855C142.933 6.29067 143.018 6.31491 143.115 6.32704C143.296 6.3634 143.502 6.39976 143.708 6.48461C143.818 6.52098 143.927 6.55734 144.048 6.5937C144.157 6.64219 144.278 6.69067 144.387 6.75128C144.63 6.84825 144.86 7.00582 145.102 7.12704C145.333 7.29673 145.575 7.44219 145.793 7.64825C146.024 7.83007 146.23 8.06037 146.436 8.27855C146.618 8.52098 146.811 8.73916 146.969 8.9937C147.139 9.23613 147.26 9.50279 147.393 9.74522C147.49 10.0119 147.611 10.2543 147.672 10.4967C147.708 10.6179 147.745 10.7392 147.781 10.8482C147.805 10.9695 147.83 11.0786 147.854 11.1876C147.902 11.4058 147.915 11.5998 147.939 11.7816C147.939 11.8664 147.951 11.9513 147.963 12.024C147.963 12.1089 147.963 12.1816 147.963 12.2543C147.963 12.5331 147.963 12.6907 147.963 12.6907L148.86 12.6422C148.86 12.6422 148.848 12.4846 148.824 12.2058C148.824 12.1331 148.811 12.0604 148.799 11.9755C148.787 11.8907 148.763 11.7816 148.751 11.6846C148.715 11.4786 148.678 11.2361 148.593 11.0058C148.557 10.8846 148.521 10.7634 148.484 10.6301C148.436 10.5089 148.387 10.3755 148.327 10.2422C148.23 9.97552 148.072 9.70885 147.939 9.44219C147.769 9.18764 147.611 8.90885 147.405 8.66643C147.224 8.41188 146.981 8.18158 146.763 7.95128C146.521 7.74522 146.29 7.52704 146.024 7.35734C145.781 7.1634 145.502 7.03007 145.248 6.88461C144.981 6.77552 144.727 6.63007 144.472 6.55734C144.351 6.52098 144.218 6.47249 144.108 6.43613C143.987 6.41188 143.866 6.38764 143.757 6.3634C143.539 6.30279 143.321 6.29067 143.139 6.26643C143.042 6.26643 142.957 6.24219 142.884 6.24219C142.799 6.24219 142.727 6.24219 142.666 6.24219C142.399 6.24219 142.254 6.24219 142.254 6.24219C142.254 6.24219 142.399 6.25431 142.666 6.27855L142.642 6.25431Z" fill="#ED3237"/>
<path d="M115.052 34.3594C115.052 34.3594 115.052 34.517 115.052 34.7957C115.052 34.8685 115.052 34.9412 115.052 35.026C115.052 35.0988 115.065 35.1836 115.077 35.2685C115.089 35.4382 115.101 35.6321 115.162 35.8624C115.186 35.9715 115.21 36.0806 115.234 36.2018C115.271 36.3109 115.307 36.4321 115.343 36.5533C115.404 36.8079 115.525 37.0503 115.622 37.3048C115.755 37.5473 115.877 37.8139 116.046 38.0563C116.192 38.3109 116.398 38.5412 116.58 38.7715C116.786 38.9897 116.992 39.2079 117.222 39.4018C117.44 39.6079 117.683 39.7533 117.913 39.923C118.155 40.0563 118.386 40.2139 118.628 40.2988C118.749 40.3473 118.858 40.3957 118.968 40.4563C119.089 40.4927 119.198 40.5291 119.307 40.5654C119.525 40.6382 119.719 40.6867 119.901 40.723C119.986 40.7473 120.071 40.7594 120.155 40.7715C120.24 40.7715 120.313 40.7836 120.374 40.7957C120.64 40.82 120.786 40.8321 120.786 40.8321C120.786 40.8321 120.628 40.8321 120.374 40.8321C120.313 40.8321 120.228 40.8321 120.155 40.8321C120.071 40.8321 119.986 40.8079 119.901 40.8079C119.719 40.7836 119.501 40.7715 119.283 40.7109C119.174 40.6866 119.052 40.6624 118.931 40.6382C118.81 40.6018 118.689 40.5533 118.568 40.517C118.313 40.4442 118.058 40.3109 117.792 40.1897C117.537 40.0442 117.258 39.9109 117.016 39.717C116.749 39.5473 116.519 39.3291 116.277 39.123C116.058 38.8927 115.828 38.6624 115.634 38.4079C115.428 38.1654 115.271 37.8866 115.101 37.6321C114.968 37.3533 114.81 37.0988 114.713 36.8321C114.665 36.6988 114.604 36.5654 114.555 36.4442C114.519 36.3109 114.483 36.1897 114.446 36.0685C114.374 35.826 114.325 35.5957 114.289 35.3897C114.265 35.2806 114.252 35.1836 114.24 35.0988C114.24 35.0139 114.228 34.9412 114.216 34.8685C114.192 34.5897 114.18 34.4321 114.18 34.4321L115.077 34.3836L115.052 34.3594Z" fill="#ED3237"/>
<path fill-rule="evenodd" clip-rule="evenodd" d="M142.666 41.272C142.727 41.272 142.8 41.2597 142.885 41.2476C142.969 41.2355 143.066 41.2114 143.163 41.1871C143.369 41.1508 143.588 41.1023 143.818 41.0174C143.939 40.9811 144.048 40.9447 144.182 40.8962C144.303 40.8477 144.424 40.7871 144.557 40.7386C144.812 40.6417 145.066 40.472 145.333 40.3265C145.576 40.1447 145.842 39.9871 146.085 39.7689C146.339 39.575 146.545 39.3325 146.776 39.1022C146.969 38.8476 147.188 38.6053 147.345 38.3265C147.527 38.072 147.66 37.7811 147.806 37.5144C147.915 37.2356 148.048 36.9689 148.109 36.7023C148.145 36.5689 148.182 36.4477 148.23 36.3144C148.254 36.1811 148.279 36.0598 148.303 35.9508C148.363 35.7205 148.376 35.5023 148.4 35.3083C148.4 35.2114 148.424 35.1265 148.424 35.0417C148.424 34.9568 148.424 34.8841 148.424 34.8114C148.424 34.5326 148.424 34.375 148.424 34.375C148.424 34.375 148.412 34.5326 148.388 34.8114C148.388 34.8841 148.376 34.9568 148.363 35.0417C148.351 35.1265 148.327 35.2114 148.315 35.3083C148.279 35.5023 148.242 35.7083 148.169 35.9265C148.133 36.0356 148.097 36.1568 148.06 36.278C148.012 36.3992 147.963 36.5205 147.915 36.6417C147.83 36.8962 147.672 37.1265 147.551 37.3932C147.394 37.6356 147.248 37.8902 147.054 38.1205C146.885 38.3629 146.666 38.5689 146.46 38.7871C146.23 38.9811 146.012 39.1871 145.769 39.3447C145.539 39.5265 145.285 39.6477 145.054 39.7811C144.8 39.878 144.569 40.0114 144.327 40.072C144.206 40.1083 144.097 40.1447 143.988 40.1811C143.879 40.2053 143.769 40.2295 143.66 40.2538C143.454 40.3023 143.26 40.3264 143.103 40.3385C143.018 40.3385 142.945 40.3508 142.872 40.3629C142.788 40.3629 142.715 40.3629 142.654 40.3629C142.388 40.3629 142.242 40.3629 142.242 40.3629L142.291 41.2962C142.291 41.2962 142.436 41.2841 142.703 41.2599L142.666 41.272Z" fill="#ED3237"/>
</g>
</svg>
